<svg width="24" height="24" viewBox="0 0 24 24" fill="none" xmlns="http://www.w3.org/2000/svg">
<path fill-rule="evenodd" clip-rule="evenodd" d="M7.54897 0H16.5222C20.6514 0 23.9999 3.3585 23.9999 7.5V16.5C23.9999 20.6415 20.6514 24 16.5222 24H7.54897C3.41979 24 0.0712891 20.6415 0.0712891 16.5V7.5C0.0712891 3.3585 3.41979 0 7.54897 0ZM16.5222 21.75C19.4086 21.75 21.7566 19.395 21.7566 16.5V7.5C21.7566 4.605 19.4086 2.25 16.5222 2.25H7.54897C4.66258 2.25 2.31459 4.605 2.31459 7.5V16.5C2.31459 19.395 4.66258 21.75 7.54897 21.75H16.5222Z" fill="white"/>
<path fill-rule="evenodd" clip-rule="evenodd" d="M6.05371 12C6.05371 8.6865 8.73222 6 12.0359 6C15.3395 6 18.018 8.6865 18.018 12C18.018 15.3135 15.3395 18 12.0359 18C8.73222 18 6.05371 15.3135 6.05371 12ZM8.29701 12C8.29701 14.067 9.97501 15.75 12.0359 15.75C14.0967 15.75 15.7747 14.067 15.7747 12C15.7747 9.9315 14.0967 8.25 12.0359 8.25C9.97501 8.25 8.29701 9.9315 8.29701 12Z" fill="white"/>
<path d="M18.4661 6.34998C18.9063 6.34998 19.2632 5.99203 19.2632 5.55048C19.2632 5.10892 18.9063 4.75098 18.4661 4.75098C18.0258 4.75098 17.6689 5.10892 17.6689 5.55048C17.6689 5.99203 18.0258 6.34998 18.4661 6.34998Z" fill="white"/>
</svg>
