<svg width="90" height="32" viewBox="0 0 90 32" fill="none" xmlns="http://www.w3.org/2000/svg">
<path d="M44.008 14.192C47.208 14.192 48.76 12.592 48.76 10.72C48.76 6.608 42.248 8.032 42.248 5.968C42.248 5.264 42.84 4.688 44.376 4.688C45.368 4.688 46.44 4.976 47.48 5.568L48.28 3.6C47.24 2.944 45.8 2.608 44.392 2.608C41.208 2.608 39.672 4.192 39.672 6.096C39.672 10.256 46.184 8.816 46.184 10.912C46.184 11.6 45.56 12.112 44.024 12.112C42.68 12.112 41.272 11.632 40.328 10.944L39.448 12.896C40.44 13.664 42.232 14.192 44.008 14.192ZM61.3791 5.264C60.0831 5.264 58.9631 5.792 58.2751 6.672C57.6671 5.728 56.6431 5.264 55.4431 5.264C54.3391 5.264 53.3791 5.648 52.7391 6.384V5.392H50.3551V14H52.8511V9.68C52.8511 8.144 53.6351 7.424 54.7391 7.424C55.7791 7.424 56.3711 8.064 56.3711 9.456V14H58.8671V9.68C58.8671 8.144 59.6511 7.424 60.7711 7.424C61.7791 7.424 62.4031 8.064 62.4031 9.456V14H64.8991V9.072C64.8991 6.448 63.4271 5.264 61.3791 5.264ZM70.6084 5.264C69.2324 5.264 67.8404 5.632 66.8964 6.304L67.7924 8.048C68.4164 7.552 69.3604 7.248 70.2724 7.248C71.6164 7.248 72.2564 7.872 72.2564 8.944H70.2724C67.6484 8.944 66.5764 10 66.5764 11.52C66.5764 13.008 67.7764 14.128 69.7924 14.128C71.0564 14.128 71.9524 13.712 72.4164 12.928V14H74.7524V9.088C74.7524 6.48 73.2324 5.264 70.6084 5.264ZM70.4164 12.448C69.5364 12.448 69.0084 12.032 69.0084 11.408C69.0084 10.832 69.3764 10.4 70.5444 10.4H72.2564V11.28C71.9684 12.064 71.2484 12.448 70.4164 12.448ZM79.3954 6.528V5.392H77.0114V14H79.5074V9.936C79.5074 8.288 80.4194 7.536 81.7954 7.536C81.9874 7.536 82.1474 7.552 82.3554 7.568V5.264C81.0274 5.264 80.0034 5.696 79.3954 6.528ZM89.0164 11.824C88.7444 12.032 88.3764 12.144 88.0084 12.144C87.3364 12.144 86.9364 11.744 86.9364 11.008V7.504H89.0804V5.584H86.9364V3.488H84.4404V5.584H83.1124V7.504H84.4404V11.04C84.4404 13.088 85.6244 14.128 87.6564 14.128C88.4244 14.128 89.1764 13.952 89.6884 13.584L89.0164 11.824ZM48.008 18.8V23.216H42.92V18.8H40.328V30H42.92V25.408H48.008V30H50.6V18.8H48.008ZM57.1699 30.128C59.9059 30.128 61.8899 28.288 61.8899 25.696C61.8899 23.104 59.9059 21.264 57.1699 21.264C54.4339 21.264 52.4339 23.104 52.4339 25.696C52.4339 28.288 54.4339 30.128 57.1699 30.128ZM57.1699 28.08C55.9219 28.08 54.9619 27.184 54.9619 25.696C54.9619 24.208 55.9219 23.312 57.1699 23.312C58.4179 23.312 59.3619 24.208 59.3619 25.696C59.3619 27.184 58.4179 28.08 57.1699 28.08ZM74.5823 21.264C73.2863 21.264 72.1663 21.792 71.4783 22.672C70.8703 21.728 69.8463 21.264 68.6463 21.264C67.5423 21.264 66.5823 21.648 65.9423 22.384V21.392H63.5583V30H66.0543V25.68C66.0543 24.144 66.8383 23.424 67.9423 23.424C68.9823 23.424 69.5743 24.064 69.5743 25.456V30H72.0703V25.68C72.0703 24.144 72.8543 23.424 73.9743 23.424C74.9823 23.424 75.6063 24.064 75.6063 25.456V30H78.1023V25.072C78.1023 22.448 76.6303 21.264 74.5823 21.264ZM88.8653 25.728C88.8653 22.96 86.9133 21.264 84.3853 21.264C81.7613 21.264 79.7933 23.12 79.7933 25.696C79.7933 28.256 81.7293 30.128 84.7053 30.128C86.2573 30.128 87.4573 29.648 88.2573 28.736L86.9293 27.296C86.3373 27.856 85.6813 28.128 84.7693 28.128C83.4573 28.128 82.5453 27.472 82.3053 26.4H88.8173C88.8333 26.192 88.8653 25.92 88.8653 25.728ZM84.4013 23.152C85.5213 23.152 86.3373 23.856 86.5133 24.944H82.2733C82.4493 23.84 83.2653 23.152 84.4013 23.152Z" fill="white"/>
<circle cx="12.5" cy="4.5" r="4.5" fill="#4F43ED"/>
<circle cx="4.5" cy="13.5" r="4.5" fill="#4F43ED"/>
<circle cx="4.5" cy="24.5" r="4.5" fill="#4F43ED"/>
<circle cx="20.5" cy="13.5" r="4.5" fill="#4F43ED"/>
<circle cx="12.5" cy="18.5" r="3.5" fill="#4F43ED"/>
<circle cx="20.5" cy="24.5" r="4.5" fill="#4F43ED"/>
</svg>
