<svg width="50" height="50" viewBox="0 0 50 50" fill="none" xmlns="http://www.w3.org/2000/svg">
<g clip-path="url(#clip0)">
<path d="M49.708 19.5798L25.4359 2.21429C25.1945 2.04185 24.8697 2.04185 24.6283 2.21429L0.291485 19.5794C-0.0208488 19.8019 -0.0937007 20.2359 0.129118 20.5482C0.351937 20.8605 0.785561 20.933 1.09789 20.7102L5.04624 17.893V47.1589C5.04624 47.5426 5.35703 47.8534 5.74066 47.8534H9.47859C9.86222 47.8534 10.173 47.5426 10.173 47.1589V26.1237H39.8257V47.1589C39.8257 47.5426 40.1369 47.8534 40.5201 47.8534H44.2581C44.6417 47.8534 44.9525 47.5426 44.9525 47.1589V17.8852L48.9001 20.7094C49.1016 20.8547 49.3658 20.8811 49.5921 20.7784C49.8185 20.6757 49.9731 20.4602 49.9967 20.2126C50.0207 19.9654 49.9107 19.724 49.708 19.5798ZM39.8257 20.8299H10.1726V17.9608H39.8257V20.8299ZM10.1726 24.7349V22.2184H39.8257V24.7349H10.1726ZM43.5636 46.4645H41.2146V17.2664C41.2146 16.8827 40.9038 16.572 40.5201 16.572H9.4782C9.09495 16.572 8.78378 16.8827 8.78378 17.2664V46.4645H6.43469V16.9021L25.0313 3.63258L43.5636 16.8916V46.4645Z" fill="#EFEEEF"/>
<path d="M16.0364 38.5127C15.0203 38.5127 14.1973 39.3362 14.1973 40.3518C14.1973 41.3675 15.0203 42.1909 16.0364 42.1909C17.0521 42.1909 17.8755 41.3675 17.8755 40.3518C17.8744 39.3365 17.0517 38.5139 16.0364 38.5127ZM16.0364 40.8021C15.7876 40.8021 15.5861 40.6002 15.5861 40.3518C15.5861 40.103 15.7876 39.9015 16.0364 39.9015C16.2848 39.9015 16.4867 40.103 16.4867 40.3518C16.4863 40.6002 16.2848 40.8013 16.0364 40.8017V40.8021Z" fill="#EFEEEF"/>
<path d="M33.9622 38.5127C32.9465 38.5127 32.123 39.3362 32.123 40.3518C32.123 41.3675 32.9465 42.1909 33.9622 42.1909C34.9778 42.1909 35.8013 41.3675 35.8013 40.3518C35.8001 39.3365 34.9774 38.5139 33.9622 38.5127ZM33.9622 40.8021C33.7134 40.8021 33.5119 40.6002 33.5119 40.3518C33.5119 40.103 33.7134 39.9015 33.9622 39.9015C34.211 39.9015 34.4125 40.103 34.4125 40.3518C34.4121 40.6002 34.2106 40.8013 33.9622 40.8017V40.8021Z" fill="#EFEEEF"/>
<path d="M11.9404 38.4563L12.584 43.5401C12.6061 44.3034 13.1072 44.9704 13.8345 45.2036V46.6072C13.8353 47.2954 14.3929 47.853 15.0811 47.8538H16.7579C17.4461 47.853 18.0038 47.2954 18.0045 46.6072V45.2897H31.9937V46.6072C31.9944 47.2954 32.5521 47.853 33.2403 47.8538H34.9167C35.6049 47.853 36.1625 47.2954 36.1633 46.6072V45.1932C36.8755 44.9518 37.363 44.2934 37.3859 43.542L38.0574 38.4598C38.0613 38.4299 38.0636 38.3993 38.0636 38.3687C38.0667 37.6875 37.8362 37.0256 37.4103 36.4939C37.7188 36.3699 37.8958 36.0444 37.8327 35.7181C37.7695 35.3915 37.4839 35.1555 37.1514 35.1555L35.6332 35.1563L33.8591 31.8861C33.1934 30.6933 32.2153 29.3242 30.5428 29.3242H19.5484C18.194 29.3242 17.0028 30.2368 16.1929 31.8954L14.355 35.1524L12.846 35.1555C12.5185 35.157 12.2364 35.3872 12.1698 35.7077C12.1027 36.0282 12.2686 36.3521 12.5681 36.4846C12.1512 37.0233 11.9284 37.6871 11.9357 38.3683C11.9353 38.3978 11.9369 38.4268 11.9404 38.4563ZM16.6161 46.4646H15.2234V45.2897H16.6161V46.4646ZM33.3825 46.4646V45.2897H34.7748V46.4646H33.3825ZM36.0036 43.3994C35.9998 43.4296 35.9974 43.4598 35.9974 43.4904C35.9947 43.7156 35.8126 43.8973 35.5874 43.9004H14.3821C14.1569 43.8973 13.9752 43.7156 13.9721 43.4904C13.9721 43.4614 13.9702 43.4323 13.9667 43.4033L13.3242 38.328C13.3416 37.465 13.912 36.9369 14.4886 36.8927C14.5119 36.8954 14.5355 36.897 14.5588 36.8973H35.4072C36.1749 36.8973 36.6554 37.6313 36.674 38.3265L36.0036 43.3994ZM28.6231 35.5085C28.8719 34.9168 29.4512 34.532 30.0929 34.532C30.735 34.532 31.3144 34.9168 31.5631 35.5085H28.6231ZM17.4124 32.5592C17.4198 32.5468 17.4264 32.534 17.4322 32.5208C17.7596 31.8454 18.4703 30.7127 19.548 30.7127H30.5428C31.2938 30.7127 31.9228 31.266 32.642 32.5557L34.2439 35.5089H33.0128C32.7203 34.1297 31.5031 33.1435 30.0937 33.1435C28.6839 33.1435 27.4668 34.1297 27.1746 35.5089H15.7481L17.4124 32.5592Z" fill="#EFEEEF"/>
<path d="M30.593 39.4988C30.3039 38.6486 29.3735 37.9824 28.4756 37.9824H21.4954C20.5936 37.9824 19.6679 38.6536 19.3877 39.5112L19.0382 40.5818C18.9692 40.7934 19.0056 41.0252 19.1362 41.205C19.2668 41.3852 19.4761 41.4917 19.6985 41.4917H30.3012C30.5251 41.4917 30.7352 41.3836 30.8658 41.2019C30.996 41.0197 31.0308 40.7857 30.9588 40.5737L30.593 39.4988ZM20.6556 40.1029L20.7083 39.9421C20.8436 39.62 21.147 39.3999 21.4954 39.3713H28.4756C28.8286 39.4007 29.1367 39.6216 29.2781 39.9463L29.3316 40.1033L20.6556 40.1029Z" fill="#EFEEEF"/>
</g>
<defs>
<clipPath id="clip0">
<rect width="50" height="50" fill="white"/>
</clipPath>
</defs>
</svg>
