<svg width="50" height="38" viewBox="0 0 50 38" fill="none" xmlns="http://www.w3.org/2000/svg">
<path d="M42.6823 1.32261C42.1103 0.750537 41.1828 0.750537 40.6107 1.32261C40.0386 1.89468 40.0386 2.82212 40.6107 3.39419C44.7763 7.55972 47.0704 13.1021 47.0704 19.0002C47.0704 24.8984 44.7763 30.4408 40.6107 34.6063C40.0386 35.1783 40.0386 36.1058 40.6107 36.6779C41.1837 37.2509 42.1112 37.249 42.6823 36.6779C47.4012 31.959 50.0001 25.681 50.0001 19.0002C50.0001 12.3195 47.4012 6.04145 42.6823 1.32261Z" fill="#EFEEEF"/>
<path d="M38.2467 5.75808C37.6747 5.18611 36.7471 5.18611 36.1751 5.75808C35.6032 6.33015 35.6032 7.25759 36.1751 7.82966C39.1569 10.8112 40.7991 14.7784 40.7991 19.0003C40.7991 23.2221 39.157 27.1892 36.1751 30.1709C35.6031 30.7429 35.6031 31.6704 36.1751 32.2425C36.747 32.8143 37.6745 32.8146 38.2467 32.2425C41.7819 28.7075 43.7288 24.0047 43.7288 19.0002C43.7288 13.9957 41.7818 9.29294 38.2467 5.75808Z" fill="#EFEEEF"/>
<path d="M33.8073 10.1966C33.2352 9.62459 32.3077 9.62459 31.7357 10.1966C31.1636 10.7686 31.1637 11.6962 31.7357 12.2681C33.5326 14.0648 34.5221 16.4556 34.5221 19C34.5221 21.5443 33.5326 23.9351 31.7357 25.7318C31.1636 26.3038 31.1636 27.2313 31.7357 27.8034C32.3077 28.3754 33.2351 28.3755 33.8073 27.8034C36.1575 25.4533 37.4518 22.3268 37.4518 18.9999C37.4518 15.6729 36.1575 12.5467 33.8073 10.1966Z" fill="#EFEEEF"/>
<path d="M2.92969 19.0002C2.92969 13.1021 5.22373 7.55968 9.38936 3.39415C9.96143 2.82218 9.96143 1.89464 9.38936 1.32257C8.81738 0.750598 7.88994 0.750501 7.31777 1.32257C2.59883 6.04142 0 12.3194 0 19.0002C0 25.681 2.59883 31.959 7.31777 36.6778C7.88965 37.2498 8.81729 37.25 9.38936 36.6778C9.96143 36.1058 9.96143 35.1783 9.38936 34.6063C5.22373 30.4407 2.92969 24.8984 2.92969 19.0002Z" fill="#EFEEEF"/>
<path d="M9.20117 19.0003C9.20117 14.7784 10.8433 10.8113 13.8251 7.8297C14.3972 7.25763 14.3972 6.33019 13.8251 5.75812C13.2531 5.18605 12.3256 5.18615 11.7535 5.75812C8.21836 9.29298 6.27148 13.9959 6.27148 19.0003C6.27148 24.0047 8.21836 28.7076 11.7535 32.2426C12.3264 32.8153 13.2538 32.8139 13.8251 32.2426C14.3971 31.6705 14.3971 30.7431 13.8251 30.171C10.8433 27.1894 9.20117 23.2222 9.20117 19.0003Z" fill="#EFEEEF"/>
<path d="M18.263 10.1966C17.691 9.62456 16.7635 9.62456 16.1914 10.1966C13.8412 12.5467 12.5469 15.6732 12.5469 19.0001C12.5469 22.3271 13.8412 25.4536 16.1914 27.8037C16.7643 28.3764 17.6917 28.3749 18.263 27.8037C18.8351 27.2316 18.835 26.3041 18.263 25.7321C16.4661 23.9354 15.4766 21.5446 15.4766 19.0002C15.4766 16.4559 16.4661 14.0651 18.263 12.2684C18.835 11.6962 18.835 10.7687 18.263 10.1966Z" fill="#EFEEEF"/>
<path d="M25 12.8281C21.5968 12.8281 18.8281 15.5969 18.8281 19C18.8281 22.4031 21.5969 25.1719 25 25.1719C28.4031 25.1719 31.1719 22.4031 31.1719 19C31.1719 15.5969 28.4032 12.8281 25 12.8281ZM25 22.2422C23.2122 22.2422 21.7578 20.7877 21.7578 19C21.7578 17.2123 23.2123 15.7578 25 15.7578C26.7877 15.7578 28.2422 17.2123 28.2422 19C28.2422 20.7877 26.7878 22.2422 25 22.2422Z" fill="#EFEEEF"/>
</svg>
