<svg width="50" height="50" viewBox="0 0 50 50" fill="none" xmlns="http://www.w3.org/2000/svg">
<path d="M44.7917 29.418H5.2083C2.3375 29.418 0 31.7555 0 34.6263V38.793C0 41.6638 2.3375 44.0013 5.2083 44.0013H44.7916C47.6624 44.0013 49.9999 41.6658 49.9999 38.793V34.6263C50 31.7555 47.6625 29.418 44.7917 29.418ZM47.9167 38.793C47.9167 40.5159 46.5146 41.918 44.7917 41.918H5.2083C3.48535 41.918 2.0833 40.5159 2.0833 38.793V34.6263C2.0833 32.9033 3.48535 31.5013 5.2083 31.5013H44.7916C46.5145 31.5013 47.9166 32.9033 47.9166 34.6263V38.793H47.9167Z" fill="#EFEEEF"/>
<path d="M36.4577 14.835C35.8827 14.835 35.416 15.3017 35.416 15.8767V30.46C35.416 31.035 35.8827 31.5017 36.4577 31.5017C37.0327 31.5017 37.4994 31.0371 37.4994 30.46V15.8766C37.4994 15.3016 37.0327 14.835 36.4577 14.835Z" fill="#EFEEEF"/>
<path d="M7.2917 37.7514C7.86701 37.7514 8.3334 37.285 8.3334 36.7097C8.3334 36.1344 7.86701 35.668 7.2917 35.668C6.71638 35.668 6.25 36.1344 6.25 36.7097C6.25 37.285 6.71638 37.7514 7.2917 37.7514Z" fill="#EFEEEF"/>
<path d="M13.5417 37.7514C14.117 37.7514 14.5834 37.285 14.5834 36.7097C14.5834 36.1344 14.117 35.668 13.5417 35.668C12.9664 35.668 12.5 36.1344 12.5 36.7097C12.5 37.285 12.9664 37.7514 13.5417 37.7514Z" fill="#EFEEEF"/>
<path d="M19.7917 37.7514C20.367 37.7514 20.8334 37.285 20.8334 36.7097C20.8334 36.1344 20.367 35.668 19.7917 35.668C19.2164 35.668 18.75 36.1344 18.75 36.7097C18.75 37.285 19.2164 37.7514 19.7917 37.7514Z" fill="#EFEEEF"/>
<path d="M26.0417 37.7514C26.617 37.7514 27.0834 37.285 27.0834 36.7097C27.0834 36.1344 26.617 35.668 26.0417 35.668C25.4664 35.668 25 36.1344 25 36.7097C25 37.285 25.4664 37.7514 26.0417 37.7514Z" fill="#EFEEEF"/>
<path d="M42.7083 35.668H32.2917C31.7167 35.668 31.25 36.1347 31.25 36.7097C31.25 37.2847 31.7167 37.7514 32.2917 37.7514H42.7084C43.2834 37.7514 43.7501 37.2847 43.7501 36.7097C43.75 36.1347 43.2833 35.668 42.7083 35.668Z" fill="#EFEEEF"/>
<path d="M33.3333 15.8758C33.3333 15.0403 33.6583 14.257 34.2479 13.6653C34.6541 13.2591 34.6541 12.5986 34.2479 12.1924C33.8416 11.7861 33.1812 11.7861 32.7749 12.1924C31.7917 13.1758 31.25 14.4842 31.25 15.8758C31.25 17.2675 31.7917 18.5758 32.775 19.5591C32.9792 19.7611 33.2458 19.8633 33.5125 19.8633C33.7792 19.8633 34.0458 19.7633 34.248 19.5591C34.6542 19.1528 34.6542 18.4924 34.248 18.0861C33.6583 17.4945 33.3333 16.7112 33.3333 15.8758Z" fill="#EFEEEF"/>
<path d="M40.1411 12.1934C39.7349 11.7871 39.0744 11.7871 38.6682 12.1934C38.2619 12.5996 38.2619 13.2601 38.6682 13.6663C39.2577 14.258 39.5827 15.0413 39.5827 15.8768C39.5827 16.7122 39.2577 17.4976 38.666 18.0872C38.2598 18.4935 38.2598 19.1539 38.666 19.5602C38.8702 19.7622 39.1368 19.8644 39.4035 19.8644C39.6702 19.8644 39.9368 19.7644 40.141 19.5602C41.1243 18.5769 41.666 17.2685 41.666 15.8769C41.6661 14.4851 41.1244 13.1767 40.1411 12.1934Z" fill="#EFEEEF"/>
<path d="M31.2995 10.722C31.7058 10.3157 31.7058 9.65527 31.2995 9.24902C30.8933 8.84277 30.2328 8.84277 29.8266 9.24902C26.1724 12.9053 26.1724 18.8511 29.8266 22.5073C30.0308 22.7094 30.2974 22.8115 30.5641 22.8115C30.8308 22.8115 31.0974 22.7095 31.2995 22.5073C31.7058 22.1011 31.7058 21.4406 31.2995 21.0344C28.4578 18.1907 28.4578 13.5657 31.2995 10.722Z" fill="#EFEEEF"/>
<path d="M43.0882 9.24902C42.6819 8.84277 42.0215 8.84277 41.6152 9.24902C41.209 9.65527 41.209 10.3157 41.6152 10.722C44.4569 13.5657 44.4569 18.1907 41.6152 21.0345C41.209 21.4407 41.209 22.1012 41.6152 22.5074C41.8194 22.7095 42.086 22.8116 42.3527 22.8116C42.6194 22.8116 42.884 22.7096 43.0882 22.5074C46.7424 18.8511 46.7424 12.9053 43.0882 9.24902Z" fill="#EFEEEF"/>
<path d="M28.3542 7.77666C28.7605 7.37041 28.7605 6.70996 28.3542 6.30371C27.948 5.89746 27.2875 5.89746 26.8813 6.30371C21.6021 11.5829 21.6021 20.1745 26.8813 25.4537C27.0855 25.6558 27.3521 25.7579 27.6188 25.7579C27.8855 25.7579 28.1521 25.6559 28.3542 25.4537C28.7605 25.0475 28.7605 24.387 28.3542 23.9808C23.8855 19.5142 23.8855 12.2454 28.3542 7.77666Z" fill="#EFEEEF"/>
<path d="M46.0335 6.30371C45.6272 5.89746 44.9668 5.89746 44.5605 6.30371C44.1543 6.70996 44.1543 7.37041 44.5605 7.77666C49.0293 12.2434 49.0293 19.5121 44.5605 23.9809C44.1543 24.3871 44.1543 25.0476 44.5605 25.4538C44.7647 25.6559 45.0313 25.758 45.298 25.758C45.5647 25.758 45.8313 25.656 46.0335 25.4538C51.3127 20.1745 51.3127 11.5828 46.0335 6.30371Z" fill="#EFEEEF"/>
</svg>
