<svg width="50" height="46" viewBox="0 0 50 46" fill="none" xmlns="http://www.w3.org/2000/svg">
<path d="M39.1867 24.2497V16.7547C39.2225 11.0405 35.38 7.25051 32.0784 5.74134C31.1325 5.30884 30.1575 4.97551 29.1667 4.72801V4.24967C29.1667 1.95217 27.2975 0.0830078 25 0.0830078C22.7025 0.0830078 20.8334 1.95217 20.8334 4.24967V4.80051C19.9409 5.04134 19.0634 5.35551 18.2117 5.74884C14.5634 7.43051 10.8667 11.4838 10.8334 16.7497V24.2497C10.8334 29.573 8.95335 34.1405 5.24585 37.8255C5.02502 38.0455 4.94502 38.3697 5.03835 38.6672C5.13169 38.9647 5.38419 39.1847 5.69169 39.238L13.6009 40.6038C15.0742 40.858 16.4309 41.0663 17.7217 41.238C19.1759 44.088 22.0317 45.9172 25.1517 45.9172C28.2725 45.9172 31.1292 44.0872 32.5825 41.2355C33.8684 41.0647 35.2184 40.8572 36.6834 40.6038L44.5917 39.238C44.8992 39.1855 45.1509 38.9647 45.245 38.6672C45.3392 38.3705 45.2592 38.0455 45.0375 37.8255C41.1558 33.9663 39.1867 29.3988 39.1867 24.2497ZM22.5 4.24967C22.5 2.87134 23.6217 1.74967 25 1.74967C26.3784 1.74967 27.5 2.87134 27.5 4.24967V4.40134C25.8392 4.16301 24.1542 4.17301 22.5 4.44051V4.24967ZM25.1525 44.2497C23.0425 44.2497 21.0709 43.2013 19.805 41.4872C21.6675 41.6788 23.4059 41.7755 25.1434 41.7755C26.8875 41.7755 28.6317 41.6788 30.5017 41.4847C29.235 43.2005 27.2625 44.2497 25.1525 44.2497ZM36.4009 38.9605C34.8017 39.2363 33.3359 39.4605 31.9509 39.6372C31.9492 39.6372 31.9475 39.6372 31.945 39.6372C31.3342 39.7147 30.7409 39.7822 30.16 39.8405C30.155 39.8405 30.1509 39.8413 30.1459 39.8413C29.6134 39.8947 29.0934 39.938 28.5784 39.9747C28.4817 39.9813 28.385 39.988 28.2892 39.9938C27.8434 40.023 27.4025 40.0463 26.9642 40.063C26.875 40.0663 26.785 40.0713 26.6959 40.0738C25.6592 40.1088 24.6367 40.1088 23.6009 40.0747C23.5084 40.0713 23.415 40.0663 23.3225 40.063C22.8917 40.0455 22.4575 40.0238 22.0184 39.9947C21.9142 39.988 21.81 39.9813 21.705 39.9738C21.2059 39.938 20.7009 39.8963 20.185 39.8447C20.1659 39.843 20.1475 39.8413 20.1284 39.8397C19.5517 39.7822 18.9634 39.7147 18.3584 39.638C18.3559 39.638 18.3534 39.638 18.3509 39.638C16.9609 39.4622 15.4892 39.2363 13.8834 38.9597L7.50002 37.858C10.8192 34.063 12.5 29.493 12.5 24.2497V16.7547C12.5284 12.2255 15.74 8.72384 18.9092 7.26217C19.8517 6.82801 20.8292 6.50384 21.8234 6.27634C21.8317 6.27467 21.8409 6.27551 21.8492 6.27384C23.9034 5.81217 26.0884 5.79134 28.1659 6.21718C28.1767 6.21967 28.1875 6.21467 28.1984 6.21634C29.285 6.44301 30.355 6.78634 31.3859 7.25717C34.46 8.66301 37.5492 12.1413 37.52 16.7505V24.2505C37.52 29.278 39.3325 33.953 42.7809 37.8597L36.4009 38.9605Z" fill="#EFEEEF"/>
<path d="M30.3475 9.53112C27.1183 8.05529 23.1642 8.05362 19.9567 9.53279C18.1275 10.3761 15.025 12.8436 15 16.7445C14.9975 17.2045 15.3675 17.5795 15.8283 17.5828C15.83 17.5828 15.8317 17.5828 15.8333 17.5828C16.2908 17.5828 16.6642 17.2136 16.6667 16.7545C16.6858 13.6903 19.1825 11.7253 20.6542 11.0461C23.4292 9.76529 26.8592 9.76862 29.6533 11.0461C30.0725 11.2378 30.5667 11.0536 30.7583 10.6353C30.95 10.2161 30.765 9.72195 30.3475 9.53112Z" fill="#EFEEEF"/>
<path d="M4.00167 16.9934C3.67583 16.6676 3.14917 16.6676 2.82333 16.9934C1.0025 18.8142 0 21.2376 0 23.8184C0 26.3992 1.0025 28.8234 2.82333 30.6434C2.98583 30.8059 3.19917 30.8876 3.4125 30.8876C3.62583 30.8876 3.83917 30.8059 4.00167 30.6434C4.3275 30.3176 4.3275 29.7909 4.00167 29.4651C2.49583 27.9592 1.66667 25.9542 1.66667 23.8184C1.66667 21.6826 2.49583 19.6767 4.00167 18.1717C4.32667 17.8459 4.32667 17.3192 4.00167 16.9934Z" fill="#EFEEEF"/>
<path d="M6.92089 28.9912C7.13422 28.9912 7.34755 28.9096 7.51005 28.7471C7.83589 28.4212 7.83589 27.8946 7.51005 27.5687C5.37839 25.4371 5.37839 21.9696 7.51005 19.8387C7.83589 19.5129 7.83589 18.9862 7.51005 18.6604C7.18422 18.3346 6.65755 18.3346 6.33172 18.6604C3.55089 21.4412 3.55089 25.9671 6.33172 28.7471C6.49422 28.9104 6.70755 28.9912 6.92089 28.9912Z" fill="#EFEEEF"/>
<path d="M47.1766 16.9934C46.8508 16.6676 46.3241 16.6676 45.9983 16.9934C45.6724 17.3192 45.6724 17.8459 45.9983 18.1717C47.5041 19.6776 48.3333 21.6826 48.3333 23.8184C48.3333 25.9542 47.5041 27.9592 45.9983 29.4651C45.6724 29.7909 45.6724 30.3176 45.9983 30.6434C46.1608 30.8059 46.3741 30.8876 46.5874 30.8876C46.8008 30.8876 47.0141 30.8059 47.1766 30.6434C48.9974 28.8234 49.9999 26.3992 49.9999 23.8184C49.9999 21.2376 48.9974 18.8142 47.1766 16.9934Z" fill="#EFEEEF"/>
<path d="M42.4905 18.6604C42.1646 18.9862 42.1646 19.5129 42.4905 19.8387C44.6221 21.9704 44.6221 25.4379 42.4905 27.5687C42.1646 27.8946 42.1646 28.4212 42.4905 28.7471C42.653 28.9096 42.8663 28.9912 43.0796 28.9912C43.293 28.9912 43.5063 28.9096 43.6688 28.7471C46.4496 25.9662 46.4496 21.4404 43.6688 18.6604C43.343 18.3346 42.8155 18.3346 42.4905 18.6604Z" fill="#EFEEEF"/>
</svg>
