<svg width="50" height="44" viewBox="0 0 50 44" fill="none" xmlns="http://www.w3.org/2000/svg">
<path d="M25.0185 7.86352C24.616 7.86352 24.2466 7.60795 24.1045 7.23139C23.9608 6.85102 24.0746 6.40492 24.3861 6.14262C24.6982 5.87992 25.1517 5.83774 25.5055 6.04184C25.8591 6.24584 26.0518 6.6602 25.9784 7.06244C25.8949 7.51996 25.4837 7.86352 25.0185 7.86352Z" fill="#EFEEEF"/>
<path d="M49.0234 0.0224609H0.976562C0.437207 0.0224609 0 0.459766 0 0.999024V4.46924C0 5.6248 0.580371 6.64727 1.46484 7.26055V8.71455C1.46484 10.9813 2.96992 12.9033 5.0332 13.5335V24.0108C5.0332 27.214 5.76895 30.2738 7.21992 33.1053C8.60342 35.805 10.6224 38.1942 13.0586 40.0147C13.0591 40.015 13.0595 40.0154 13.06 40.0157C16.5289 42.6076 20.6577 43.9775 25 43.9775C29.3423 43.9775 33.4711 42.6076 36.94 40.0157C36.9405 40.0154 36.9409 40.015 36.9414 40.0147C39.3776 38.1942 41.3966 35.805 42.7801 33.1053C44.2311 30.2738 44.9668 27.214 44.9668 24.0108V13.5336C47.0301 12.9034 48.5352 10.9815 48.5352 8.71465V7.26064C49.4196 6.64727 50 5.6248 50 4.46934V0.999024C50 0.459766 49.5628 0.0224609 49.0234 0.0224609ZM35.3789 38.7362C32.3331 40.8893 28.7553 42.0246 25 42.0246C21.2447 42.0246 17.6669 40.8893 14.6211 38.7362V31.4025C14.6211 25.6795 19.2771 21.0236 25 21.0236C27.7721 21.0236 30.3783 22.1033 32.3388 24.0638C34.2992 26.0242 35.3789 28.6306 35.3789 31.4025V38.7362ZM37.332 37.146V31.4025C37.332 28.1088 36.0492 25.0121 33.7198 22.6826C31.3905 20.3532 28.2938 19.0705 25 19.0705C18.2001 19.0705 12.668 24.6026 12.668 31.4025V37.146C9.03447 33.7507 6.98633 29.0649 6.98633 24.0109V13.752H43.0137V24.0109C43.0137 29.0649 40.9656 33.7507 37.332 37.146ZM43.498 11.7988H6.50205C4.80147 11.7988 3.41797 10.4152 3.41797 8.71465V7.86377H20.5854C21.1247 7.86377 21.5619 7.42647 21.5619 6.88721C21.5619 6.34795 21.1247 5.91065 20.5854 5.91065H3.39453C2.59971 5.91065 1.95312 5.26406 1.95312 4.46924V1.97559H48.0469V4.46924C48.0469 5.26406 47.4003 5.91065 46.6055 5.91065H29.4147C28.8754 5.91065 28.4382 6.34795 28.4382 6.88721C28.4382 7.42647 28.8754 7.86377 29.4147 7.86377H46.582V8.71465C46.582 10.4152 45.1985 11.7988 43.498 11.7988Z" fill="#EFEEEF"/>
<path d="M24.999 37.8886C21.3648 37.8886 18.4082 34.9319 18.4082 31.2978C18.4082 27.6636 21.3648 24.707 24.999 24.707C28.6332 24.707 31.5899 27.6636 31.5899 31.2978C31.5899 34.9319 28.6332 37.8886 24.999 37.8886ZM24.999 26.6602C22.4418 26.6602 20.3613 28.7406 20.3613 31.2978C20.3613 33.8551 22.4418 35.9355 24.999 35.9355C27.5563 35.9355 29.6367 33.855 29.6367 31.2978C29.6367 28.7405 27.5563 26.6602 24.999 26.6602Z" fill="#EFEEEF"/>
</svg>
