<svg width="50" height="50" viewBox="0 0 50 50" fill="none" xmlns="http://www.w3.org/2000/svg">
<g clip-path="url(#clip0)">
<path d="M15.8236 34.9962C23.8864 34.9962 28.3269 30.2598 28.3269 21.6593C28.3269 13.6071 16.929 0.804654 16.4439 0.264555C16.2815 0.0956469 16.0576 0 15.8236 0C15.5896 0 15.3653 0.0956469 15.2033 0.264555C14.7182 0.804654 3.32031 13.6071 3.32031 21.6593C3.32031 30.2598 7.76077 34.9962 15.8236 34.9962ZM15.8236 2.09243C18.2099 4.89305 26.6598 15.2583 26.6598 21.6593C26.6598 26.983 24.7794 33.3291 15.8236 33.3291C6.86779 33.3291 4.98742 26.983 4.98742 21.6593C4.98742 15.2583 13.4369 4.89305 15.8236 2.09243Z" fill="#EFEEEF"/>
<path d="M39.1641 36.6629C43.9318 36.6629 46.6661 33.4813 46.6661 27.9322C46.6661 22.7217 40.055 15.5591 39.7742 15.2563C39.613 15.0935 39.3932 15.002 39.1641 15.002C38.9349 15.002 38.7152 15.0935 38.554 15.2563C38.2731 15.5591 31.6621 22.7217 31.6621 27.9322C31.6621 33.4813 34.396 36.6629 39.1641 36.6629ZM39.1641 17.0826C40.7718 18.9532 44.999 24.2248 44.999 27.9322C44.999 32.6193 43.036 34.9958 39.1641 34.9958C35.2922 34.9958 33.3292 32.6193 33.3292 27.9322C33.3292 24.2248 37.556 18.9532 39.1641 17.0826Z" fill="#EFEEEF"/>
<path d="M26.8698 33.6108C26.6574 33.8518 21.6602 39.5592 21.6602 43.3318C21.6602 47.5696 23.7872 50.0002 27.495 50.0002C31.2024 50.0002 33.3299 47.5696 33.3299 43.3318C33.3299 39.5592 28.3326 33.8518 28.1202 33.6108C27.9574 33.4391 27.7315 33.3418 27.495 33.3418C27.2585 33.3418 27.0322 33.4391 26.8698 33.6108ZM27.495 48.3331C24.7302 48.3331 23.3273 46.6501 23.3273 43.3318C23.3273 41.066 25.9354 37.3777 27.495 35.4562C29.0555 37.3736 31.6628 41.0627 31.6628 43.3318C31.6628 46.6501 30.2598 48.3331 27.495 48.3331Z" fill="#EFEEEF"/>
<path d="M14.0746 31.6582C14.1022 31.661 14.1299 31.6622 14.158 31.6622C14.6021 31.6622 14.9684 31.3138 14.9907 30.8702C15.0127 30.4265 14.6835 30.0436 14.2414 29.9992C12.5003 29.9117 10.8796 29.0842 9.78756 27.7252C7.5706 24.8347 8.30484 20.1748 8.31135 20.1284C8.37199 19.682 8.06674 19.268 7.62229 19.194C7.17783 19.1203 6.75495 19.4129 6.66785 19.8549C6.63082 20.0751 5.80418 25.2612 8.45909 28.7322C9.82501 30.4673 11.8698 31.5328 14.0746 31.6582Z" fill="#EFEEEF"/>
<path d="M38.3296 33.3287C39.8677 33.3067 41.3342 32.675 42.4067 31.5724C43.335 30.3783 43.6708 28.8272 43.3192 27.3562C43.2337 26.9118 42.8096 26.6167 42.3631 26.6912C41.9166 26.7661 41.6114 27.1833 41.6757 27.6314C41.9309 28.6155 41.7347 29.6628 41.1405 30.4878C40.3863 31.2212 39.3814 31.6408 38.3296 31.6616C37.8693 31.6616 37.4961 32.0348 37.4961 32.4951C37.4961 32.9554 37.8693 33.3287 38.3296 33.3287Z" fill="#EFEEEF"/>
<path d="M27.033 45.0859C26.7729 44.9809 26.5723 44.7672 26.4835 44.501C26.3952 44.2352 26.4278 43.9434 26.5731 43.7037C26.7786 43.2918 26.6117 42.7908 26.1994 42.5852C25.7876 42.3793 25.2869 42.5465 25.081 42.9584C24.7383 43.595 24.6736 44.3451 24.9019 45.0309C25.1306 45.7167 25.6321 46.278 26.2878 46.582C26.7001 46.788 27.2007 46.6207 27.4066 46.2084C27.6122 45.7965 27.4453 45.2959 27.033 45.0899V45.0859Z" fill="#EFEEEF"/>
</g>
<defs>
<clipPath id="clip0">
<rect width="50" height="50" fill="white"/>
</clipPath>
</defs>
</svg>
