<svg width="64" height="47" viewBox="0 0 64 47" fill="none" xmlns="http://www.w3.org/2000/svg">
<path d="M63.6588 13.6067C55.2164 5.16319 43.972 0.513672 32.0003 0.513672C20.0286 0.513672 8.78531 5.16203 0.341808 13.6067C-0.113936 14.0624 -0.113936 14.7991 0.341808 15.2548C0.797552 15.7106 1.5342 15.7106 1.98995 15.2548C9.99286 7.25076 20.651 2.84368 32.0003 2.84368C43.3496 2.84368 54.0077 7.25076 62.0106 15.2537C62.2379 15.481 62.5363 15.5952 62.8347 15.5952C63.1331 15.5952 63.4315 15.481 63.6588 15.2537C64.1145 14.7991 64.1145 14.0613 63.6588 13.6067Z" fill="white"/>
<path d="M7.19337 20.4569C6.73763 20.9126 6.73763 21.6492 7.19337 22.105C7.42066 22.3323 7.71905 22.4465 8.01744 22.4465C8.31583 22.4465 8.61422 22.3323 8.84151 22.105C21.6105 9.33483 42.3882 9.33483 55.1584 22.105C55.6141 22.5607 56.3508 22.5607 56.8065 22.105C57.2623 21.6492 57.2623 20.9126 56.8065 20.4569C43.1296 6.77987 20.8727 6.77754 7.19337 20.4569Z" fill="white"/>
<path d="M31.9996 19.8838C25.2101 19.8838 18.8343 22.5215 14.0449 27.3097C13.5892 27.7655 13.5892 28.5021 14.0449 28.9579C14.5007 29.4136 15.2373 29.4136 15.6931 28.9579C20.0419 24.6102 25.8325 22.215 31.9996 22.215C38.1667 22.215 43.9574 24.6102 48.3062 28.9579C48.5335 29.1852 48.8318 29.2994 49.1302 29.2994C49.4286 29.2994 49.727 29.1852 49.9543 28.9579C50.41 28.5021 50.41 27.7655 49.9543 27.3097C45.1661 22.5215 38.7892 19.8838 31.9996 19.8838Z" fill="white"/>
<path d="M31.999 30.8496C27.7889 30.8496 24.3633 34.2753 24.3633 38.4865C24.3633 42.6978 27.7889 46.1235 31.999 46.1235C36.2103 46.1235 39.636 42.6978 39.636 38.4865C39.636 34.2753 36.2103 30.8496 31.999 30.8496ZM31.999 43.7911C29.0734 43.7911 26.6945 41.411 26.6945 38.4854C26.6945 35.5597 29.0746 33.1796 31.999 33.1796C34.9235 33.1796 37.3048 35.5597 37.3048 38.4854C37.3048 41.411 34.9247 43.7911 31.999 43.7911Z" fill="white"/>
</svg>
