<svg width="42" height="50" viewBox="0 0 42 50" fill="none" xmlns="http://www.w3.org/2000/svg">
<path d="M38.084 0H18.084C16.243 0 14.7507 1.49238 14.7507 3.33333V13.3333H3.91732C2.07637 13.3333 0.583984 14.8257 0.583984 16.6667V18.3333C0.583984 20.1743 2.07637 21.6667 3.91732 21.6667H14.7507V36.6667C14.7507 44.0305 20.7202 50 28.084 50C35.4478 50 41.4173 44.0305 41.4173 36.6667V3.33333C41.4173 1.49238 39.9249 0 38.084 0ZM2.25065 18.3333V16.6667C2.25065 15.7462 2.99684 15 3.91732 15H28.084C29.0045 15 29.7507 15.7462 29.7507 16.6667V18.3333C29.7507 19.2538 29.0045 20 28.084 20H3.91732C2.99684 20 2.25065 19.2538 2.25065 18.3333ZM28.084 13.3333H22.9007C24.6699 11.1236 27.6417 10.272 30.3128 11.2096C32.9838 12.1471 34.7715 14.6692 34.7715 17.5C34.7715 20.3308 32.9838 22.8529 30.3128 23.7904C27.6417 24.728 24.6699 23.8764 22.9007 21.6667H28.084C29.9249 21.6667 31.4173 20.1743 31.4173 18.3333V16.6667C31.4173 14.8257 29.9249 13.3333 28.084 13.3333ZM39.7507 36.6667C39.7507 43.11 34.5273 48.3333 28.084 48.3333C21.6407 48.3333 16.4173 43.11 16.4173 36.6667V21.6667H20.8923C22.7782 24.9331 26.6228 26.5256 30.266 25.5494C33.9092 24.5732 36.4425 21.2717 36.4425 17.5C36.4425 13.7283 33.9092 10.4268 30.266 9.45062C26.6228 8.47443 22.7782 10.0669 20.8923 13.3333H16.4173V3.33333C16.4173 2.41286 17.1635 1.66667 18.084 1.66667H38.084C39.0045 1.66667 39.7507 2.41286 39.7507 3.33333V36.6667Z" fill="#EFEEEF"/>
<path d="M20.584 3.33301H18.9173C18.4571 3.33301 18.084 3.7061 18.084 4.16634C18.084 4.62658 18.4571 4.99967 18.9173 4.99967H20.584C21.0442 4.99967 21.4173 4.62658 21.4173 4.16634C21.4173 3.7061 21.0442 3.33301 20.584 3.33301Z" fill="#EFEEEF"/>
<path d="M32.2507 3.33301H23.9173C23.4571 3.33301 23.084 3.7061 23.084 4.16634C23.084 4.62658 23.4571 4.99967 23.9173 4.99967H32.2507C32.7109 4.99967 33.084 4.62658 33.084 4.16634C33.084 3.7061 32.7109 3.33301 32.2507 3.33301Z" fill="#EFEEEF"/>
<path d="M28.0846 30.833C26.7729 30.8318 25.5824 31.5999 25.043 32.7956C24.5036 33.9913 24.7156 35.3921 25.5846 36.3747V38.333C25.5851 38.9917 25.8457 39.6236 26.3096 40.0913C27.0227 40.8103 28.099 41.0281 29.0355 40.6429C29.972 40.2577 30.5837 39.3456 30.5846 38.333V36.3747C31.4536 35.3921 31.6655 33.9913 31.1261 32.7956C30.5868 31.5999 29.3963 30.8318 28.0846 30.833ZM29.2012 35.3997C29.0214 35.5576 28.9182 35.7853 28.9179 36.0247V38.333C28.9132 38.6685 28.7077 38.9685 28.3965 39.094C28.0853 39.2196 27.7292 39.1463 27.4929 38.908C27.1846 38.608 27.2512 38.5163 27.2512 36.0247C27.2509 35.7853 27.1477 35.5576 26.9679 35.3997C26.4559 34.9376 26.2814 34.2079 26.5289 33.5642C26.7765 32.9205 27.3949 32.4957 28.0846 32.4957C28.7742 32.4957 29.3927 32.9205 29.6402 33.5642C29.8877 34.2079 29.7132 34.9376 29.2012 35.3997Z" fill="#EFEEEF"/>
<path d="M8.25 27.167C8.61819 26.8909 8.69281 26.3686 8.41667 26.0004C8.14052 25.6322 7.61819 25.5576 7.25 25.8337C4.10243 28.1944 2.25 31.8992 2.25 35.8337C2.25 39.7682 4.10243 43.473 7.25 45.8337C7.39425 45.9419 7.56969 46.0004 7.75 46.0004C8.10869 46.0004 8.42714 45.7708 8.54057 45.4306C8.654 45.0903 8.53695 44.7156 8.25 44.5004C5.5221 42.4544 3.91667 39.2436 3.91667 35.8337C3.91667 32.4238 5.5221 29.213 8.25 27.167Z" fill="#EFEEEF"/>
<path d="M10.2507 29.833C10.4888 29.6544 10.6136 29.3623 10.578 29.0667C10.5424 28.7711 10.3518 28.517 10.078 28.4C9.80422 28.283 9.48883 28.321 9.25066 28.4997C6.94243 30.2308 5.58398 32.9477 5.58398 35.833C5.58398 38.7183 6.94243 41.4352 9.25066 43.1663C9.3949 43.2745 9.57035 43.333 9.75066 43.333C10.1093 43.333 10.4278 43.1035 10.5412 42.7632C10.6547 42.4229 10.5376 42.0482 10.2507 41.833C8.36211 40.4166 7.25065 38.1937 7.25065 35.833C7.25065 33.4723 8.36211 31.2494 10.2507 29.833Z" fill="#EFEEEF"/>
<path d="M12.2513 32.5C12.4895 32.3214 12.6143 32.0292 12.5787 31.7337C12.543 31.4381 12.3524 31.1839 12.0787 31.067C11.8049 30.95 11.4895 30.988 11.2513 31.1667C9.78243 32.2683 8.91797 33.9973 8.91797 35.8333C8.91797 37.6694 9.78243 39.3984 11.2513 40.5C11.6195 40.7761 12.1418 40.7015 12.418 40.3333C12.6941 39.9652 12.6195 39.4428 12.2513 39.1667C11.2021 38.3798 10.5846 37.1448 10.5846 35.8333C10.5846 34.5219 11.2021 33.2869 12.2513 32.5Z" fill="#EFEEEF"/>
</svg>
