<svg width="50" height="50" viewBox="0 0 50 50" fill="none" xmlns="http://www.w3.org/2000/svg">
<path d="M40.2174 6.52148C34.8228 6.52148 30.4348 10.9106 30.4348 16.3041C30.4348 16.9041 30.9207 17.391 31.5217 17.391C32.1228 17.391 32.6087 16.9041 32.6087 16.3041C32.6087 12.1084 36.0228 8.6954 40.2174 8.6954C44.412 8.6954 47.8261 12.1084 47.8261 16.3041C47.8261 20.4997 44.412 23.9128 40.2174 23.9128H1.08696C0.486957 23.9128 0 24.3997 0 24.9997C0 25.5997 0.486957 26.0867 1.08696 26.0867H40.2174C45.612 26.0867 50 21.6976 50 16.3041C50 10.9106 45.612 6.52148 40.2174 6.52148Z" fill="#EFEEEF"/>
<path d="M19.5652 4.34766C15.3696 4.34766 11.9565 7.7607 11.9565 11.9564C11.9565 12.5564 12.4435 13.0433 13.0435 13.0433C13.6435 13.0433 14.1304 12.5564 14.1304 11.9564C14.1304 8.95961 16.5685 6.52157 19.5652 6.52157C22.562 6.52157 25 8.95961 25 11.9564C25 14.9531 22.562 17.3911 19.5652 17.3911H1.08696C0.486957 17.3911 0 17.8781 0 18.4781C0 19.0781 0.486957 19.565 1.08696 19.565H19.5652C23.7609 19.565 27.1739 16.152 27.1739 11.9564C27.1739 7.7607 23.7609 4.34766 19.5652 4.34766Z" fill="#EFEEEF"/>
<path d="M38.0435 30.4346H1.08696C0.486957 30.4346 0 30.9215 0 31.5215C0 32.1215 0.486957 32.6085 1.08696 32.6085H38.0435C41.0402 32.6085 43.4783 35.0465 43.4783 38.0433C43.4783 41.04 41.0402 43.478 38.0435 43.478C35.0467 43.478 32.6087 41.04 32.6087 38.0433C32.6087 37.4433 32.1228 36.9563 31.5217 36.9563C30.9207 36.9563 30.4348 37.4433 30.4348 38.0433C30.4348 42.2389 33.8489 45.6519 38.0435 45.6519C42.238 45.6519 45.6522 42.2389 45.6522 38.0433C45.6522 33.8476 42.238 30.4346 38.0435 30.4346Z" fill="#EFEEEF"/>
</svg>
