<svg width="50" height="50" viewBox="0 0 50 50" fill="none" xmlns="http://www.w3.org/2000/svg">
<g clip-path="url(#clip0)">
<path d="M43.9337 10.1236L25.1415 0.110175C24.8627 -0.038617 24.5286 -0.0365288 24.2519 0.115396L5.97967 10.1288C5.68 10.2933 5.49414 10.6076 5.49414 10.9496V24.0297C5.5051 34.7819 11.8755 44.5092 21.7271 48.8169L24.2634 49.9221C24.5004 50.0255 24.7703 50.026 25.0078 49.9232L27.8657 48.689C37.9 44.4748 44.4281 34.6534 44.4291 23.7702V10.9496C44.4291 10.6039 44.2386 10.286 43.9337 10.1236ZM42.558 23.7702C42.5559 33.9032 36.4763 43.0464 27.1332 46.9677L27.1269 46.9708L24.6382 48.0453L22.4758 47.1019C13.3055 43.0923 7.37519 34.0384 7.36474 24.0297V11.5035L24.7076 1.99853L42.558 11.5103V23.7702Z" fill="#EFEEEF"/>
<path d="M17.8056 23.4232C17.47 23.03 16.8795 22.9836 16.4864 23.3193C16.0932 23.6544 16.0468 24.2454 16.3825 24.638L21.3245 30.4253C21.6544 30.8116 22.2323 30.8643 22.626 30.5438L34.1357 21.1798C34.5367 20.854 34.5972 20.2646 34.2709 19.8636C33.9451 19.4632 33.3557 19.4021 32.9548 19.7284L22.154 28.515L17.8056 23.4232Z" fill="#EFEEEF"/>
</g>
<defs>
<clipPath id="clip0">
<rect width="50" height="50" fill="white"/>
</clipPath>
</defs>
</svg>
