<svg width="56" height="56" viewBox="0 0 56 56" fill="none" xmlns="http://www.w3.org/2000/svg">
<g clip-path="url(#clip0)">
<path d="M28.6621 51.4925C29.0059 51.3425 29.228 51.0029 29.2278 50.6279L29.2278 5.37216C29.2275 4.85149 28.8053 4.42945 28.2846 4.42969C28.0461 4.42981 27.8164 4.52032 27.6419 4.68296L13.771 17.6289H2.82858C1.26643 17.6289 9.34601e-05 18.8953 9.34601e-05 20.4574L9.34601e-05 35.5427C9.34601e-05 37.1048 1.26643 38.3712 2.82858 38.3712H13.771L27.6419 51.3171C27.9165 51.5737 28.3175 51.6427 28.6621 51.4925ZM2.82858 36.4855C2.3079 36.4855 1.88575 36.0634 1.88575 35.5427L1.88575 20.4574C1.88575 19.9367 2.3079 19.5146 2.82858 19.5146H13.1997L13.1997 36.4855H2.82858ZM15.0854 37.0182V18.9819L27.3421 7.54067L27.3421 48.4594L15.0854 37.0182Z" fill="black"/>
<path d="M48.2796 9.80273L46.9465 11.1359C51.5563 15.7244 54.1388 21.9665 54.1186 28.4707C54.1404 34.9737 51.5602 41.2152 46.9531 45.8046L48.2796 47.1387C58.5738 36.8221 58.5738 20.1193 48.2796 9.80273Z" fill="black"/>
<path d="M42.946 15.1377L41.6128 16.4709C48.2296 23.1029 48.2296 33.8394 41.6128 40.4715L42.946 41.8047C50.2983 34.436 50.2983 22.5064 42.946 15.1377Z" fill="black"/>
<path d="M37.6131 20.4717L36.279 21.8048C39.9552 25.4892 39.9552 31.454 36.279 35.1383L37.6131 36.4715C42.0238 32.0501 42.0238 24.893 37.6131 20.4717Z" fill="black"/>
</g>
<defs>
<clipPath id="clip0">
<rect width="56" height="56" fill="white" transform="translate(56) rotate(90)"/>
</clipPath>
</defs>
</svg>
