<svg width="55" height="55" viewBox="0 0 55 55" fill="none" xmlns="http://www.w3.org/2000/svg">
<path d="M27.125 0C21.7602 0 16.5159 1.59085 12.0552 4.57139C7.59449 7.55192 4.11781 11.7883 2.06478 16.7447C0.0117528 21.7012 -0.525413 27.1551 0.521211 32.4168C1.56784 37.6786 4.15124 42.5118 7.94474 46.3053C11.7382 50.0988 16.5715 52.6822 21.8332 53.7288C27.0949 54.7754 32.5489 54.2383 37.5053 52.1852C42.4617 50.1322 46.6981 46.6555 49.6786 42.1948C52.6592 37.7342 54.25 32.4898 54.25 27.125C54.2419 19.9335 51.3815 13.0388 46.2963 7.95368C41.2112 2.86851 34.3165 0.00810573 27.125 0V0ZM27.125 52.5C22.1063 52.5 17.2003 51.0118 13.0274 48.2235C8.85452 45.4353 5.60214 41.4723 3.68157 36.8356C1.761 32.1989 1.25849 27.0968 2.23759 22.1746C3.21669 17.2523 5.63342 12.7309 9.18218 9.18216C12.7309 5.63341 17.2523 3.21667 22.1746 2.23757C27.0969 1.25847 32.1989 1.76098 36.8356 3.68156C41.4723 5.60213 45.4353 8.85451 48.2236 13.0274C51.0118 17.2003 52.5 22.1063 52.5 27.125C52.4924 33.8525 49.8165 40.3023 45.0594 45.0594C40.3023 49.8165 33.8525 52.4924 27.125 52.5V52.5Z" fill="white"/>
<path d="M32.6373 12.367C32.5291 12.3238 32.4134 12.3027 32.2969 12.3049C32.1804 12.3071 32.0656 12.3326 31.959 12.3797C31.8525 12.4269 31.7565 12.4949 31.6766 12.5797C31.5967 12.6644 31.5345 12.7643 31.4937 12.8735C31.453 12.9826 31.4344 13.0988 31.4391 13.2152C31.4438 13.3316 31.4717 13.4459 31.5212 13.5513C31.5706 13.6568 31.6407 13.7513 31.7272 13.8294C31.8137 13.9074 31.9149 13.9674 32.0248 14.0058C35.0945 15.1525 37.6647 17.3396 39.2877 20.1862C40.9108 23.0328 41.484 26.3586 40.9073 29.5843C40.3307 32.81 38.6408 35.7312 36.1321 37.8392C33.6233 39.9472 30.4546 41.1084 27.1778 41.1206C23.901 41.1328 20.7237 39.9951 18.1994 37.9058C15.675 35.8165 13.9635 32.9079 13.3629 29.6866C12.7624 26.4653 13.3108 23.1353 14.9127 20.2767C16.5146 17.4182 19.0684 15.212 22.1295 14.0426C22.3463 13.9597 22.5214 13.7941 22.6162 13.5822C22.7109 13.3703 22.7176 13.1294 22.6348 12.9125C22.5519 12.6957 22.3863 12.5206 22.1744 12.4258C21.9625 12.3311 21.7216 12.3244 21.5047 12.4072C18.0609 13.7225 15.1876 16.2041 13.3852 19.4199C11.5828 22.6356 10.9655 26.3817 11.6408 30.0058C12.3161 33.6298 14.2412 36.9021 17.0809 39.2529C19.9206 41.6036 23.4948 42.8838 27.1812 42.8705C30.8676 42.8571 34.4326 41.5511 37.2551 39.1799C40.0777 36.8087 41.9792 33.5226 42.6282 29.8937C43.2773 26.2649 42.6329 22.5234 40.8073 19.3207C38.9817 16.1181 36.0905 13.6573 32.6373 12.367V12.367Z" fill="white"/>
<path d="M27.1251 25.375C27.3572 25.375 27.5797 25.2828 27.7438 25.1187C27.9079 24.9546 28.0001 24.7321 28.0001 24.5V9.625C28.0001 9.39294 27.9079 9.17038 27.7438 9.00628C27.5797 8.84219 27.3572 8.75 27.1251 8.75C26.8931 8.75 26.6705 8.84219 26.5064 9.00628C26.3423 9.17038 26.2501 9.39294 26.2501 9.625V24.5C26.2501 24.7321 26.3423 24.9546 26.5064 25.1187C26.6705 25.2828 26.8931 25.375 27.1251 25.375Z" fill="white"/>
</svg>
