<svg width="50" height="42" viewBox="0 0 50 42" fill="none" xmlns="http://www.w3.org/2000/svg">
<path d="M22.0403 0.638648C21.6275 0.457753 21.1403 0.543193 20.8107 0.856191L9.10761 11.9091H1.1364C0.508274 11.9091 0 12.4174 0 13.0454V28.9545C0 29.5826 0.508274 30.0909 1.1364 30.0909H9.10761L20.8108 41.1438C21.0261 41.348 21.3068 41.4546 21.591 41.4546C21.743 41.4546 21.8962 41.4246 22.0404 41.3613C22.4577 41.1827 22.7274 40.7721 22.7274 40.3182V1.68183C22.7273 1.22789 22.4576 0.817306 22.0403 0.638648ZM20.4546 37.6814L10.3394 28.1288C10.1285 27.9291 9.84887 27.8181 9.5592 27.8181H2.27269V14.1817H9.5592C9.84887 14.1817 10.1285 14.0707 10.3394 13.8709L20.4546 4.31855V37.6814Z" fill="#EFEEEF"/>
<path d="M39.6374 0.761579C39.1247 0.392012 38.4156 0.507495 38.0505 1.0146C37.6821 1.52287 37.7952 2.23313 38.3035 2.60153C44.2051 6.87621 47.7273 13.7544 47.7273 20.9998C47.7273 28.2452 44.2049 35.1233 38.3035 39.398C37.7952 39.7664 37.6821 40.4767 38.0505 40.9849C38.2724 41.2912 38.6198 41.4543 38.9716 41.4543C39.2024 41.4543 39.4354 41.3844 39.6374 41.238C46.126 36.5371 50.0001 28.971 50.0001 20.9998C50 13.0286 46.126 5.4624 39.6374 0.761579Z" fill="#EFEEEF"/>
<path d="M33.4524 7.53728C32.9253 7.20436 32.2205 7.3631 31.8855 7.89459C31.5515 8.42503 31.7113 9.12645 32.2428 9.4615C36.2456 11.9806 38.6359 16.2941 38.6359 20.9994C38.6359 25.7047 36.2455 30.0181 32.2428 32.5372C31.7112 32.8724 31.5514 33.5737 31.8855 34.1041C32.1019 34.4481 32.4714 34.6357 32.8488 34.6357C33.0552 34.6357 33.2649 34.5792 33.4525 34.4615C38.121 31.523 40.9087 26.4915 40.9087 20.9995C40.9087 15.5074 38.121 10.4759 33.4524 7.53728Z" fill="#EFEEEF"/>
<path d="M29.0577 15.5437C28.5539 15.1675 27.8425 15.2741 27.4674 15.7756C27.0923 16.2794 27.1966 16.9919 27.6993 17.3659C28.8735 18.2403 29.5459 19.5642 29.5459 21.0003C29.5459 22.4363 28.8733 23.7602 27.6993 24.6347C27.1966 25.0086 27.0923 25.7211 27.4674 26.2249C27.6905 26.5246 28.0323 26.6822 28.3797 26.6822C28.6149 26.6822 28.8535 26.6089 29.0578 26.4569C30.8123 25.1507 31.8188 23.161 31.8188 21.0003C31.8188 18.8396 30.8122 16.8499 29.0577 15.5437Z" fill="#EFEEEF"/>
</svg>
