<svg width="56" height="56" viewBox="0 0 56 56" fill="none" xmlns="http://www.w3.org/2000/svg">
<g clip-path="url(#clip0)">
<path d="M42.9023 8.59514C42.5136 8.76114 42.2883 9.17298 42.3587 9.58954C42.3676 9.64207 43.0011 13.5808 42.3629 18.4793C41.2539 13.9905 38.2823 7.32023 30.4931 0.238607C30.2036 -0.0240454 29.7797 -0.0749998 29.4362 0.112008C29.0926 0.298491 28.9061 0.683014 28.9702 1.06859C28.9807 1.13425 29.9531 7.22252 28.696 14.332C26.4593 11.9797 23.3085 10.5036 19.8142 10.5036C13.0472 10.5036 7.5415 16.0093 7.5415 22.7762C7.5415 27.909 10.7122 32.3095 15.1957 34.138C14.6142 41.268 18.9459 48.0502 19.1418 48.3512C22.3309 53.0732 27.6039 55.9124 33.2825 55.9928C33.3087 55.9928 33.335 55.998 33.3612 55.998L33.522 55.9996C33.5236 55.9996 33.5251 56.0001 33.5272 56.0001H33.5304H33.5377C33.5446 56.0001 33.5504 55.9991 33.5572 55.9991C38.9584 55.9902 43.9524 53.5333 47.2608 49.2526C48.1764 48.0686 48.9444 46.6771 49.6084 45.0008C51.8404 39.3669 55.7628 24.5707 43.9987 8.88774C43.7444 8.54892 43.2916 8.42967 42.9023 8.59514V8.59514ZM9.43575 23.872H11.3909C11.8984 23.872 12.3092 23.4612 12.3092 22.9538C12.3092 22.4464 11.8984 22.0361 11.3909 22.0361H9.41474C9.77457 16.9485 13.7868 12.858 18.8439 12.3894V14.5836C18.8439 15.0911 19.2542 15.5013 19.7617 15.5013C20.2691 15.5013 20.6799 15.0911 20.6799 14.5836V12.3842C25.7843 12.8065 29.8496 16.9144 30.212 22.0361H28.1324C27.6249 22.0361 27.2147 22.4469 27.2147 22.9543C27.2147 23.4618 27.6249 23.8726 28.1324 23.8726H30.191C29.671 28.8288 25.6666 32.7554 20.6799 33.1683V30.3942C20.6799 29.8868 20.2691 29.4765 19.7617 29.4765C19.2542 29.4765 18.8439 29.8868 18.8439 30.3942V33.1631C13.904 32.705 9.95212 28.7941 9.43575 23.872ZM27.1107 50.5822C25.6929 48.3113 25.5227 45.5408 26.6542 43.1722C27.1789 42.0749 27.885 40.9533 28.7533 39.8397C29.0138 39.5639 30.2084 38.2039 30.9139 35.7544C31.1865 37.2347 31.2768 39.1762 30.8025 41.5028C30.73 41.859 30.8734 42.2246 31.1702 42.4352C31.4659 42.6459 31.8605 42.6601 32.1709 42.4757C32.2423 42.4336 33.9396 41.4051 35.1194 39.068C35.982 37.3608 36.7038 34.6471 35.8853 30.8255C38.6033 33.4609 42.6171 39.2141 40.1865 48.8849C39.4196 51.9385 36.6334 54.1537 33.5572 54.1626C33.5467 54.1626 33.5372 54.1647 33.5272 54.1647C33.4595 54.1647 33.3928 54.1595 33.3255 54.1584C30.802 54.1101 28.4833 52.7806 27.1107 50.5822ZM47.9006 44.3253C47.3012 45.8397 46.6168 47.0847 45.8083 48.1311C44.327 50.0469 42.4684 51.554 40.3762 52.583C41.1116 51.6375 41.6642 50.537 41.9668 49.333C45.7558 34.2562 34.7659 27.5817 34.6551 27.5161C34.3189 27.3191 33.8981 27.3537 33.5997 27.6033C33.3019 27.8523 33.1926 28.262 33.3282 28.626C35.328 34.0267 34.1933 37.3529 32.9515 39.1579C33.2016 34.4018 31.3798 31.5756 31.2884 31.4375C31.0651 31.1002 30.6475 30.9479 30.2599 31.0645C29.8727 31.1806 29.6064 31.5362 29.6048 31.9407C29.5869 36.327 27.4978 38.4986 27.4127 38.5853C27.3859 38.6121 27.3602 38.641 27.3365 38.6714C26.3731 39.9022 25.5857 41.1503 24.9979 42.3811C23.5937 45.3181 23.8018 48.7473 25.5537 51.5535C25.7023 51.7925 25.872 52.012 26.0385 52.2337C23.9189 51.0654 22.0683 49.405 20.672 47.3384C20.631 47.2743 16.6818 41.0789 17.0064 34.7112C17.91 34.9234 18.8466 35.0479 19.8137 35.0479C26.5806 35.0479 32.0853 29.5432 32.0853 22.7762C32.0853 20.3751 31.3819 18.1404 30.1858 16.2467C31.3451 10.9795 31.2737 6.13987 31.0625 3.31899C41.9999 14.2852 41.1457 23.8452 41.1347 23.9424C41.0827 24.4094 41.3921 24.8402 41.8502 24.9405C42.3093 25.0393 42.77 24.7803 42.9181 24.3343C44.3674 19.9874 44.5665 15.6841 44.4725 12.7986C53.2755 26.6656 49.8857 39.3154 47.9006 44.3253V44.3253Z" fill="white"/>
<path d="M21.9033 26.3927C22.0824 26.5718 22.3177 26.6616 22.5526 26.6616C22.7874 26.6616 23.0222 26.5718 23.2013 26.3927C23.5601 26.0344 23.5601 25.4529 23.2013 25.0946L20.6798 22.5737V18.303C20.6798 17.7955 20.2691 17.3848 19.7616 17.3848C19.2542 17.3848 18.8434 17.7955 18.8434 18.303V22.954C18.8434 23.1978 18.9406 23.431 19.1123 23.6033L21.9033 26.3927Z" fill="white"/>
<path d="M6.6411 43.417C6.28284 43.0588 5.70133 43.0588 5.34307 43.417L4.15588 44.6042L2.9687 43.417C2.61044 43.0588 2.02945 43.0588 1.67067 43.417C1.31241 43.7758 1.31241 44.3568 1.67067 44.715L2.85786 45.9022L1.67067 47.0894C1.31241 47.4477 1.31241 48.0287 1.67067 48.3874C1.85032 48.5666 2.08514 48.6564 2.31995 48.6564C2.55476 48.6564 2.78957 48.5666 2.9687 48.3874L4.15588 47.2003L5.34307 48.3874C5.5222 48.5666 5.75701 48.6564 5.99182 48.6564C6.22663 48.6564 6.46197 48.5666 6.6411 48.3874C6.99935 48.0287 6.99935 47.4477 6.6411 47.0894L5.45391 45.9022L6.6411 44.715C6.99988 44.3568 6.99988 43.7758 6.6411 43.417V43.417Z" fill="white"/>
<path d="M53.192 5.50816L54.3792 4.3215C54.7375 3.96272 54.7375 3.38173 54.3792 3.02347C54.0205 2.66469 53.4395 2.66469 53.0807 3.02347L51.894 4.21013L50.7068 3.02347C50.3486 2.66469 49.7671 2.66469 49.4088 3.02347C49.05 3.38173 49.05 3.96272 49.4088 4.3215L50.596 5.50816L49.4088 6.69535C49.05 7.0536 49.05 7.63512 49.4088 7.99337C49.5879 8.1725 49.8233 8.26233 50.0575 8.26233C50.2924 8.26233 50.5277 8.1725 50.7068 7.99337L51.894 6.80619L53.0807 7.99337C53.2603 8.1725 53.4951 8.26233 53.73 8.26233C53.9648 8.26233 54.1996 8.1725 54.3792 7.99337C54.7375 7.63512 54.7375 7.0536 54.3792 6.69535L53.192 5.50816Z" fill="white"/>
<path d="M4.42485 10.7477C4.60398 10.9269 4.83931 11.0167 5.07412 11.0167C5.30894 11.0167 5.54375 10.9269 5.72287 10.7477L6.91006 9.56055L8.09725 10.7477C8.27638 10.9269 8.51119 11.0167 8.746 11.0167C8.98081 11.0167 9.21615 10.9269 9.39528 10.7477C9.75353 10.3895 9.75353 9.80797 9.39528 9.44971L8.20809 8.26253L9.39528 7.07586C9.75353 6.71708 9.75353 6.1361 9.39528 5.77731C9.03649 5.41906 8.45551 5.41906 8.09725 5.77731L6.91006 6.9645L5.72287 5.77731C5.36462 5.41906 4.78363 5.41906 4.42485 5.77731C4.06659 6.1361 4.06659 6.71708 4.42485 7.07586L5.61204 8.26253L4.42485 9.44971C4.06607 9.80797 4.06607 10.3895 4.42485 10.7477Z" fill="white"/>
</g>
<defs>
<clipPath id="clip0">
<rect width="56" height="56" fill="white"/>
</clipPath>
</defs>
</svg>
