<svg width="56" height="56" viewBox="0 0 56 56" fill="none" xmlns="http://www.w3.org/2000/svg">
<g clip-path="url(#clip0)">
<path d="M42.9023 8.59501C42.5136 8.761 42.2883 9.17284 42.3587 9.58941C42.3676 9.64194 43.0011 13.5807 42.3629 18.4791C41.2539 13.9904 38.2823 7.32009 30.4931 0.238469C30.2036 -0.0241827 29.7797 -0.0751371 29.4362 0.111871C29.0926 0.298354 28.9061 0.682877 28.9702 1.06845C28.9807 1.13411 29.9531 7.22239 28.696 14.3319C26.4593 11.9795 23.3085 10.5034 19.8142 10.5034C13.0472 10.5034 7.5415 16.0091 7.5415 22.7761C7.5415 27.9089 10.7122 32.3093 15.1957 34.1379C14.6142 41.2679 18.9459 48.0501 19.1418 48.3511C22.3309 53.073 27.6039 55.9123 33.2824 55.9927C33.3087 55.9927 33.335 55.9979 33.3612 55.9979L33.522 55.9995C33.5236 55.9995 33.5251 56 33.5272 56H33.5304H33.5377C33.5446 56 33.5504 55.999 33.5572 55.999C38.9584 55.99 43.9524 53.5332 47.2608 49.2525C48.1764 48.0684 48.9444 46.6769 49.6084 45.0007C51.8404 39.3668 55.7628 24.5706 43.9987 8.8876C43.7444 8.54878 43.2916 8.42953 42.9023 8.59501ZM9.43575 23.8719H11.3909C11.8984 23.8719 12.3092 23.4611 12.3092 22.9537C12.3092 22.4462 11.8984 22.036 11.3909 22.036H9.41474C9.77457 16.9484 13.7868 12.8578 18.8439 12.3893V14.5835C18.8439 15.0909 19.2542 15.5012 19.7617 15.5012C20.2691 15.5012 20.6799 15.0909 20.6799 14.5835V12.384C25.7843 12.8064 29.8496 16.9142 30.212 22.036H28.1324C27.6249 22.036 27.2147 22.4467 27.2147 22.9542C27.2147 23.4616 27.6249 23.8724 28.1324 23.8724H30.191C29.671 28.8287 25.6666 32.7553 20.6799 33.1682V30.3941C20.6799 29.8866 20.2691 29.4764 19.7617 29.4764C19.2542 29.4764 18.8439 29.8866 18.8439 30.3941V33.1629C13.904 32.7049 9.95212 28.794 9.43575 23.8719ZM27.1107 50.582C25.6929 48.3111 25.5227 45.5407 26.6542 43.1721C27.1789 42.0747 27.885 40.9532 28.7533 39.8396C29.0138 39.5638 30.2084 38.2038 30.9139 35.7543C31.1865 37.2346 31.2768 39.1761 30.8025 41.5027C30.73 41.8588 30.8734 42.2244 31.1702 42.4351C31.466 42.6457 31.8605 42.6599 32.1709 42.4755C32.2423 42.4335 33.9396 41.405 35.1194 39.0679C35.982 37.3606 36.7038 34.6469 35.8853 30.8253C38.6033 33.4608 42.6171 39.2139 40.1865 48.8848C39.4196 51.9384 36.6334 54.1536 33.5572 54.1625C33.5467 54.1625 33.5372 54.1646 33.5272 54.1646C33.4595 54.1646 33.3928 54.1593 33.3255 54.1583C30.802 54.11 28.4833 52.7804 27.1107 50.582ZM47.9006 44.3251C47.3012 45.8396 46.6168 47.0846 45.8083 48.131C44.327 50.0467 42.4684 51.5538 40.3762 52.5829C41.1116 51.6374 41.6642 50.5368 41.9668 49.3329C45.7558 34.2561 34.7659 27.5816 34.6551 27.5159C34.3189 27.3189 33.8981 27.3536 33.5997 27.6031C33.3019 27.8521 33.1926 28.2619 33.3282 28.6259C35.328 34.0265 34.1933 37.3528 32.9515 39.1577C33.2016 34.4016 31.3798 31.5755 31.2884 31.4373C31.0651 31.1001 30.6475 30.9477 30.2599 31.0644C29.8727 31.1805 29.6064 31.5361 29.6048 31.9406C29.5869 36.3269 27.4978 38.4985 27.4127 38.5851C27.3859 38.6119 27.3602 38.6408 27.3365 38.6713C26.3731 39.9021 25.5857 41.1502 24.9979 42.381C23.5937 45.318 23.8018 48.7471 25.5537 51.5533C25.7023 51.7923 25.872 52.0119 26.0385 52.2336C23.9189 51.0653 22.0683 49.4048 20.672 47.3383C20.631 47.2742 16.6818 41.0788 17.0064 34.711C17.91 34.9232 18.8466 35.0477 19.8137 35.0477C26.5806 35.0477 32.0853 29.5431 32.0853 22.7761C32.0853 20.3749 31.3819 18.1403 30.1858 16.2466C31.3451 10.9794 31.2737 6.13973 31.0625 3.31885C41.9999 14.2851 41.1457 23.8451 41.1347 23.9423C41.0827 24.4093 41.3921 24.84 41.8502 24.9404C42.3093 25.0391 42.77 24.7801 42.9181 24.3342C44.3674 19.9873 44.5665 15.684 44.4725 12.7985C53.2755 26.6655 49.8857 39.3153 47.9006 44.3251Z" fill="black"/>
<path d="M21.9034 26.3927C22.0825 26.5718 22.3179 26.6616 22.5527 26.6616C22.7875 26.6616 23.0223 26.5718 23.2014 26.3927C23.5602 26.0344 23.5602 25.4529 23.2014 25.0947L20.68 22.5737V18.303C20.68 17.7956 20.2692 17.3848 19.7617 17.3848C19.2543 17.3848 18.8435 17.7956 18.8435 18.303V22.954C18.8435 23.1978 18.9407 23.431 19.1125 23.6033L21.9034 26.3927Z" fill="black"/>
<path d="M6.64122 43.4171C6.28296 43.0589 5.70145 43.0589 5.34319 43.4171L4.15601 44.6043L2.96882 43.4171C2.61056 43.0589 2.02958 43.0589 1.67079 43.4171C1.31254 43.7759 1.31254 44.3569 1.67079 44.7152L2.85798 45.9023L1.67079 47.0895C1.31254 47.4478 1.31254 48.0288 1.67079 48.3876C1.85045 48.5667 2.08526 48.6565 2.32007 48.6565C2.55488 48.6565 2.78969 48.5667 2.96882 48.3876L4.15601 47.2004L5.34319 48.3876C5.52232 48.5667 5.75713 48.6565 5.99194 48.6565C6.22675 48.6565 6.46209 48.5667 6.64122 48.3876C6.99948 48.0288 6.99948 47.4478 6.64122 47.0895L5.45403 45.9023L6.64122 44.7152C7 44.3569 7 43.7759 6.64122 43.4171Z" fill="black"/>
<path d="M53.192 5.50768L54.3792 4.32102C54.7374 3.96224 54.7374 3.38125 54.3792 3.02299C54.0204 2.66421 53.4394 2.66421 53.0806 3.02299L51.894 4.20965L50.7068 3.02299C50.3485 2.66421 49.767 2.66421 49.4087 3.02299C49.05 3.38125 49.05 3.96224 49.4087 4.32102L50.5959 5.50768L49.4087 6.69487C49.05 7.05312 49.05 7.63463 49.4087 7.99289C49.5879 8.17202 49.8232 8.26185 50.0575 8.26185C50.2923 8.26185 50.5276 8.17202 50.7068 7.99289L51.894 6.80571L53.0806 7.99289C53.2603 8.17202 53.4951 8.26185 53.7299 8.26185C53.9647 8.26185 54.1995 8.17202 54.3792 7.99289C54.7374 7.63463 54.7374 7.05312 54.3792 6.69487L53.192 5.50768Z" fill="black"/>
<path d="M4.42485 10.7479C4.60398 10.927 4.83931 11.0169 5.07412 11.0169C5.30894 11.0169 5.54375 10.927 5.72287 10.7479L6.91006 9.56072L8.09725 10.7479C8.27638 10.927 8.51119 11.0169 8.746 11.0169C8.98081 11.0169 9.21615 10.927 9.39528 10.7479C9.75353 10.3896 9.75353 9.80814 9.39528 9.44988L8.20809 8.26269L9.39528 7.07603C9.75353 6.71725 9.75353 6.13626 9.39528 5.77748C9.03649 5.41922 8.45551 5.41922 8.09725 5.77748L6.91006 6.96467L5.72287 5.77748C5.36462 5.41922 4.78363 5.41922 4.42485 5.77748C4.06659 6.13626 4.06659 6.71725 4.42485 7.07603L5.61204 8.26269L4.42485 9.44988C4.06607 9.80814 4.06607 10.3896 4.42485 10.7479Z" fill="black"/>
</g>
<defs>
<clipPath id="clip0">
<rect width="56" height="56" fill="white"/>
</clipPath>
</defs>
</svg>
