<svg width="56" height="56" viewBox="0 0 56 56" fill="none" xmlns="http://www.w3.org/2000/svg">
<path d="M28 0.875C22.6352 0.875 17.3909 2.46585 12.9302 5.44639C8.46949 8.42692 4.99281 12.6633 2.93978 17.6197C0.886753 22.5762 0.349587 28.0301 1.39621 33.2918C2.44284 38.5536 5.02624 43.3868 8.81974 47.1803C12.6132 50.9738 17.4465 53.5572 22.7082 54.6038C27.9699 55.6504 33.4239 55.1133 38.3803 53.0602C43.3367 51.0072 47.5731 47.5305 50.5536 43.0698C53.5342 38.6092 55.125 33.3648 55.125 28C55.1169 20.8085 52.2565 13.9138 47.1713 8.82868C42.0862 3.74351 35.1915 0.883106 28 0.875ZM28 53.375C22.9813 53.375 18.0753 51.8868 13.9024 49.0985C9.72952 46.3103 6.47714 42.3473 4.55657 37.7106C2.636 33.0739 2.13349 27.9718 3.11259 23.0496C4.09169 18.1273 6.50842 13.6059 10.0572 10.0572C13.6059 6.50841 18.1273 4.09167 23.0496 3.11257C27.9719 2.13347 33.0739 2.63598 37.7106 4.55656C42.3473 6.47713 46.3103 9.72951 49.0985 13.9024C51.8868 18.0753 53.375 22.9813 53.375 28C53.3674 34.7275 50.6915 41.1773 45.9344 45.9344C41.1773 50.6915 34.7275 53.3674 28 53.375Z" fill="black"/>
<path d="M33.5126 13.2419C33.4044 13.1987 33.2886 13.1777 33.1721 13.1798C33.0557 13.182 32.9408 13.2075 32.8343 13.2546C32.7278 13.3018 32.6317 13.3698 32.5518 13.4546C32.4719 13.5394 32.4098 13.6392 32.369 13.7484C32.3282 13.8575 32.3096 13.9737 32.3143 14.0901C32.319 14.2065 32.3469 14.3208 32.3964 14.4262C32.4459 14.5317 32.5159 14.6262 32.6024 14.7043C32.6889 14.7823 32.7901 14.8423 32.9001 14.8807C35.9697 16.0274 38.5399 18.2145 40.163 21.0611C41.7861 23.9077 42.3592 27.2335 41.7826 30.4592C41.2059 33.6849 39.5161 36.6061 37.0073 38.7141C34.4986 40.8221 31.3298 41.9833 28.053 41.9955C24.7762 42.0077 21.599 40.87 19.0746 38.7807C16.5503 36.6914 14.8388 33.7828 14.2382 30.5615C13.6376 27.3402 14.186 24.0102 15.7879 21.1517C17.3898 18.2931 19.9437 16.0869 23.0047 14.9175C23.2216 14.8347 23.3966 14.669 23.4914 14.4571C23.5862 14.2452 23.5929 14.0043 23.51 13.7874C23.4272 13.5706 23.2616 13.3955 23.0496 13.3007C22.8377 13.206 22.5968 13.1993 22.38 13.2821C18.9362 14.5974 16.0629 17.0791 14.2605 20.2948C12.4581 23.5105 11.8408 27.2566 12.5161 30.8807C13.1914 34.5047 15.1165 37.777 17.9562 40.1278C20.7958 42.4785 24.3701 43.7587 28.0565 43.7454C31.7429 43.732 35.3078 42.4261 38.1304 40.0548C40.953 37.6836 42.8544 34.3975 43.5035 30.7686C44.1526 27.1398 43.5082 23.3983 41.6826 20.1957C39.857 16.993 36.9658 14.5322 33.5126 13.2419Z" fill="black"/>
<path d="M28 26.25C28.2321 26.25 28.4546 26.1578 28.6187 25.9937C28.7828 25.8296 28.875 25.6071 28.875 25.375V10.5C28.875 10.2679 28.7828 10.0454 28.6187 9.88128C28.4546 9.71719 28.2321 9.625 28 9.625C27.7679 9.625 27.5454 9.71719 27.3813 9.88128C27.2172 10.0454 27.125 10.2679 27.125 10.5V25.375C27.125 25.6071 27.2172 25.8296 27.3813 25.9937C27.5454 26.1578 27.7679 26.25 28 26.25Z" fill="black"/>
</svg>
