<svg width="41" height="56" viewBox="0 0 41 56" fill="none" xmlns="http://www.w3.org/2000/svg">
<path d="M30.5282 7.73896C30.3602 7.55276 30.117 7.45255 29.8665 7.46643L26.1332 7.47856C25.6177 7.47856 25.1998 7.89646 25.1998 8.4119V37.9659C23.3653 38.8338 22.0382 40.5048 21.6084 42.4884C20.8443 46.0148 23.0836 49.4929 26.6101 50.257C27.0642 50.3515 27.5268 50.3993 27.9905 50.3998C30.5121 50.4007 32.8091 48.9504 33.8924 46.6734C35.4427 43.4152 34.0581 39.5171 30.7998 37.9668V8.39976C30.8005 8.1522 30.7029 7.91455 30.5282 7.73896ZM31.6289 40.9358C33.2479 42.9358 32.9389 45.8696 30.9389 47.4887C29.8328 48.3829 28.3812 48.7282 26.9909 48.4276C25.4216 48.0796 24.1418 46.9484 23.6038 45.4336C22.7412 43.005 24.0107 40.3368 26.4393 39.4742C26.8145 39.3438 27.0663 38.9903 27.0665 38.5931V9.34243L28.9332 9.3331V38.5931C28.9333 38.9901 29.1846 39.3435 29.5594 39.4742C30.3711 39.7609 31.0874 40.2668 31.6289 40.9358Z" fill="white"/>
<path d="M34.5333 33.6364V29.8872H32.6666V34.16C32.6666 34.4934 32.8445 34.8015 33.1333 34.9683C34.6941 35.8694 35.9901 37.1654 36.8911 38.7261C39.7262 43.6366 38.0438 49.9156 33.1333 52.7506C28.2228 55.5857 21.9438 53.9033 19.1088 48.9928C16.2737 44.0823 17.9561 37.8033 22.8666 34.9683C23.1554 34.8015 23.3333 34.4934 23.3333 34.16V6.53333C23.3363 3.95733 25.424 1.8697 28 1.86667C30.5754 1.87133 32.662 3.95792 32.6666 6.53333V9.33333H34.5333V6.53333C34.5292 2.92682 31.6065 0.00408333 28 0C24.3934 0.00408333 21.4707 2.92682 21.4666 6.53333V33.6364C17.9694 35.8665 15.8538 39.7285 15.8571 43.8762C15.8624 50.5773 21.299 56.0052 28 56C32.1477 56.0033 36.0097 53.8876 38.2398 50.3904C41.8428 44.7404 40.1833 37.2394 34.5333 33.6364Z" fill="white"/>
<path d="M10.2665 6.53325C10.2665 4.98683 9.01292 3.73325 7.4665 3.73325C5.92009 3.73325 4.6665 4.98683 4.6665 6.53325C4.6665 8.07966 5.92009 9.33325 7.4665 9.33325C9.01292 9.33325 10.2665 8.07966 10.2665 6.53325ZM7.4665 7.46658C6.95107 7.46658 6.53317 7.04868 6.53317 6.53325C6.53317 6.01781 6.95107 5.59991 7.4665 5.59991C7.98193 5.59991 8.39983 6.01781 8.39983 6.53325C8.39983 7.04868 7.98205 7.46658 7.4665 7.46658Z" fill="white"/>
<path d="M20.5333 10.2667C20.5333 4.59655 15.9368 0 10.2667 0C4.59655 0 0 4.59655 0 10.2667C0 15.9368 4.59655 20.5333 10.2667 20.5333C15.9341 20.5267 20.5267 15.934 20.5333 10.2667ZM10.2667 18.6667C5.62741 18.6667 1.86667 14.9058 1.86667 10.2667C1.86667 5.62742 5.62741 1.86667 10.2667 1.86667C14.9035 1.87227 18.6611 5.62987 18.6667 10.2667C18.6667 14.9058 14.9059 18.6667 10.2667 18.6667Z" fill="white"/>
<path d="M14.4667 14.5598C13.6019 15.0576 12.5376 15.0576 11.6728 14.5598C10.3326 13.7883 9.87163 12.0764 10.643 10.7363C11.4145 9.39615 13.1264 8.93508 14.4665 9.70648C14.9131 9.96419 15.4842 9.81101 15.7419 9.36441C15.9997 8.91781 15.8465 8.34673 15.3999 8.08901C14.6929 7.68196 13.8916 7.4673 13.0759 7.46648C10.4986 7.46391 8.40711 9.55119 8.40454 12.1285C8.40198 14.7058 10.4893 16.7972 13.0665 16.7998C13.8857 16.8007 14.6904 16.5857 15.3999 16.1763C15.4035 16.1744 15.407 16.1723 15.4106 16.1702C15.8553 15.9095 16.0044 15.3376 15.7438 14.893C15.4832 14.4483 14.9114 14.2992 14.4667 14.5598Z" fill="white"/>
<path d="M36.3998 11.1997H32.6665V13.0664H36.3998V11.1997Z" fill="white"/>
<path d="M36.3998 14.9336H32.6665V16.8003H36.3998V14.9336Z" fill="white"/>
<path d="M36.3998 18.6669H32.6665V20.5336H36.3998V18.6669Z" fill="white"/>
<path d="M36.3998 22.4001H32.6665V24.2668H36.3998V22.4001Z" fill="white"/>
<path d="M36.3998 26.1334H32.6665V28H36.3998V26.1334Z" fill="white"/>
</svg>
