<svg width="46" height="66" viewBox="0 0 46 66" fill="none" xmlns="http://www.w3.org/2000/svg">
<path d="M38.5167 39.6429V35.2242H36.3167V40.26C36.3167 40.653 36.5263 41.0161 36.8667 41.2126C38.7061 42.2746 40.2336 43.8021 41.2955 45.6415C44.6369 51.4288 42.654 58.8291 36.8667 62.1703C31.0793 65.5117 23.679 63.5288 20.3378 57.7415C16.9964 51.9541 18.9793 44.5538 24.7667 41.2126C25.107 41.0161 25.3167 40.653 25.3167 40.26V7.7C25.3202 4.664 27.7807 2.20357 30.8167 2.2C33.852 2.2055 36.3112 4.66469 36.3167 7.7V11H38.5167V7.7C38.5112 3.44974 35.0669 0.0055 30.8167 0C26.5661 0.0048125 23.1215 3.44946 23.1167 7.7V39.6429C18.995 42.2712 16.5015 46.8229 16.5054 51.7113C16.5116 59.609 22.9189 66.0062 30.8167 66C35.7051 66.0038 40.2567 63.5104 42.885 59.3887C47.1314 52.7297 45.1756 43.8893 38.5167 39.6429Z" fill="black"/>
<path d="M33.0164 8.7998L28.6164 8.8141C28.009 8.8141 27.5164 9.30663 27.5164 9.9141V44.7456C25.3543 45.7685 23.7902 47.7379 23.2836 50.0757C22.3832 54.2319 25.0223 58.331 29.1785 59.2315C29.7133 59.3427 30.258 59.3991 30.8043 59.3998C33.7765 59.4013 36.4843 57.6919 37.7613 55.0081C39.5884 51.168 37.9565 46.5738 34.1164 44.7467V9.8998C34.1164 9.29233 33.6239 8.7998 33.0164 8.7998ZM35.0941 48.2459C37.002 50.6032 36.6376 54.061 34.2803 55.9689C32.9764 57.0223 31.2659 57.429 29.6273 57.0755C27.7778 56.6653 26.2695 55.3321 25.6354 53.5468C24.6188 50.6845 26.1149 47.5399 28.9772 46.5232C29.4194 46.3696 29.7162 45.953 29.7164 45.4848V11.0108L31.9164 10.9998V45.4848C31.9167 45.953 32.2133 46.3696 32.6556 46.5232C33.6119 46.8612 34.4559 47.4575 35.0941 48.2459Z" fill="black"/>
<path d="M17.2029 19.063C17.7897 18.9057 18.1379 18.3025 17.9806 17.7158C17.9806 17.7156 17.9806 17.7156 17.9806 17.7155L17.5296 16.0303L19.0399 16.9026C19.564 17.2098 20.2379 17.034 20.5451 16.5099C20.8523 15.9858 20.6765 15.3119 20.1524 15.0047C20.1483 15.0022 20.144 14.9999 20.1397 14.9974L18.6294 14.1251L20.3136 13.6741C20.8997 13.5143 21.2452 12.9096 21.0856 12.3236C20.9269 11.7413 20.3287 11.3956 19.745 11.5489V11.55L15.9357 12.5708L13.2165 11L15.9357 9.4303L19.745 10.4511C20.3325 10.6054 20.934 10.2542 21.0884 9.66666C21.2417 9.08298 20.896 8.48471 20.3137 8.3259L18.6296 7.8749L20.1399 7.0026C20.668 6.7023 20.8527 6.03075 20.5525 5.50261C20.2522 4.97448 19.5807 4.78981 19.0525 5.08998C19.0483 5.09245 19.0441 5.09479 19.0399 5.09726L17.5296 5.96956L17.9806 4.28436C18.1221 3.69353 17.7578 3.09994 17.167 2.95845C16.5986 2.82233 16.023 3.15439 15.8565 3.71456L14.8368 7.52496L12.1165 9.09466V5.9554L14.905 3.1658C15.327 2.72883 15.3149 2.03239 14.8779 1.6104C14.4517 1.19872 13.7758 1.19872 13.3496 1.6104L12.1165 2.8435V1.1C12.1165 0.492525 11.624 0 11.0165 0C10.409 0 9.91649 0.492525 9.91649 1.1V2.8435L8.68339 1.6104C8.24641 1.18841 7.54997 1.20051 7.12799 1.63749C6.71631 2.06374 6.71631 2.73955 7.12799 3.1658L9.91649 5.9554V9.0948L7.19729 7.5251L6.17649 3.7147C6.01768 3.12813 5.41336 2.78149 4.82679 2.9403C4.24021 3.09911 3.89357 3.70343 4.05239 4.29L4.50339 5.9752L2.99309 5.0974C2.46894 4.79023 1.79505 4.96595 1.48788 5.4901C1.1807 6.01425 1.35642 6.68814 1.88057 6.99531C1.8847 6.99779 1.88896 7.00013 1.89323 7.0026L3.40353 7.8749L1.71943 8.3259C1.1279 8.4645 0.760775 9.0563 0.899375 9.64783C1.03797 10.2394 1.62978 10.6065 2.2213 10.4679C2.24371 10.4627 2.26599 10.4566 2.28813 10.45L6.09742 9.4292L8.81649 11L6.09729 12.5697L2.28799 11.55C1.70045 11.3957 1.09902 11.7469 0.944612 12.3344C0.7913 12.9181 1.13698 13.5164 1.71929 13.6752L3.40339 14.1262L1.89309 14.9985C1.36495 15.2988 1.18029 15.9704 1.48059 16.4985C1.78089 17.0266 2.45244 17.2113 2.98057 16.911C2.98484 16.9086 2.98896 16.9062 2.99323 16.9037L4.50353 16.0314L4.05253 17.7166C3.89509 18.3033 4.24324 18.9067 4.82995 19.064C4.83009 19.064 4.83009 19.064 4.83023 19.064C4.92359 19.0887 5.0197 19.1014 5.11623 19.1014C5.6137 19.101 6.04889 18.7667 6.17772 18.2863L7.19742 14.4759L9.91663 12.9051V16.0445L7.12813 18.8341C6.70614 19.271 6.71824 19.9675 7.15521 20.3895C7.58146 20.8011 8.25728 20.8011 8.68353 20.3895L9.91663 19.1564V20.9C9.91663 21.5075 10.4092 22 11.0166 22C11.6241 22 12.1166 21.5075 12.1166 20.9V19.1565L13.3497 20.3896C13.7867 20.8116 14.4831 20.7995 14.9051 20.3625C15.3168 19.9363 15.3168 19.2605 14.9051 18.8342L12.1166 16.0446V12.9052L14.8358 14.4749L15.8555 18.2853C15.9844 18.7657 16.4195 19.1 16.917 19.1004C17.0134 19.1004 17.1095 19.0877 17.2029 19.063Z" fill="black"/>
<path d="M40.7164 13.2002H36.3164V15.4002H40.7164V13.2002Z" fill="black"/>
<path d="M40.7164 17.6006H36.3164V19.8006H40.7164V17.6006Z" fill="black"/>
<path d="M40.7164 22H36.3164V24.2H40.7164V22Z" fill="black"/>
<path d="M40.7164 26.4004H36.3164V28.6004H40.7164V26.4004Z" fill="black"/>
<path d="M40.7164 30.7998H36.3164V32.9998H40.7164V30.7998Z" fill="black"/>
</svg>
