<svg width="64" height="63" viewBox="0 0 64 63" fill="none" xmlns="http://www.w3.org/2000/svg">
<path d="M35 49.8067C35 49.2273 34.8241 48.6608 34.4944 48.179C34.1648 47.6972 33.6962 47.3217 33.1481 47.1C32.5999 46.8782 31.9967 46.8202 31.4147 46.9332C30.8328 47.0463 30.2982 47.3253 29.8787 47.7351C29.4591 48.1448 29.1734 48.6668 29.0576 49.2352C28.9419 49.8035 29.0013 50.3926 29.2284 50.9279C29.4554 51.4633 29.8399 51.9208 30.3333 52.2428C30.8266 52.5647 31.4067 52.7365 32 52.7365C32.7957 52.7365 33.5587 52.4279 34.1213 51.8784C34.6839 51.329 35 50.5838 35 49.8067ZM31 49.8067C31 49.6136 31.0587 49.4248 31.1685 49.2642C31.2784 49.1036 31.4346 48.9784 31.6173 48.9045C31.8 48.8306 32.0011 48.8112 32.1951 48.8489C32.3891 48.8866 32.5673 48.9796 32.7071 49.1162C32.847 49.2528 32.9422 49.4268 32.9808 49.6162C33.0194 49.8057 32.9996 50.002 32.9239 50.1805C32.8482 50.3589 32.72 50.5114 32.5556 50.6188C32.3911 50.7261 32.1978 50.7833 32 50.7833C31.7348 50.7833 31.4804 50.6805 31.2929 50.4973C31.1054 50.3142 31 50.0658 31 49.8067Z" fill="white"/>
<path d="M27 49.8062C27.001 49.6239 26.9498 49.445 26.852 49.2896C26.7543 49.1343 26.614 49.0088 26.447 48.9273L22.447 46.9741C22.2941 46.8995 22.1242 46.8644 21.9535 46.8721C21.7828 46.8799 21.617 46.9303 21.4718 47.0184C21.3267 47.1066 21.2072 47.2296 21.1246 47.3757C21.042 47.5218 20.9991 47.6861 21 47.853V51.7594C20.9991 51.9263 21.042 52.0907 21.1246 52.2368C21.2072 52.3829 21.3267 52.5059 21.4718 52.594C21.617 52.6822 21.7828 52.7326 21.9535 52.7403C22.1242 52.7481 22.2941 52.713 22.447 52.6384L26.447 50.6852C26.614 50.6037 26.7543 50.4782 26.852 50.3228C26.9498 50.1675 27.001 49.9885 27 49.8062ZM23 50.1793V49.4332L23.764 49.8062L23 50.1793Z" fill="white"/>
<path d="M43 47.8535C43 47.5945 42.8946 47.3461 42.7071 47.163C42.5196 46.9798 42.2652 46.877 42 46.877H38C37.7348 46.877 37.4804 46.9798 37.2929 47.163C37.1054 47.3461 37 47.5945 37 47.8535V51.7599C37 52.0189 37.1054 52.2673 37.2929 52.4505C37.4804 52.6336 37.7348 52.7365 38 52.7365H42C42.2652 52.7365 42.5196 52.6336 42.7071 52.4505C42.8946 52.2673 43 52.0189 43 51.7599V47.8535ZM41 50.7833H39V48.8301H41V50.7833Z" fill="white"/>
<path d="M19 41.0166H45V42.9698H19V41.0166Z" fill="white"/>
<path d="M49 7.11932V4.88292C48.9976 4.1066 48.6808 3.36274 48.1187 2.8138C47.5566 2.26486 46.7949 1.95544 46 1.95312H18C17.2051 1.95544 16.4434 2.26486 15.8813 2.8138C15.3192 3.36274 15.0024 4.1066 15 4.88292V7.11932C10.9913 9.81016 7.71311 13.4131 5.44828 17.6172C3.18346 21.8214 2 26.5005 2 31.251C2 36.0015 3.18346 40.6807 5.44828 44.8848C7.71311 49.089 10.9913 52.6919 15 55.3827V57.6191C15.0024 58.3955 15.3192 59.1393 15.8813 59.6883C16.4434 60.2372 17.2051 60.5466 18 60.5489H46C46.7949 60.5466 47.5566 60.2372 48.1187 59.6883C48.6808 59.1393 48.9976 58.3955 49 57.6191V55.3827C53.0087 52.6919 56.2869 49.089 58.5517 44.8848C60.8165 40.6807 62 36.0015 62 31.251C62 26.5005 60.8165 21.8214 58.5517 17.6172C56.2869 13.4131 53.0087 9.81016 49 7.11932ZM15 44.855C11.7668 41.0246 9.99867 36.2151 9.99867 31.251C9.99867 26.287 11.7668 21.4775 15 17.647V44.855ZM15 14.727C10.5176 19.1121 7.99999 25.0549 7.99999 31.251C7.99999 37.4471 10.5176 43.39 15 47.775V52.9803C11.5792 50.4281 8.80697 47.1399 6.89888 43.3713C4.99078 39.6027 3.99816 35.4552 3.99816 31.251C3.99816 27.0469 4.99078 22.8994 6.89888 19.1308C8.80697 15.3622 11.5792 12.074 15 9.52175V14.727ZM41.72 3.90632L41.41 5.1173C41.3564 5.32903 41.2318 5.51714 41.056 5.65166C40.8802 5.78617 40.6633 5.85934 40.44 5.85951H23.56C23.3367 5.85934 23.1198 5.78617 22.944 5.65166C22.7682 5.51714 22.6436 5.32903 22.59 5.1173L22.28 3.90632H41.72ZM47 57.6191C47 57.8782 46.8946 58.1266 46.7071 58.3097C46.5196 58.4929 46.2652 58.5957 46 58.5957H18C17.7348 58.5957 17.4804 58.4929 17.2929 58.3097C17.1054 58.1266 17 57.8782 17 57.6191V4.88292C17 4.62391 17.1054 4.3755 17.2929 4.19236C17.4804 4.00921 17.7348 3.90632 18 3.90632H20.22L20.65 5.59583C20.8127 6.22921 21.1874 6.79135 21.7146 7.19299C22.2419 7.59462 22.8914 7.81274 23.56 7.81271H40.44C41.1087 7.81274 41.7582 7.59462 42.2854 7.19299C42.8126 6.79135 43.1873 6.22921 43.35 5.59583L43.78 3.90632H46C46.2652 3.90632 46.5196 4.00921 46.7071 4.19236C46.8946 4.3755 47 4.62391 47 4.88292V57.6191ZM49 17.647C52.2332 21.4775 54.0013 26.287 54.0013 31.251C54.0013 36.2151 52.2332 41.0246 49 44.855V17.647ZM49 52.9803V47.775C53.4824 43.39 56 37.4471 56 31.251C56 25.0549 53.4824 19.1121 49 14.727V9.52175C52.4208 12.074 55.193 15.3622 57.1011 19.1308C59.0092 22.8994 60.0018 27.0469 60.0018 31.251C60.0018 35.4552 59.0092 39.6027 57.1011 43.3713C55.193 47.1399 52.4208 50.4281 49 52.9803Z" fill="white"/>
<path d="M32 11.7188C29.4288 11.7187 26.9154 12.4633 24.7776 13.8584C22.6398 15.2534 20.9735 17.2362 19.9896 19.5561C19.0056 21.8759 18.7482 24.4286 19.2498 26.8913C19.7514 29.3541 20.9895 31.6162 22.8076 33.3918C24.6257 35.1673 26.9421 36.3765 29.4638 36.8663C31.9856 37.3562 34.5994 37.1048 36.9749 36.1439C39.3503 35.1829 41.3806 33.5557 42.8091 31.4679C44.2376 29.3801 45 26.9255 45 24.4145C44.9968 21.0483 43.6262 17.8209 41.1889 15.4407C38.7516 13.0604 35.4468 11.7219 32 11.7188ZM32 35.1571C29.8244 35.1571 27.6977 34.527 25.8887 33.3466C24.0798 32.1662 22.6699 30.4885 21.8373 28.5255C21.0048 26.5626 20.7869 24.4026 21.2114 22.3187C21.6358 20.2349 22.6835 18.3207 24.2218 16.8184C25.7602 15.316 27.7202 14.2929 29.854 13.8784C31.9878 13.4639 34.1995 13.6766 36.2095 14.4897C38.2195 15.3028 39.9375 16.6797 41.1462 18.4463C42.3549 20.2129 43 22.2898 43 24.4145C42.9981 27.2631 41.8386 29.9944 39.7761 32.0087C37.7136 34.0229 34.9168 35.1553 32 35.1571Z" fill="white"/>
<path d="M38.62 17.784C38.499 17.6941 38.3591 17.6317 38.2103 17.6012C38.0615 17.5708 37.9077 17.5732 37.76 17.6082L29.76 19.5614C29.5432 19.6138 29.3506 19.7355 29.2128 19.9072C29.0751 20.0788 29.0002 20.2906 29 20.5087V25.5675C28.3992 25.3601 27.7465 25.3448 27.1363 25.524C26.5261 25.7032 25.9901 26.0674 25.6061 26.564C25.2221 27.0605 25.0099 27.6636 25.0003 28.2858C24.9908 28.908 25.1843 29.517 25.5529 30.0246C25.9216 30.5322 26.4461 30.912 27.0505 31.1089C27.655 31.3059 28.3079 31.3097 28.9147 31.12C29.5216 30.9303 30.0508 30.5567 30.4257 30.0536C30.8006 29.5504 31.0018 28.9438 31 28.3215V21.2705L37 19.8056V23.6143C36.3992 23.4069 35.7465 23.3916 35.1363 23.5708C34.5261 23.75 33.9901 24.1142 33.6061 24.6108C33.222 25.1073 33.0099 25.7104 33.0003 26.3326C32.9908 26.9548 33.1843 27.5638 33.5529 28.0714C33.9216 28.579 34.4461 28.9588 35.0505 29.1557C35.655 29.3527 36.3079 29.3565 36.9147 29.1668C37.5216 28.9771 38.0508 28.6036 38.4257 28.1004C38.8006 27.5972 39.0018 26.9906 39 26.3683V18.5555C39.0008 18.4072 38.967 18.2606 38.9012 18.1269C38.8353 17.9932 38.7392 17.876 38.62 17.784ZM28 29.2981C27.8022 29.2981 27.6089 29.2408 27.4444 29.1335C27.28 29.0262 27.1518 28.8737 27.0761 28.6952C27.0004 28.5168 26.9806 28.3204 27.0192 28.131C27.0578 27.9415 27.153 27.7675 27.2929 27.6309C27.4327 27.4944 27.6109 27.4013 27.8049 27.3637C27.9989 27.326 28.1999 27.3453 28.3827 27.4192C28.5654 27.4931 28.7216 27.6183 28.8315 27.7789C28.9413 27.9395 29 28.1283 29 28.3215C29 28.5805 28.8946 28.8289 28.7071 29.0121C28.5196 29.1952 28.2652 29.2981 28 29.2981ZM36 27.3449C35.8022 27.3449 35.6089 27.2876 35.4444 27.1803C35.28 27.073 35.1518 26.9205 35.0761 26.742C35.0004 26.5636 34.9806 26.3672 35.0192 26.1778C35.0578 25.9883 35.153 25.8143 35.2929 25.6777C35.4327 25.5412 35.6109 25.4481 35.8049 25.4105C35.9989 25.3728 36.1999 25.3921 36.3827 25.466C36.5654 25.54 36.7216 25.6651 36.8315 25.8257C36.9413 25.9863 37 26.1751 37 26.3683C37 26.6273 36.8946 26.8757 36.7071 27.0589C36.5196 27.242 36.2652 27.3449 36 27.3449Z" fill="white"/>
<path d="M23 54.6895H41V56.6426H23V54.6895Z" fill="white"/>
<path d="M19 54.6895H21V56.6426H19V54.6895Z" fill="white"/>
<path d="M43 54.6895H45V56.6426H43V54.6895Z" fill="white"/>
</svg>
