<svg width="64" height="63" viewBox="0 0 64 63" fill="none" xmlns="http://www.w3.org/2000/svg">
<g clip-path="url(#clip0)">
<path d="M1.45459 39.7737C0.651682 39.7737 0 39.1373 0 38.3532V24.1481C0 23.364 0.651682 22.7275 1.45459 22.7275C2.2575 22.7275 2.90918 23.364 2.90918 24.1481V38.3532C2.90905 39.1373 2.2575 39.7737 1.45459 39.7737Z" fill="#F44336"/>
<path d="M10.1812 51.1385C9.37824 51.1385 8.72656 50.502 8.72656 49.7179V12.7848C8.72656 12.0007 9.37824 11.3643 10.1812 11.3643C10.9841 11.3643 11.6356 12.0007 11.6356 12.7848V49.7179C11.6356 50.502 10.9841 51.1385 10.1812 51.1385Z" fill="#F44336"/>
<path d="M18.9097 62.5022C18.1068 62.5022 17.4551 61.8658 17.4551 61.0816V1.42042C17.4551 0.636431 18.1068 0 18.9097 0C19.7126 0 20.3643 0.636431 20.3643 1.42055V61.0818C20.3641 61.8659 19.7126 62.5022 18.9097 62.5022Z" fill="#F44336"/>
<path d="M27.6362 59.6611C26.8333 59.6611 26.1816 59.0246 26.1816 58.2405V4.26137C26.1816 3.47725 26.8333 2.84082 27.6362 2.84082C28.4391 2.84082 29.0907 3.47725 29.0907 4.26137V58.2405C29.0907 59.0246 28.4391 59.6611 27.6362 59.6611Z" fill="#F44336"/>
<path d="M36.3628 48.2973C35.5599 48.2973 34.9082 47.6609 34.9082 46.8768V15.6256C34.9082 14.8415 35.5599 14.2051 36.3628 14.2051C37.1657 14.2051 37.8174 14.8415 37.8174 15.6256V46.8768C37.8173 47.6609 37.1657 48.2973 36.3628 48.2973Z" fill="#F44336"/>
<path d="M45.0913 59.6611C44.2884 59.6611 43.6367 59.0246 43.6367 58.2405V4.26137C43.6367 3.47725 44.2884 2.84082 45.0913 2.84082C45.8942 2.84082 46.5459 3.47725 46.5459 4.26137V58.2405C46.5458 59.0246 45.8942 59.6611 45.0913 59.6611Z" fill="#F44336"/>
<path d="M53.8179 48.2973C53.015 48.2973 52.3633 47.6609 52.3633 46.8768V15.6256C52.3633 14.8415 53.015 14.2051 53.8179 14.2051C54.6208 14.2051 55.2725 14.8415 55.2725 15.6256V46.8768C55.2723 47.6609 54.6208 48.2973 53.8179 48.2973Z" fill="#F44336"/>
<path d="M62.5464 39.7737C61.7435 39.7737 61.0918 39.1373 61.0918 38.3532V24.1481C61.0918 23.364 61.7435 22.7275 62.5464 22.7275C63.3493 22.7275 64.001 23.364 64.001 24.1481V38.3532C64.0008 39.1373 63.3493 39.7737 62.5464 39.7737Z" fill="#F44336"/>
<path d="M1.45459 39.7737C0.651682 39.7737 0 39.1373 0 38.3532V24.1481C0 23.364 0.651682 22.7275 1.45459 22.7275C2.2575 22.7275 2.90918 23.364 2.90918 24.1481V38.3532C2.90905 39.1373 2.2575 39.7737 1.45459 39.7737Z" fill="white"/>
<path d="M10.1812 51.1385C9.37824 51.1385 8.72656 50.502 8.72656 49.7179V12.7848C8.72656 12.0007 9.37824 11.3643 10.1812 11.3643C10.9841 11.3643 11.6356 12.0007 11.6356 12.7848V49.7179C11.6356 50.502 10.9841 51.1385 10.1812 51.1385Z" fill="white"/>
<path d="M18.9097 62.5022C18.1068 62.5022 17.4551 61.8658 17.4551 61.0816V1.42042C17.4551 0.636431 18.1068 0 18.9097 0C19.7126 0 20.3643 0.636431 20.3643 1.42055V61.0818C20.3641 61.8659 19.7126 62.5022 18.9097 62.5022Z" fill="white"/>
<path d="M27.6362 59.6611C26.8333 59.6611 26.1816 59.0246 26.1816 58.2405V4.26137C26.1816 3.47725 26.8333 2.84082 27.6362 2.84082C28.4391 2.84082 29.0907 3.47725 29.0907 4.26137V58.2405C29.0907 59.0246 28.4391 59.6611 27.6362 59.6611Z" fill="white"/>
<path d="M36.3628 48.2973C35.5599 48.2973 34.9082 47.6609 34.9082 46.8768V15.6256C34.9082 14.8415 35.5599 14.2051 36.3628 14.2051C37.1657 14.2051 37.8174 14.8415 37.8174 15.6256V46.8768C37.8173 47.6609 37.1657 48.2973 36.3628 48.2973Z" fill="white"/>
<path d="M45.0913 59.6611C44.2884 59.6611 43.6367 59.0246 43.6367 58.2405V4.26137C43.6367 3.47725 44.2884 2.84082 45.0913 2.84082C45.8942 2.84082 46.5459 3.47725 46.5459 4.26137V58.2405C46.5458 59.0246 45.8942 59.6611 45.0913 59.6611Z" fill="white"/>
<path d="M53.8179 48.2973C53.015 48.2973 52.3633 47.6609 52.3633 46.8768V15.6256C52.3633 14.8415 53.015 14.2051 53.8179 14.2051C54.6208 14.2051 55.2725 14.8415 55.2725 15.6256V46.8768C55.2723 47.6609 54.6208 48.2973 53.8179 48.2973Z" fill="white"/>
<path d="M62.5464 39.7737C61.7435 39.7737 61.0918 39.1373 61.0918 38.3532V24.1481C61.0918 23.364 61.7435 22.7275 62.5464 22.7275C63.3493 22.7275 64.001 23.364 64.001 24.1481V38.3532C64.0008 39.1373 63.3493 39.7737 62.5464 39.7737Z" fill="white"/>
</g>
<defs>
<clipPath id="clip0">
<rect width="64" height="62.5022" fill="white"/>
</clipPath>
</defs>
</svg>
