<svg width="58" height="63" viewBox="0 0 58 63" fill="none" xmlns="http://www.w3.org/2000/svg">
<path d="M52.1542 0.451759V0.446417C51.7985 -0.0306116 51.1143 -0.135713 50.6259 0.211642C50.1434 0.554723 50.0316 1.21191 50.3743 1.68907C56.8828 10.5857 56.8828 22.5381 50.3743 31.4347C50.0212 31.9136 50.1325 32.5812 50.6229 32.926C50.6249 32.9275 50.6271 32.929 50.6293 32.9304C51.1206 33.2728 51.803 33.1619 52.1543 32.6826C59.2066 23.0428 59.2066 10.0916 52.1542 0.451759Z" fill="white"/>
<path d="M7.37114 0.19795C7.37114 0.19795 7.371 0.19795 7.371 0.197816C6.87967 -0.144597 6.1973 -0.0336198 5.846 0.445679C-1.20648 10.0855 -1.20648 23.0365 5.846 32.6763C6.20167 33.1534 6.88582 33.2585 7.37428 32.9111C7.85673 32.568 7.96859 31.9109 7.6259 31.4338C1.11741 22.5372 1.11741 10.5848 7.6259 1.6882C7.97693 1.20796 7.86288 0.540764 7.37114 0.19795Z" fill="white"/>
<path d="M14.3286 5.43577C14.6986 4.96942 14.6115 4.29822 14.1339 3.93684C13.658 3.57666 12.9734 3.65973 12.6023 4.12274C6.75757 11.4332 6.75757 21.6904 12.6023 29.0009C12.9736 29.4664 13.661 29.5499 14.1377 29.1873C14.6144 28.8247 14.6999 28.1534 14.3286 27.6878C9.09937 21.1495 9.09937 11.9742 14.3286 5.43577Z" fill="white"/>
<path d="M43.8648 3.93704L43.8647 3.93718C43.3906 4.29962 43.3055 4.96816 43.6743 5.4329C48.9037 11.9712 48.9037 21.1467 43.6743 27.685C43.303 28.1505 43.3885 28.8219 43.8652 29.1844C44.3419 29.547 45.0293 29.4635 45.4006 28.998C51.2453 21.6875 51.2453 11.4303 45.4006 4.11987C45.0281 3.65526 44.3405 3.5734 43.8648 3.93704Z" fill="white"/>
<path d="M36.9631 9.25264C40.9305 13.3549 40.9305 19.7678 36.9631 23.8701C36.5488 24.2997 36.5698 24.9759 37.0095 25.3804C37.0097 25.3805 37.0098 25.3807 37.0101 25.3808C37.4503 25.785 38.1426 25.7642 38.5564 25.3343C38.5566 25.3342 38.5567 25.3339 38.557 25.3338C43.3163 20.409 43.3163 12.7138 38.557 7.78897C38.1466 7.35588 37.4544 7.32984 37.0111 7.73061C36.5676 8.13138 36.5409 8.8074 36.9513 9.24035C36.9551 9.24449 36.9591 9.24863 36.9631 9.25264Z" fill="white"/>
<path d="M20.239 25.6704C20.8431 25.6706 21.3332 25.1925 21.3335 24.6025C21.3336 24.3304 21.2274 24.0685 21.0365 23.8702C17.069 19.7679 17.069 13.355 21.0365 9.25267C21.4538 8.82599 21.438 8.14971 21.0011 7.74213C20.5642 7.33454 19.8717 7.35003 19.4543 7.77671C19.4504 7.78072 19.4464 7.78486 19.4426 7.789C14.6832 12.7138 14.6832 20.409 19.4426 25.3338C19.6492 25.5484 19.9373 25.6702 20.239 25.6704Z" fill="white"/>
<path d="M43.1889 61.1674L32.5368 20.6024C34.8413 18.6948 35.1258 15.324 33.1725 13.0734C31.2192 10.8229 27.7676 10.545 25.4631 12.4526C23.1586 14.3602 22.8741 17.731 24.8274 19.9815C25.0214 20.2052 25.2341 20.4129 25.4631 20.6024L14.8121 61.1674C14.6616 61.7389 15.014 62.3213 15.5991 62.4683C15.5996 62.4685 15.6003 62.4686 15.6009 62.4687C15.6896 62.4906 15.7807 62.5017 15.8722 62.5019C16.3713 62.5016 16.8068 62.1716 16.9312 61.6995L17.2965 60.3106C17.3578 60.2937 17.4174 60.2715 17.4749 60.2444L37.9246 49.7327L41.0665 61.6984C41.1906 62.1717 41.6275 62.5025 42.1277 62.5019C42.2196 62.5019 42.3111 62.4908 42.4001 62.4687C42.9855 62.3228 43.3389 61.7409 43.1893 61.1692C43.1891 61.1687 43.189 61.1681 43.1889 61.1674ZM32.6418 29.6066L26.6927 24.5223L27.4454 21.6569C27.9484 21.8133 28.4721 21.8963 28.9999 21.9037C29.5277 21.8963 30.0515 21.8133 30.5545 21.6569L32.6418 29.6066ZM28.9999 13.3567C30.8125 13.3567 32.2819 14.7917 32.2819 16.5618C32.2819 18.332 30.8125 19.7669 28.9999 19.7669C27.1874 19.7669 25.718 18.332 25.718 16.5618C25.718 14.7917 27.1874 13.3567 28.9999 13.3567ZM26.0845 26.8406L32.6735 32.4731L22.9371 38.8085L26.0845 26.8406ZM18.0218 57.5467L21.9492 42.5895L35.2958 48.6707L18.0218 57.5467ZM23.5672 40.9699L33.8649 34.2648L37.2639 47.2113L23.5672 40.9699Z" fill="white"/>
</svg>
