<svg width="64" height="63" viewBox="0 0 64 63" fill="none" xmlns="http://www.w3.org/2000/svg">
<g clip-path="url(#clip0)">
<path d="M37.6817 46.4777C35.3333 41.6565 27.7645 40.2447 20.8081 43.3289C16.7271 45.1399 13.5455 48.2126 12.2973 51.55C11.4821 53.7277 11.529 55.8617 12.4339 57.7185C13.9401 60.8119 17.5944 62.5021 21.8579 62.5021C24.2404 62.5021 26.8128 61.9738 29.3073 60.8672C33.3883 59.0563 36.5699 55.9835 37.8182 52.6461C38.6333 50.4685 38.5864 48.3345 37.6817 46.4777ZM35.8134 51.9314C34.7572 54.7551 31.9949 57.386 28.4238 58.9698C22.5215 61.5893 16.2128 60.6265 14.3605 56.8234C13.7075 55.4824 13.6873 53.906 14.3008 52.2648C15.357 49.4411 18.1204 46.8101 21.6904 45.2263C23.9374 44.2292 26.2419 43.7519 28.3385 43.7519C31.7495 43.7519 34.6078 45.018 35.7537 47.3728C36.4067 48.7138 36.4269 50.2902 35.8134 51.9314Z" fill="white"/>
<path d="M37.3266 0C36.7376 0 36.2598 0.466812 36.2598 1.0419V50.0141C36.2598 50.5893 36.7378 51.0561 37.3266 51.0561C37.9156 51.0561 38.3935 50.5893 38.3935 50.0141V1.0419C38.3935 0.466812 37.9155 0 37.3266 0Z" fill="white"/>
<path d="M45.336 15.3751C38.5044 8.91192 38.3935 1.11796 38.3935 1.0419C38.3935 0.46669 37.9155 0 37.3266 0C36.7376 0 36.2598 0.466812 36.2598 1.0419V12.6045C36.2598 12.9567 36.3451 21.3331 43.851 28.434C49.2679 33.5584 50.0489 36.5458 50.1331 37.5929C50.1769 38.1369 50.642 38.5526 51.1958 38.5526C51.2108 38.5526 51.2245 38.5525 51.2384 38.5516C51.8114 38.5297 52.2638 38.0702 52.2638 37.5106V27.1567C52.3531 26.345 52.4194 22.076 45.336 15.3751ZM50.1425 26.9274C50.134 26.9816 50.1298 27.0368 50.1298 27.091V32.3675C49.0799 30.8327 47.5478 29.029 45.336 26.9368C38.5044 20.4736 38.3935 12.6796 38.3935 12.6036V9.36933C39.517 11.7616 41.2326 14.3948 43.8509 16.8714C50.502 23.1639 50.1435 26.9118 50.1425 26.9274Z" fill="white"/>
</g>
<defs>
<clipPath id="clip0">
<rect width="64" height="62.5021" fill="white"/>
</clipPath>
</defs>
</svg>
