<svg width="56" height="56" viewBox="0 0 56 56" fill="none" xmlns="http://www.w3.org/2000/svg">
<g clip-path="url(#clip0)">
<path d="M28.662 51.4921C29.0057 51.3421 29.2279 51.0026 29.2277 50.6276L29.2277 5.3718C29.2274 4.85112 28.8052 4.42909 28.2845 4.42933C28.0459 4.42944 27.8162 4.51996 27.6418 4.68259L13.7709 17.6286H2.82846C1.26631 17.6286 -2.90769e-05 18.8949 -2.90769e-05 20.4571L-2.90769e-05 35.5423C-2.90769e-05 37.1045 1.26631 38.3708 2.82846 38.3708H13.7709L27.6418 51.3168C27.9164 51.5733 28.3174 51.6423 28.662 51.4921ZM2.82846 36.4851C2.30778 36.4851 1.88563 36.063 1.88563 35.5423L1.88563 20.4571C1.88563 19.9364 2.30778 19.5142 2.82846 19.5142H13.1996L13.1996 36.4851H2.82846ZM15.0852 37.0178V18.9815L27.342 7.54031L27.342 48.4591L15.0852 37.0178Z" fill="white"/>
<path d="M48.2796 9.80314L46.9465 11.1363C51.5563 15.7248 54.1388 21.9669 54.1186 28.4711C54.1404 34.9741 51.5602 41.2156 46.9531 45.805L48.2796 47.1391C58.5738 36.8225 58.5738 20.1197 48.2796 9.80314Z" fill="white"/>
<path d="M42.946 15.1379L41.6128 16.4711C48.2296 23.1032 48.2296 33.8396 41.6128 40.4717L42.946 41.8049C50.2983 34.4362 50.2983 22.5066 42.946 15.1379Z" fill="white"/>
<path d="M37.6133 20.4713L36.2792 21.8045C39.9554 25.4888 39.9554 31.4536 36.2792 35.138L37.6133 36.4711C42.0239 32.0497 42.0239 24.8926 37.6133 20.4713Z" fill="white"/>
</g>
<defs>
<clipPath id="clip0">
<rect width="56" height="56" fill="white" transform="translate(56) rotate(90)"/>
</clipPath>
</defs>
</svg>
