<svg width="64" height="63" viewBox="0 0 64 63" fill="none" xmlns="http://www.w3.org/2000/svg">
<g clip-path="url(#clip0)">
<path d="M63.3914 24.7648C63.3914 18.3988 58.0876 13.2191 51.5683 13.2191C50.1187 13.2191 48.7347 13.4877 47.4502 13.9567C44.1253 10.0652 39.6292 7.43822 34.6632 6.39971V5.30655C34.6632 2.38066 32.2255 0 29.2288 0C26.2327 0 23.795 2.38066 23.795 5.30655V6.71012C14.0683 9.30806 6.88921 17.9913 6.88921 28.3027V45.9917H6.2853C3.28928 45.9917 0.851562 48.3724 0.851562 51.2989C0.851562 54.2248 3.28928 56.6055 6.2853 56.6055H22.8049C23.6223 60.0314 26.724 62.5018 30.4366 62.5018C34.1491 62.5018 37.2515 60.0314 38.0683 56.6055H53.38C56.3767 56.6055 58.8138 54.2248 58.8138 51.2989C58.8138 48.3724 56.3767 45.9917 53.38 45.9917H52.7761V36.2511C58.7302 35.658 63.3914 30.7333 63.3914 24.7648ZM60.9765 24.7648C60.9765 29.8311 56.7561 33.9521 51.5683 33.9521C46.3813 33.9521 42.1608 29.8311 42.1608 24.7648C42.1608 19.6985 46.3813 15.5775 51.5683 15.5775C56.7561 15.5775 60.9765 19.6985 60.9765 24.7648ZM26.2099 5.30655C26.2099 3.68098 27.5635 2.35839 29.2288 2.35839C30.894 2.35839 32.2476 3.68098 32.2476 5.30655V6.02318C31.4502 5.94153 30.6445 5.89632 29.8327 5.89632C28.5972 5.89632 27.3936 6.01913 26.2099 6.20335V5.30655ZM30.4366 60.1434C28.07 60.1434 26.0752 58.6859 25.329 56.6055H35.5442C34.7979 58.6859 32.8031 60.1434 30.4366 60.1434ZM53.38 48.3508C55.0452 48.3508 56.3988 49.6734 56.3988 51.2989C56.3988 52.9245 55.0452 54.2471 53.38 54.2471H6.2853C4.62008 54.2471 3.26648 52.9245 3.26648 51.2989C3.26648 49.6734 4.62008 48.3508 6.2853 48.3508H8.09701C8.76448 48.3508 9.30412 47.8224 9.30412 47.1712V28.3027C9.30412 17.2483 18.5133 8.25471 29.8327 8.25471C35.7528 8.25471 41.2978 10.7359 45.2011 15.0526C41.9252 17.1073 39.7452 20.6891 39.7452 24.7648C39.7452 30.7333 44.4072 35.658 50.3605 36.2511V47.1712C50.3605 47.8224 50.9008 48.3508 51.5683 48.3508H53.38Z" fill="white"/>
<path d="M48.3381 29.0988C48.647 29.0988 48.9566 28.9834 49.1922 28.7533L52.4231 25.5986C52.6498 25.3773 52.7769 25.077 52.7769 24.7646V20.257C52.7769 19.6058 52.2366 19.0781 51.5691 19.0781C50.9016 19.0781 50.362 19.6058 50.362 20.257V24.2767L47.4848 27.0859C47.0129 27.5461 47.0129 28.2931 47.4848 28.7533C47.7204 28.9841 48.0293 29.0988 48.3381 29.0988Z" fill="white"/>
<path d="M26.611 45.9922H14.1336C13.4661 45.9922 12.9258 46.5205 12.9258 47.1717C12.9258 47.8229 13.4661 48.3513 14.1336 48.3513H26.611C27.2785 48.3513 27.8188 47.8229 27.8188 47.1717C27.8188 46.5205 27.2785 45.9922 26.611 45.9922Z" fill="white"/>
</g>
<defs>
<clipPath id="clip0">
<rect width="64" height="62.502" fill="white"/>
</clipPath>
</defs>
</svg>
