<svg width="66" height="66" viewBox="0 0 66 66" fill="none" xmlns="http://www.w3.org/2000/svg">
<path d="M40.7 38.5H39.49C39.0349 38.5008 38.6277 38.2169 38.4714 37.7894C38.3372 37.4374 38.1931 37.0931 38.038 36.7521C37.8452 36.3374 37.9332 35.8464 38.258 35.5245L39.1204 34.661C40.4007 33.3695 40.3983 31.2866 39.1149 29.9981L36.0063 26.8895C34.7161 25.6069 32.6325 25.6069 31.3423 26.8895L30.4799 27.7508C30.1573 28.0743 29.6671 28.1622 29.2523 27.9708C28.9113 27.8157 28.567 27.6716 28.2139 27.5308C27.7842 27.3756 27.4984 26.9669 27.5 26.51V25.3C27.5 23.4774 26.0226 22 24.2 22H19.8C17.9774 22 16.5 23.4774 16.5 25.3V26.51C16.5008 26.9651 16.2169 27.3723 15.7894 27.5286C15.4374 27.6628 15.0931 27.8069 14.7521 27.962C14.3373 28.1538 13.8469 28.0659 13.5245 27.742L12.661 26.8796C11.371 25.5978 9.28813 25.5978 7.9981 26.8796L4.8895 29.9981C3.6069 31.2883 3.6069 33.3719 4.8895 34.6621L5.7508 35.5245C6.07558 35.8464 6.16358 36.3374 5.9708 36.7521C5.8157 37.0931 5.6716 37.4374 5.5363 37.7905C5.37886 38.2205 4.96788 38.5047 4.51 38.5H3.3C1.47744 38.5 0 39.9774 0 41.8V46.2C0 48.0226 1.47744 49.5 3.3 49.5H4.51C4.96513 49.4992 5.37226 49.7831 5.5286 50.2106C5.6628 50.5626 5.8069 50.9069 5.962 51.2479C6.15478 51.6626 6.06677 52.1536 5.742 52.4755L4.8796 53.339C3.59783 54.629 3.59783 56.7119 4.8796 58.0019L7.9882 61.1105C9.27836 62.3931 11.362 62.3931 12.6522 61.1105L13.5146 60.2492C13.8372 59.9257 14.3274 59.8378 14.7422 60.0292C15.0832 60.1843 15.4275 60.3284 15.7806 60.4692C16.2125 60.6227 16.5008 61.0317 16.5 61.49V62.7C16.5 64.5226 17.9774 66 19.8 66H24.2C26.0226 66 27.5 64.5226 27.5 62.7V61.49C27.4992 61.0349 27.7831 60.6277 28.2106 60.4714C28.5626 60.3372 28.9069 60.1931 29.2479 60.038C29.6627 59.8462 30.1531 59.934 30.4755 60.258L31.339 61.1204C32.6308 62.4001 34.7131 62.3976 36.0019 61.1149L39.1105 58.0063C40.3931 56.7161 40.3931 54.6325 39.1105 53.3423L38.2492 52.4799C37.9244 52.158 37.8364 51.667 38.0292 51.2523C38.1843 50.9113 38.3284 50.567 38.4692 50.2139C38.6244 49.7842 39.0331 49.4984 39.49 49.5H40.7C42.5226 49.5 44 48.0226 44 46.2V41.8C44 39.9774 42.5226 38.5 40.7 38.5ZM41.8 46.2C41.8 46.8075 41.3075 47.3 40.7 47.3H39.49C38.1226 47.3051 36.8988 48.1503 36.41 49.4274C36.2934 49.7354 36.1673 50.0386 36.0316 50.3371C35.4661 51.5856 35.7284 53.0536 36.6916 54.0287L37.5518 54.89C37.9816 55.3193 37.982 56.0159 37.5526 56.4457C37.5523 56.446 37.5521 56.4462 37.5518 56.4465L34.4432 59.5551C34.0137 59.9845 33.3174 59.9845 32.8878 59.5551L32.0254 58.6938C31.0507 57.7298 29.5822 57.4673 28.3338 58.0338C28.0357 58.1691 27.7321 58.2956 27.4263 58.4122C26.1502 58.9009 25.3055 60.1235 25.3 61.49V62.7C25.3 63.3075 24.8075 63.8 24.2 63.8H19.8C19.1925 63.8 18.7 63.3075 18.7 62.7V61.49C18.6949 60.1226 17.8497 58.8988 16.5726 58.41C16.2646 58.2934 15.9614 58.1673 15.6629 58.0316C14.4144 57.4663 12.9466 57.7288 11.9713 58.6916L11.11 59.5518C10.6807 59.9816 9.98415 59.982 9.55433 59.5526C9.55405 59.5523 9.55378 59.5521 9.5535 59.5518L6.4449 56.4465C6.01549 56.0169 6.01549 55.3207 6.4449 54.8911L7.3062 54.0287C8.26939 53.0536 8.53174 51.5856 7.9662 50.3371C7.8309 50.039 7.7044 49.7354 7.5878 49.4296C7.10022 48.1521 5.8773 47.3061 4.51 47.3H3.3C2.69252 47.3 2.2 46.8075 2.2 46.2V41.8C2.2 41.1925 2.69252 40.7 3.3 40.7H4.51C5.87744 40.6949 7.10119 39.8497 7.59 38.5726C7.7066 38.2646 7.83269 37.9614 7.9684 37.6629C8.53394 36.4144 8.27145 34.9464 7.3084 33.9713L6.4438 33.11C6.01398 32.6807 6.01356 31.9841 6.44298 31.5543C6.44325 31.554 6.44352 31.5538 6.4438 31.5535L9.5524 28.4449C9.98195 28.0155 10.6782 28.0155 11.1078 28.4449L11.9702 29.3062C12.9449 30.2702 14.4134 30.5327 15.6618 29.9662C15.9599 29.8309 16.2635 29.7044 16.5693 29.5878C17.8472 29.1006 18.6938 27.8776 18.7 26.51V25.3C18.7 24.6925 19.1925 24.2 19.8 24.2H24.2C24.8075 24.2 25.3 24.6925 25.3 25.3V26.51C25.3051 27.8774 26.1503 29.1012 27.4274 29.59C27.7354 29.7066 28.0386 29.8327 28.3371 29.9684C29.5855 30.5349 31.054 30.2724 32.0287 29.3084L32.89 28.4482C33.3212 28.0217 34.0153 28.0217 34.4465 28.4482L37.5551 31.5568C37.9845 31.9864 37.9845 32.6826 37.5551 33.1122L36.6938 33.9746C35.7308 34.9497 35.4683 36.4177 36.0338 37.6662C36.1691 37.9643 36.2956 38.2679 36.4122 38.5737C36.9009 39.8498 38.1235 40.6945 39.49 40.7H40.7C41.3075 40.7 41.8 41.1925 41.8 41.8V46.2Z" fill="black"/>
<path d="M31.8779 43.5596C31.8669 43.2956 31.8482 43.0327 31.8163 42.7709C31.7811 42.4893 31.7393 42.2099 31.681 41.936C31.6425 41.7567 31.5919 41.5796 31.5435 41.4014C31.4819 41.1748 31.4126 40.9515 31.3356 40.7315C31.2817 40.5786 31.2256 40.4268 31.1684 40.2761C31.0268 39.9238 30.8648 39.58 30.6833 39.2465C30.669 39.2212 30.6602 39.1937 30.6459 39.1684C30.3598 38.6591 30.0284 38.1764 29.6559 37.7263C29.624 37.6867 29.5877 37.6493 29.5547 37.6108C29.4029 37.4315 29.2467 37.2577 29.0828 37.0916C28.997 37.0025 28.9068 36.9189 28.8166 36.8331C28.7066 36.7308 28.5966 36.6296 28.4866 36.5328C28.3531 36.4169 28.2171 36.3047 28.0785 36.1962L27.8981 36.062C26.196 34.7871 24.1265 34.0985 21.9999 34.0996C21.8899 34.0996 21.7799 34.1161 21.6699 34.1205C21.4356 34.1271 21.2002 34.1403 20.9637 34.1645C20.8394 34.1777 20.714 34.192 20.5897 34.2096C20.2311 34.2568 19.8753 34.3233 19.5238 34.4087C14.2272 35.7774 11.043 41.1809 12.4117 46.4775C13.3137 49.9678 16.0406 52.6925 19.5315 53.5916C19.5491 53.5916 19.5678 53.5971 19.5865 53.6015C19.9665 53.6963 20.3513 53.7698 20.7393 53.8215C20.9956 53.8534 21.2519 53.86 21.5093 53.8721C21.6809 53.8809 21.8393 53.9062 22.0186 53.9062C22.3321 53.9062 22.6577 53.8853 22.9899 53.8523C23.0251 53.8523 23.0603 53.8424 23.0999 53.838C23.3672 53.8083 23.6378 53.7687 23.9139 53.7137C24.0239 53.6928 24.1262 53.6653 24.2318 53.6411C24.4254 53.596 24.6179 53.5487 24.8159 53.4904C24.9699 53.4442 25.1195 53.3903 25.2702 53.3375C25.4209 53.2847 25.5771 53.2275 25.7333 53.1681C25.8895 53.1087 26.0204 53.0405 26.1623 52.9745C26.3471 52.8898 26.5308 52.8062 26.7123 52.7072H26.7189C27.7455 52.1576 28.6937 51.4729 29.5382 50.6711C29.7664 50.4583 29.9648 50.2154 30.1278 49.9495C30.9864 48.5731 31.5504 47.0338 31.7844 45.4285C31.8152 45.2162 31.8427 45.0039 31.8592 44.7872C31.8746 44.5881 31.8856 44.3901 31.89 44.1921C31.89 44.1294 31.8988 44.07 31.8988 44.0073C31.8999 43.8522 31.8845 43.7092 31.8779 43.5596ZM29.6856 44.2801C29.6856 44.3714 29.6779 44.4627 29.6724 44.5529C29.6526 44.8191 29.6185 45.0853 29.5734 45.3526C29.1623 47.6397 27.7424 49.6197 25.708 50.7426C25.5716 50.8141 25.4374 50.8812 25.3032 50.9428L25.2119 50.9868C24.5728 51.2769 23.8983 51.4811 23.2055 51.594C23.1571 51.6017 23.1076 51.6105 23.0581 51.6171C22.9206 51.6369 22.7853 51.6534 22.6511 51.6655C22.474 51.6809 22.2958 51.6897 22.1143 51.693C22.0373 51.693 21.9614 51.693 21.8844 51.693C21.6242 51.69 21.3643 51.6739 21.1056 51.6446L20.9736 51.6292C20.6711 51.5896 20.3711 51.5331 20.0749 51.4598C15.9552 50.4053 13.4703 46.2108 14.5246 42.091C15.2213 39.3687 17.3457 37.2422 20.0672 36.5427V36.5416C20.6992 36.3823 21.3482 36.3008 21.9999 36.2996C22.3144 36.3014 22.6286 36.3227 22.9404 36.3634C23.024 36.3733 23.1065 36.3887 23.189 36.4008C23.4266 36.4382 23.662 36.4855 23.8941 36.5449C23.97 36.5647 24.0459 36.5823 24.1207 36.6032C24.7057 36.7721 25.2687 37.0091 25.7982 37.3094C25.8829 37.3589 25.9654 37.4106 26.049 37.4623C26.2228 37.5723 26.3911 37.6823 26.5572 37.8077C26.6463 37.8726 26.7365 37.9364 26.8223 38.0057C27.0382 38.1781 27.2449 38.3617 27.4416 38.5557C27.5197 38.6349 27.5912 38.7218 27.6671 38.8043C27.7936 38.9418 27.9168 39.0826 28.0345 39.2311C28.1159 39.3334 28.194 39.439 28.271 39.5457C28.381 39.7041 28.491 39.8691 28.59 40.0363C28.645 40.1276 28.7 40.2167 28.7561 40.3102C28.898 40.5713 29.0244 40.8406 29.1345 41.1165C29.1785 41.2265 29.2159 41.3365 29.2555 41.4465C29.327 41.6489 29.3886 41.8535 29.4425 42.0603C29.47 42.1703 29.5008 42.2682 29.5239 42.3749C29.5882 42.6722 29.6348 42.973 29.6636 43.2758C29.6702 43.3561 29.6702 43.4375 29.6757 43.5178C29.6911 43.7708 29.6955 44.0249 29.6856 44.2801Z" fill="black"/>
<path d="M62.7001 23.1H59.2406C58.7793 23.1047 58.3667 22.8141 58.2154 22.3784C57.8743 21.3566 57.4615 20.36 56.9801 19.3963C56.7758 18.9801 56.8609 18.4797 57.1913 18.1544L59.6443 15.6981C60.9319 14.4096 60.9319 12.3215 59.6443 11.033L54.9671 6.3635C53.6786 5.07595 51.5905 5.07595 50.302 6.3635L47.8501 8.8143C47.5252 9.14458 47.0255 9.2301 46.6093 9.0266C45.6454 8.54274 44.6486 8.12776 43.6261 7.7847C43.1886 7.63496 42.896 7.22191 42.9001 6.7595V3.3C42.9001 1.47744 41.4227 0 39.6001 0H33.0001C31.1775 0 29.7001 1.47744 29.7001 3.3V6.7595C29.7048 7.22081 29.4144 7.63345 28.9785 7.7847C27.9566 8.12763 26.96 8.54233 25.9964 9.0255C25.5802 9.23051 25.0796 9.1454 24.7545 8.8143L22.2982 6.3613C21.0082 5.07746 18.9231 5.07746 17.6331 6.3613L12.9647 11.0297C11.6765 12.3184 11.6765 14.4073 12.9647 15.6959L16.5716 19.3094C17.0079 19.7321 17.7043 19.7211 18.127 19.2847C18.5394 18.8589 18.5403 18.183 18.1292 17.7562L14.5201 14.1438C14.0907 13.7142 14.0907 13.018 14.5201 12.5884L19.1885 7.92C19.6181 7.49059 20.3144 7.49059 20.7439 7.92L23.2013 10.373C24.1956 11.3732 25.7191 11.6232 26.9809 10.9934C27.8522 10.5571 28.7532 10.1826 29.677 9.8725C31.0105 9.42109 31.9059 8.16736 31.9001 6.7595V3.3C31.9001 2.69252 32.3926 2.2 33.0001 2.2H39.6001C40.2076 2.2 40.7001 2.69252 40.7001 3.3V6.7595C40.6945 8.16709 41.5899 9.4204 42.9232 9.8714C43.8475 10.1816 44.7488 10.5564 45.6204 10.9934C46.8825 11.6199 48.404 11.3696 49.3989 10.3719L51.8563 7.92C52.2859 7.49059 52.9822 7.49059 53.4117 7.92L58.0801 12.5895C58.5088 13.0189 58.5088 13.7144 58.0801 14.1438L55.6271 16.6012C54.6279 17.596 54.3781 19.1188 55.0067 20.3808C55.443 21.2521 55.8175 22.153 56.1276 23.0769C56.5787 24.4107 57.8326 25.3061 59.2406 25.3H62.7001C63.3076 25.3 63.8001 25.7925 63.8001 26.4V33C63.8001 33.6075 63.3076 34.1 62.7001 34.1H59.2406C57.833 34.0944 56.5797 34.9898 56.1287 36.3231C55.8186 37.2474 55.4437 38.1487 55.0067 39.0203C54.3792 40.2823 54.6295 41.8043 55.6282 42.7988L58.0812 45.2562C58.5106 45.6857 58.5106 46.382 58.0812 46.8116L53.4106 51.48C52.9812 51.9087 52.2857 51.9087 51.8563 51.48L48.2417 47.8731C47.819 47.4367 47.1226 47.4257 46.6863 47.8484C46.2499 48.271 46.2389 48.9675 46.6616 49.4037C46.6704 49.4128 46.6794 49.4219 46.6885 49.4307L50.302 53.0376C51.5905 54.3251 53.6786 54.3251 54.9671 53.0376L59.6355 48.3703C60.9237 47.0816 60.9237 44.9927 59.6355 43.7041L57.1858 41.25C56.8558 40.9249 56.7704 40.4254 56.9735 40.0092C57.4574 39.0453 57.8723 38.0485 58.2154 37.026C58.3651 36.5885 58.7782 36.2959 59.2406 36.3H62.7001C64.5227 36.3 66.0001 34.8226 66.0001 33V26.4C66.0001 24.5774 64.5227 23.1 62.7001 23.1Z" fill="black"/>
<path d="M46.411 19.5893C40.8233 14.0132 31.7763 14.0132 26.1886 19.5893C25.7666 20.0262 25.7787 20.7227 26.2157 21.1447C26.642 21.5563 27.3178 21.5563 27.744 21.1447C32.4376 16.3877 40.0987 16.3364 44.8556 21.03C49.6126 25.7235 49.6639 33.3846 44.9703 38.1416C44.9324 38.1801 44.8941 38.2183 44.8556 38.2563C44.4187 38.6784 44.4066 39.3747 44.8287 39.8117C45.2508 40.2486 45.9471 40.2607 46.3841 39.8386C46.3932 39.8298 46.4022 39.8207 46.411 39.8117C51.9871 34.2239 51.9871 25.177 46.411 19.5893Z" fill="black"/>
</svg>
