<svg width="66" height="66" viewBox="0 0 66 66" fill="none" xmlns="http://www.w3.org/2000/svg">
<path d="M54.6562 58.7812C56.9344 58.7812 58.7812 56.9344 58.7812 54.6562C58.7812 52.3781 56.9344 50.5312 54.6562 50.5312C52.3781 50.5312 50.5312 52.3781 50.5312 54.6562C50.5312 56.9344 52.3781 58.7812 54.6562 58.7812Z" fill="black"/>
<path d="M37.2034 31.3325C37.0435 30.9468 37.1322 30.5033 37.4272 30.2084L48.4688 19.1668V17.5312V6.1875H46.4062V17.5312C46.4062 17.8045 46.298 18.0675 46.1041 18.2603L35.7916 28.5728C35.4967 28.8688 35.0542 28.9554 34.6675 28.7966C34.2818 28.6368 34.0312 28.2604 34.0312 27.8438V15.4688C34.0312 15.1955 34.1395 14.9325 34.3334 14.7397L41.25 7.82306V4.55194L35.7916 10.0103C35.4967 10.3053 35.0542 10.3929 34.6675 10.2341C34.2818 10.0743 34.0312 9.69788 34.0312 9.28125V2.0625H31.9688V9.28125C31.9688 9.69788 31.7182 10.0743 31.3325 10.2341C30.9478 10.394 30.5044 10.3063 30.2084 10.0103L24.75 4.55194V7.82306L31.6666 14.7397C31.8605 14.9325 31.9688 15.1955 31.9688 15.4688V27.8438C31.9688 28.2604 31.7182 28.6368 31.3325 28.7966C30.9478 28.9565 30.5044 28.8688 30.2084 28.5728L19.8959 18.2603C19.702 18.0675 19.5938 17.8045 19.5938 17.5312V6.1875H17.5312V13.4062C17.5312 13.8229 17.2807 14.1993 16.895 14.3591C16.5093 14.519 16.0669 14.4303 15.7709 14.1353L11.3438 9.70819L9.70819 11.3438L14.1353 15.7709C14.4303 16.0658 14.519 16.5093 14.3591 16.895C14.2003 17.2796 13.8229 17.5312 13.4062 17.5312H6.1875V19.5938H17.5312C17.8056 19.5938 18.0675 19.702 18.2603 19.8959L28.5728 30.2084C28.8678 30.5033 28.9565 30.9468 28.7966 31.3325C28.6378 31.7171 28.2604 31.9688 27.8438 31.9688H15.4688C15.1944 31.9688 14.9325 31.8605 14.7397 31.6666L7.82306 24.75H4.55194L10.0103 30.2084C10.3053 30.5033 10.394 30.9468 10.2341 31.3325C10.0753 31.7171 9.69788 31.9688 9.28125 31.9688H2.0625V34.0312H9.28125C9.69788 34.0312 10.0753 34.2829 10.2341 34.6675C10.394 35.0532 10.3053 35.4967 10.0103 35.7916L4.55194 41.25H7.82306L14.7397 34.3334C14.9325 34.1395 15.1944 34.0312 15.4688 34.0312H27.8438C28.2604 34.0312 28.6378 34.2829 28.7966 34.6675C28.9565 35.0532 28.8678 35.4967 28.5728 35.7916L18.2603 46.1041C18.0675 46.298 17.8056 46.4062 17.5312 46.4062H6.1875V48.4688H13.4062C13.8229 48.4688 14.2003 48.7204 14.3591 49.105C14.519 49.4907 14.4303 49.9342 14.1353 50.2291L9.70819 54.6562L11.3438 56.2918L15.7709 51.8647C16.0658 51.5697 16.5093 51.481 16.895 51.6409C17.2807 51.8007 17.5312 52.1771 17.5312 52.5938V59.8125H19.5938V48.4688C19.5938 48.1955 19.702 47.9325 19.8959 47.7397L30.2084 37.4272C30.5044 37.1322 30.9478 37.0446 31.3325 37.2034C31.7182 37.3632 31.9688 37.7396 31.9688 38.1562V50.5312C31.9688 50.8045 31.8605 51.0675 31.6666 51.2603L24.75 58.1769V61.4481L30.2084 55.9897C30.5044 55.6937 30.9478 55.606 31.3325 55.7659C31.7182 55.9257 31.9688 56.3021 31.9688 56.7188V63.9375H34.0312V56.7188C34.0312 56.3021 34.2818 55.9257 34.6675 55.7659C35.0542 55.6071 35.4967 55.6947 35.7916 55.9897L41.25 61.4481V58.1769L34.3334 51.2603C34.1395 51.0675 34.0312 50.8045 34.0312 50.5312V38.1562C34.0312 37.7396 34.2818 37.3632 34.6675 37.2034C35.0542 37.0456 35.4967 37.1322 35.7916 37.4272L43.3125 44.9481L44.9481 43.3125L37.4272 35.7916C37.1322 35.4967 37.0435 35.0532 37.2034 34.6675C37.3622 34.2829 37.7396 34.0312 38.1562 34.0312H45.375V31.9688H38.1562C37.7396 31.9688 37.3622 31.7171 37.2034 31.3325Z" fill="black"/>
<path d="M59.2381 47.7974C58.9524 47.6056 58.7812 47.2838 58.7812 46.9404V17.5312C58.7812 15.2563 56.9312 13.4062 54.6562 13.4062C52.3813 13.4062 50.5312 15.2563 50.5312 17.5312V19.5938V46.9404C50.5312 47.2838 50.3601 47.6056 50.0744 47.7974C47.7768 49.335 46.4062 51.8987 46.4062 54.6562C46.4062 59.2051 50.1074 62.9062 54.6562 62.9062C59.2051 62.9062 62.9062 59.2051 62.9062 54.6562C62.9062 51.8987 61.5357 49.335 59.2381 47.7974ZM54.6562 60.8438C51.2438 60.8438 48.4688 58.0687 48.4688 54.6562C48.4688 51.5965 50.7035 49.0555 53.625 48.5616V17.5312H55.6875V48.5616C58.609 49.0545 60.8438 51.5955 60.8438 54.6562C60.8438 58.0687 58.0687 60.8438 54.6562 60.8438Z" fill="black"/>
</svg>
