<svg width="62" height="62" viewBox="0 0 62 62" fill="none" xmlns="http://www.w3.org/2000/svg">
<path d="M56.7812 6.25H51.625V4.1875C51.625 3.09348 51.1904 2.04427 50.4168 1.27068C49.6432 0.497097 48.594 0.0625 47.5 0.0625C46.406 0.0625 45.3568 0.497097 44.5832 1.27068C43.8096 2.04427 43.375 3.09348 43.375 4.1875V6.25H35.125V4.1875C35.125 3.09348 34.6904 2.04427 33.9168 1.27068C33.1432 0.497097 32.094 0.0625 31 0.0625C29.906 0.0625 28.8568 0.497097 28.0832 1.27068C27.3096 2.04427 26.875 3.09348 26.875 4.1875V6.25H18.625V4.1875C18.625 3.09348 18.1904 2.04427 17.4168 1.27068C16.6432 0.497097 15.594 0.0625 14.5 0.0625C13.406 0.0625 12.3568 0.497097 11.5832 1.27068C10.8096 2.04427 10.375 3.09348 10.375 4.1875V6.25H5.21875C3.85123 6.25 2.53972 6.79325 1.57273 7.76023C0.605746 8.72721 0.0625 10.0387 0.0625 11.4062V52.6562C0.0625 54.0238 0.605746 55.3353 1.57273 56.3023C2.53972 57.2693 3.85123 57.8125 5.21875 57.8125H34.0938C34.3673 57.8125 34.6296 57.7038 34.823 57.5105C35.0163 57.3171 35.125 57.0548 35.125 56.7812C35.125 56.5077 35.0163 56.2454 34.823 56.052C34.6296 55.8587 34.3673 55.75 34.0938 55.75H5.21875C4.39899 55.7476 3.6135 55.4208 3.03384 54.8412C2.45418 54.2615 2.12745 53.476 2.125 52.6562V20.6875H59.875V38.2188C59.875 38.4923 59.9837 38.7546 60.177 38.948C60.3704 39.1413 60.6327 39.25 60.9062 39.25C61.1798 39.25 61.4421 39.1413 61.6355 38.948C61.8288 38.7546 61.9375 38.4923 61.9375 38.2188V11.4062C61.9375 10.0387 61.3943 8.72721 60.4273 7.76023C59.4603 6.79325 58.1488 6.25 56.7812 6.25ZM45.4375 4.1875C45.4375 3.64049 45.6548 3.11589 46.0416 2.72909C46.4284 2.3423 46.953 2.125 47.5 2.125C48.047 2.125 48.5716 2.3423 48.9584 2.72909C49.3452 3.11589 49.5625 3.64049 49.5625 4.1875V10.375C49.5625 10.922 49.3452 11.4466 48.9584 11.8334C48.5716 12.2202 48.047 12.4375 47.5 12.4375C46.953 12.4375 46.4284 12.2202 46.0416 11.8334C45.6548 11.4466 45.4375 10.922 45.4375 10.375V4.1875ZM28.9375 4.1875C28.9375 3.64049 29.1548 3.11589 29.5416 2.72909C29.9284 2.3423 30.453 2.125 31 2.125C31.547 2.125 32.0716 2.3423 32.4584 2.72909C32.8452 3.11589 33.0625 3.64049 33.0625 4.1875V10.375C33.0625 10.922 32.8452 11.4466 32.4584 11.8334C32.0716 12.2202 31.547 12.4375 31 12.4375C30.453 12.4375 29.9284 12.2202 29.5416 11.8334C29.1548 11.4466 28.9375 10.922 28.9375 10.375V4.1875ZM12.4375 4.1875C12.4375 3.64049 12.6548 3.11589 13.0416 2.72909C13.4284 2.3423 13.953 2.125 14.5 2.125C15.047 2.125 15.5716 2.3423 15.9584 2.72909C16.3452 3.11589 16.5625 3.64049 16.5625 4.1875V10.375C16.5625 10.922 16.3452 11.4466 15.9584 11.8334C15.5716 12.2202 15.047 12.4375 14.5 12.4375C13.953 12.4375 13.4284 12.2202 13.0416 11.8334C12.6548 11.4466 12.4375 10.922 12.4375 10.375V4.1875ZM59.875 18.625H2.125V11.4062C2.12745 10.5865 2.45418 9.801 3.03384 9.22134C3.6135 8.64168 4.39899 8.31495 5.21875 8.3125H10.375V10.375C10.375 11.469 10.8096 12.5182 11.5832 13.2918C12.3568 14.0654 13.406 14.5 14.5 14.5C15.594 14.5 16.6432 14.0654 17.4168 13.2918C18.1904 12.5182 18.625 11.469 18.625 10.375V8.3125H26.875V10.375C26.875 11.469 27.3096 12.5182 28.0832 13.2918C28.8568 14.0654 29.906 14.5 31 14.5C32.094 14.5 33.1432 14.0654 33.9168 13.2918C34.6904 12.5182 35.125 11.469 35.125 10.375V8.3125H43.375V10.375C43.375 11.469 43.8096 12.5182 44.5832 13.2918C45.3568 14.0654 46.406 14.5 47.5 14.5C48.594 14.5 49.6432 14.0654 50.4168 13.2918C51.1904 12.5182 51.625 11.469 51.625 10.375V8.3125H56.7812C57.601 8.31495 58.3865 8.64168 58.9662 9.22134C59.5458 9.801 59.8726 10.5865 59.875 11.4062V18.625Z" fill="black"/>
<path d="M28.9375 27.9062C28.9375 27.3592 28.7202 26.8346 28.3334 26.4478C27.9466 26.061 27.422 25.8438 26.875 25.8438H22.75C22.203 25.8438 21.6784 26.061 21.2916 26.4478C20.9048 26.8346 20.6875 27.3592 20.6875 27.9062V31C20.6875 31.547 20.9048 32.0716 21.2916 32.4584C21.6784 32.8452 22.203 33.0625 22.75 33.0625H26.875C27.422 33.0625 27.9466 32.8452 28.3334 32.4584C28.7202 32.0716 28.9375 31.547 28.9375 31V27.9062ZM22.75 31V27.9062H26.875V31H22.75Z" fill="black"/>
<path d="M16.5625 27.9062C16.5625 27.3592 16.3452 26.8346 15.9584 26.4478C15.5716 26.061 15.047 25.8438 14.5 25.8438H10.375C9.82799 25.8438 9.30339 26.061 8.91659 26.4478C8.5298 26.8346 8.3125 27.3592 8.3125 27.9062V31C8.3125 31.547 8.5298 32.0716 8.91659 32.4584C9.30339 32.8452 9.82799 33.0625 10.375 33.0625H14.5C15.047 33.0625 15.5716 32.8452 15.9584 32.4584C16.3452 32.0716 16.5625 31.547 16.5625 31V27.9062ZM10.375 31V27.9062H14.5V31H10.375Z" fill="black"/>
<path d="M51.625 33.0625C52.172 33.0625 52.6966 32.8452 53.0834 32.4584C53.4702 32.0716 53.6875 31.547 53.6875 31V27.9062C53.6875 27.3592 53.4702 26.8346 53.0834 26.4478C52.6966 26.061 52.172 25.8438 51.625 25.8438H47.5C46.953 25.8438 46.4284 26.061 46.0416 26.4478C45.6548 26.8346 45.4375 27.3592 45.4375 27.9062V31C45.4375 31.547 45.6548 32.0716 46.0416 32.4584C46.4284 32.8452 46.953 33.0625 47.5 33.0625H51.625ZM47.5 27.9062H51.625V31H47.5V27.9062Z" fill="black"/>
<path d="M28.9375 37.1875C28.9375 36.6405 28.7202 36.1159 28.3334 35.7291C27.9466 35.3423 27.422 35.125 26.875 35.125H22.75C22.203 35.125 21.6784 35.3423 21.2916 35.7291C20.9048 36.1159 20.6875 36.6405 20.6875 37.1875V40.2812C20.6875 40.8283 20.9048 41.3529 21.2916 41.7397C21.6784 42.1265 22.203 42.3438 22.75 42.3438H26.875C27.422 42.3438 27.9466 42.1265 28.3334 41.7397C28.7202 41.3529 28.9375 40.8283 28.9375 40.2812V37.1875ZM22.75 40.2812V37.1875H26.875V40.2812H22.75Z" fill="black"/>
<path d="M16.5625 37.1875C16.5625 36.6405 16.3452 36.1159 15.9584 35.7291C15.5716 35.3423 15.047 35.125 14.5 35.125H10.375C9.82799 35.125 9.30339 35.3423 8.91659 35.7291C8.5298 36.1159 8.3125 36.6405 8.3125 37.1875V40.2812C8.3125 40.8283 8.5298 41.3529 8.91659 41.7397C9.30339 42.1265 9.82799 42.3438 10.375 42.3438H14.5C15.047 42.3438 15.5716 42.1265 15.9584 41.7397C16.3452 41.3529 16.5625 40.8283 16.5625 40.2812V37.1875ZM10.375 40.2812V37.1875H14.5V40.2812H10.375Z" fill="black"/>
<path d="M26.875 44.4062H22.75C22.203 44.4062 21.6784 44.6235 21.2916 45.0103C20.9048 45.3971 20.6875 45.9217 20.6875 46.4688V49.5625C20.6875 50.1095 20.9048 50.6341 21.2916 51.0209C21.6784 51.4077 22.203 51.625 22.75 51.625H26.875C27.422 51.625 27.9466 51.4077 28.3334 51.0209C28.7202 50.6341 28.9375 50.1095 28.9375 49.5625V46.4688C28.9375 45.9217 28.7202 45.3971 28.3334 45.0103C27.9466 44.6235 27.422 44.4062 26.875 44.4062ZM22.75 49.5625V46.4688H26.875V49.5625H22.75Z" fill="black"/>
<path d="M35.125 33.0625H39.25C39.797 33.0625 40.3216 32.8452 40.7084 32.4584C41.0952 32.0716 41.3125 31.547 41.3125 31V27.9062C41.3125 27.3592 41.0952 26.8346 40.7084 26.4478C40.3216 26.061 39.797 25.8438 39.25 25.8438H35.125C34.578 25.8438 34.0534 26.061 33.6666 26.4478C33.2798 26.8346 33.0625 27.3592 33.0625 27.9062V31C33.0625 31.547 33.2798 32.0716 33.6666 32.4584C34.0534 32.8452 34.578 33.0625 35.125 33.0625ZM35.125 27.9062H39.25V31H35.125V27.9062Z" fill="black"/>
<path d="M33.0625 40.2812C33.0625 40.8283 33.2798 41.3529 33.6666 41.7397C34.0534 42.1265 34.578 42.3438 35.125 42.3438C35.3985 42.3438 35.6608 42.2351 35.8542 42.0417C36.0476 41.8483 36.1562 41.586 36.1562 41.3125C36.1562 41.039 36.0476 40.7767 35.8542 40.5833C35.6608 40.3899 35.3985 40.2812 35.125 40.2812V37.1875H39.25C39.5235 37.1875 39.7858 37.0789 39.9792 36.8855C40.1726 36.6921 40.2812 36.4298 40.2812 36.1562C40.2812 35.8827 40.1726 35.6204 39.9792 35.427C39.7858 35.2336 39.5235 35.125 39.25 35.125H35.125C34.578 35.125 34.0534 35.3423 33.6666 35.7291C33.2798 36.1159 33.0625 36.6405 33.0625 37.1875V40.2812Z" fill="black"/>
<path d="M14.5 44.4062H10.375C9.82799 44.4062 9.30339 44.6235 8.91659 45.0103C8.5298 45.3971 8.3125 45.9217 8.3125 46.4688V49.5625C8.3125 50.1095 8.5298 50.6341 8.91659 51.0209C9.30339 51.4077 9.82799 51.625 10.375 51.625H14.5C15.047 51.625 15.5716 51.4077 15.9584 51.0209C16.3452 50.6341 16.5625 50.1095 16.5625 49.5625V46.4688C16.5625 45.9217 16.3452 45.3971 15.9584 45.0103C15.5716 44.6235 15.047 44.4062 14.5 44.4062ZM10.375 49.5625V46.4688H14.5V49.5625H10.375Z" fill="black"/>
<path d="M48.5313 35.125C45.8797 35.125 43.2878 35.9113 41.0831 37.3844C38.8785 38.8575 37.1602 40.9512 36.1455 43.4009C35.1308 45.8506 34.8653 48.5461 35.3826 51.1467C35.8999 53.7472 37.1767 56.136 39.0516 58.0109C40.9265 59.8858 43.3153 61.1626 45.9158 61.6799C48.5164 62.1972 51.2119 61.9317 53.6616 60.917C56.1113 59.9023 58.205 58.184 59.6781 55.9794C61.1512 53.7747 61.9375 51.1828 61.9375 48.5313C61.9334 44.9769 60.5196 41.5694 58.0064 39.0561C55.4931 36.5428 52.0856 35.1291 48.5313 35.125ZM48.5313 59.875C46.2877 59.875 44.0945 59.2097 42.229 57.9632C40.3635 56.7168 38.9096 54.9451 38.051 52.8723C37.1924 50.7995 36.9678 48.5187 37.4055 46.3182C37.8432 44.1177 38.9236 42.0965 40.51 40.51C42.0965 38.9236 44.1177 37.8432 46.3182 37.4055C48.5187 36.9678 50.7995 37.1924 52.8723 38.051C54.9451 38.9096 56.7168 40.3635 57.9632 42.229C59.2097 44.0945 59.875 46.2877 59.875 48.5313C59.8714 51.5387 58.6752 54.422 56.5486 56.5486C54.422 58.6752 51.5387 59.8715 48.5313 59.875Z" fill="black"/>
<path d="M54.4896 44.2075L46.4686 52.2285L42.8231 48.582C42.6286 48.3942 42.3681 48.2902 42.0977 48.2926C41.8273 48.2949 41.5687 48.4034 41.3775 48.5946C41.1863 48.7858 41.0778 49.0444 41.0755 49.3148C41.0731 49.5852 41.1771 49.8457 41.3649 50.0402L45.7395 54.4158C45.9329 54.6091 46.1951 54.7177 46.4686 54.7177C46.742 54.7177 47.0043 54.6091 47.1977 54.4158L55.9478 45.6656C56.1357 45.4711 56.2396 45.2107 56.2373 44.9403C56.2349 44.6699 56.1265 44.4112 55.9353 44.22C55.7441 44.0288 55.4854 43.9204 55.215 43.918C54.9446 43.9157 54.6841 44.0196 54.4896 44.2075Z" fill="black"/>
</svg>
