<svg width="66" height="66" viewBox="0 0 66 66" fill="none" xmlns="http://www.w3.org/2000/svg">
<path d="M46.1823 17.5472C45.8536 27.0372 41.1688 35.846 33.4839 41.4237C25.799 47.0014 15.972 48.7254 6.84743 46.0966C5.97574 45.8411 5.03629 46.1416 4.47473 46.8556C3.92326 47.5482 3.84961 48.5069 4.28883 49.2756C10.1387 59.6275 21.1161 66.0205 33.0065 66C33.3783 66 33.7523 65.9934 34.1252 65.9813C49.289 65.464 62.146 54.6736 65.2858 39.8295C68.4257 24.9854 61.0391 9.91308 47.3835 3.29997C46.588 2.91193 45.6362 3.0479 44.9811 3.64317C44.3086 4.24771 44.0705 5.20006 44.3794 6.04997C45.7094 9.73199 46.3215 13.6348 46.1823 17.5472ZM63.7504 34.7776C62.7508 50.6305 49.9225 63.1585 34.0504 63.7824C22.5964 64.2006 11.8662 58.193 6.23583 48.2097C16.0127 51.0268 26.5423 49.1797 34.7765 43.2029C43.0107 37.2262 48.03 27.7873 48.3812 17.6187C48.5292 13.4178 47.8632 9.22793 46.4199 5.27997C57.6358 10.6973 64.478 22.3433 63.7504 34.7776Z" fill="black"/>
<path d="M58.8608 27.7206C59.9192 33.0492 59.3721 38.5719 57.289 43.5892C57.0599 44.1521 57.3305 44.7941 57.8934 45.0231C58.4563 45.2521 59.0982 44.9815 59.3272 44.4186C61.5742 38.9991 62.1622 33.0346 61.0168 27.2806C60.9382 26.8955 60.6601 26.5816 60.2873 26.4571C59.9145 26.3326 59.5036 26.4164 59.2093 26.6771C58.9151 26.9377 58.7822 27.3355 58.8608 27.7206Z" fill="black"/>
<path d="M57.2052 22.4395C57.4572 22.9833 58.0981 23.2252 58.6466 22.9837C59.1951 22.7421 59.4492 22.1059 59.2182 21.5529C58.672 20.3043 58.0372 19.0963 57.3185 17.9383C57.1106 17.6043 56.7403 17.4065 56.3471 17.4196C55.9538 17.4326 55.5974 17.6544 55.4121 18.0015C55.2267 18.3485 55.2406 18.7681 55.4485 19.1021C56.1129 20.1713 56.6999 21.2866 57.2052 22.4395Z" fill="black"/>
<path d="M20.8998 32.9998C27.5824 32.9998 32.9998 27.5824 32.9998 20.8998C32.9998 14.2172 27.5824 8.7998 20.8998 8.7998C14.2172 8.7998 8.7998 14.2172 8.7998 20.8998C8.80768 27.5792 14.2204 32.9919 20.8998 32.9998ZM20.8998 10.9998C26.3674 10.9998 30.7998 15.4322 30.7998 20.8998C30.7998 26.3674 26.3674 30.7998 20.8998 30.7998C15.4322 30.7998 10.9998 26.3674 10.9998 20.8998C11.0065 15.4349 15.4349 11.0065 20.8998 10.9998Z" fill="black"/>
<path d="M14.3002 22.0002C14.9077 22.0002 15.4002 21.5077 15.4002 20.9002C15.4038 17.8641 17.8641 15.4038 20.9002 15.4002C21.5077 15.4002 22.0002 14.9077 22.0002 14.3002C22.0002 13.6927 21.5077 13.2002 20.9002 13.2002C16.6496 13.205 13.205 16.6496 13.2002 20.9002C13.2002 21.5077 13.6927 22.0002 14.3002 22.0002Z" fill="black"/>
<path d="M20.8998 6.6C21.5073 6.6 21.9998 6.10751 21.9998 5.5V1.1C21.9998 0.492487 21.5073 0 20.8998 0C20.2923 0 19.7998 0.492487 19.7998 1.1V5.5C19.7998 6.10751 20.2923 6.6 20.8998 6.6Z" fill="black"/>
<path d="M21.9998 40.7002V36.3002C21.9998 35.6927 21.5073 35.2002 20.8998 35.2002C20.2923 35.2002 19.7998 35.6927 19.7998 36.3002V40.7002C19.7998 41.3077 20.2923 41.8002 20.8998 41.8002C21.5073 41.8002 21.9998 41.3077 21.9998 40.7002Z" fill="black"/>
<path d="M35.1997 20.8998C35.1997 21.5073 35.6922 21.9998 36.2997 21.9998H40.6997C41.3072 21.9998 41.7997 21.5073 41.7997 20.8998C41.7997 20.2923 41.3072 19.7998 40.6997 19.7998H36.2997C35.6922 19.7998 35.1997 20.2923 35.1997 20.8998Z" fill="black"/>
<path d="M1.1 21.9998H5.5C6.10751 21.9998 6.6 21.5073 6.6 20.8998C6.6 20.2923 6.10751 19.7998 5.5 19.7998H1.1C0.492487 19.7998 0 20.2923 0 20.8998C0 21.5073 0.492487 21.9998 1.1 21.9998Z" fill="black"/>
<path d="M9.23318 10.7886C9.6648 11.2054 10.3509 11.1995 10.7752 10.7752C11.1995 10.3509 11.2055 9.6648 10.7886 9.23318L7.67668 6.12128C7.24507 5.70441 6.55899 5.71038 6.13468 6.13468C5.71038 6.55899 5.70441 7.24507 6.12128 7.67668L9.23318 10.7886Z" fill="black"/>
<path d="M34.901 36.0005C35.3458 36.0004 35.7468 35.7324 35.9171 35.3214C36.0873 34.9105 35.9932 34.4374 35.6787 34.1228L32.5668 31.0109C32.1352 30.5941 31.4491 30.6 31.0248 31.0243C30.6005 31.4486 30.5946 32.1347 31.0114 32.5663L34.1233 35.6782C34.3296 35.8845 34.6093 36.0005 34.901 36.0005Z" fill="black"/>
<path d="M31.7902 11.1096C32.0819 11.1096 32.3617 10.9936 32.5679 10.7873L35.6798 7.67542C35.9658 7.39924 36.0805 6.99026 35.9798 6.60567C35.8791 6.22107 35.5788 5.92072 35.1942 5.82006C34.8096 5.71939 34.4006 5.83407 34.1244 6.12002L31.0114 9.23302C30.6976 9.54786 30.6041 10.0207 30.7745 10.4313C30.9449 10.8419 31.3457 11.1095 31.7902 11.1096Z" fill="black"/>
<path d="M7.67689 35.6782L10.7888 32.5663C11.2057 32.1347 11.1997 31.4486 10.7754 31.0243C10.3511 30.6 9.66501 30.5941 9.23339 31.0109L6.12149 34.1228C5.83554 34.399 5.72085 34.808 5.82152 35.1926C5.92219 35.5772 6.22254 35.8775 6.60713 35.9782C6.99172 36.0789 7.40071 35.9642 7.67689 35.6782Z" fill="black"/>
</svg>
