<svg width="50" height="50" viewBox="0 0 50 50" fill="none" xmlns="http://www.w3.org/2000/svg">
<path d="M38.4475 20.0126C35.9854 17.4242 32.7026 15.5934 29.041 14.8359V12.5631C29.041 12.0581 28.8516 11.553 28.4728 11.2374C28.094 10.9217 27.6521 10.6692 27.147 10.6692H26.1369L26.0738 0.94697C26.0738 0.378788 25.6319 0 25.1268 0C24.5587 0 24.1799 0.441919 24.1799 0.94697L24.243 10.6692H23.2329C22.7278 10.6692 22.2228 10.8586 21.9071 11.2374C21.5915 11.6162 21.339 12.0581 21.339 12.5631V14.7727C17.4879 15.5934 14.142 17.4242 11.5536 20.0126C8.08138 23.4849 5.99805 28.2197 5.99805 33.5227C5.99805 34.0909 6.43997 34.4697 6.94502 34.4697H17.046C17.2986 36.3005 18.0561 37.9419 19.3188 39.2045C20.7708 40.6566 22.791 41.5404 25.0006 41.5404C27.2102 41.5404 29.2304 40.6566 30.6824 39.2045C31.945 37.9419 32.7026 36.3005 32.9551 34.4697H43.0561C43.6243 34.4697 44.0031 34.0278 44.0031 33.5227C44.0031 28.2828 41.8566 23.4849 38.4475 20.0126ZM23.1698 12.6263H27.0839V14.5202C27.0208 14.5202 27.0208 14.5202 26.9576 14.5202C26.8314 14.5202 26.7682 14.5202 26.642 14.5202C26.1369 14.4571 25.5688 14.4571 25.0637 14.4571C24.5587 14.3939 24.0536 14.4571 23.5486 14.4571C23.4223 14.4571 23.296 14.4571 23.1698 14.5202V12.6263ZM29.3566 37.8157C28.2203 38.952 26.7051 39.5833 25.0637 39.5833C23.3592 39.5833 21.844 38.8889 20.7708 37.8157C19.8869 36.9318 19.2556 35.7955 19.0662 34.4697H25.0637H31.1243C30.8718 35.7323 30.3036 36.9318 29.3566 37.8157ZM32.1344 32.5126H25.0637H17.993H7.95512C8.20764 28.1566 10.0385 24.2424 12.9425 21.4015C15.594 18.75 19.0662 16.9823 22.9804 16.5404C23.1066 16.5404 23.296 16.4773 23.4223 16.4773C23.9273 16.4141 24.4955 16.4141 25.0006 16.4141C25.5688 16.4141 26.0738 16.4141 26.642 16.4773C26.7682 16.4773 26.9576 16.5404 27.0839 16.5404C30.998 16.9823 34.4703 18.75 37.1218 21.4015C40.0258 24.3056 41.8566 28.1566 42.1092 32.5126H32.1344Z" fill="#EFEEEF"/>
<path d="M25.0622 42.8662C24.494 42.8662 24.1152 43.3081 24.1152 43.8132V49.0531C24.1152 49.6213 24.5572 50.0001 25.0622 50.0001C25.6304 50.0001 26.0092 49.5582 26.0092 49.0531V43.8132C26.0092 43.245 25.6304 42.8662 25.0622 42.8662Z" fill="#EFEEEF"/>
<path d="M33.7113 46.4651L31.0598 41.9196C30.8073 41.4777 30.176 41.2883 29.7341 41.5408C29.2922 41.7934 29.1028 42.4247 29.3553 42.8666L32.0068 47.412C32.2593 47.854 32.8906 48.0433 33.3326 47.7908C33.7745 47.5383 33.9639 46.907 33.7113 46.4651Z" fill="#EFEEEF"/>
<path d="M39.015 40.4672L34.4696 37.8157C34.0277 37.5632 33.3964 37.6895 33.1438 38.1945C32.8913 38.6364 33.0176 39.2677 33.5226 39.5202L38.0681 42.1717C38.51 42.4243 39.1413 42.298 39.3938 41.793C39.6463 41.351 39.5201 40.7197 39.015 40.4672Z" fill="#EFEEEF"/>
<path d="M16.9822 38.195C16.7297 37.7531 16.0984 37.5637 15.6565 37.8162L11.111 40.4677C10.6691 40.7203 10.4797 41.3516 10.7322 41.7935C10.9848 42.2354 11.6161 42.4248 12.058 42.1723L16.6035 39.5208C17.0454 39.2051 17.2348 38.6369 16.9822 38.195Z" fill="#EFEEEF"/>
<path d="M20.3907 41.5408C19.9487 41.2883 19.3174 41.4777 19.0649 41.9196L16.4134 46.4651C16.1608 46.907 16.2871 47.5383 16.7922 47.7909C17.2341 48.0434 17.8654 47.9171 18.1179 47.4121L20.7694 42.8666C21.022 42.4247 20.8957 41.7934 20.3907 41.5408Z" fill="#EFEEEF"/>
</svg>
