<svg width="50" height="50" viewBox="0 0 50 50" fill="none" xmlns="http://www.w3.org/2000/svg">
<path d="M46.6666 0H3.33335C1.49998 0 0 1.49998 0 3.33335V46.6666C0 48.4999 1.49998 50 3.33335 50H46.6666C48.4999 50 50 48.4999 50 46.6666V3.33335C50 1.49998 48.5 0 46.6666 0ZM48.3333 46.6666C48.3333 47.5833 47.5833 48.3333 46.6666 48.3333H3.33335C2.41667 48.3333 1.66668 47.5833 1.66668 46.6666V3.33335C1.66668 2.41667 2.41667 1.66668 3.33335 1.66668H46.6666C47.5833 1.66668 48.3333 2.41667 48.3333 3.33335V46.6666Z" fill="#EFEEEF"/>
<path d="M33.3326 10.0003C33.3326 9.50029 32.9993 9.16699 32.4993 9.16699H17.4993C16.9993 9.16699 16.666 9.50029 16.666 10.0003V25.0004C16.666 25.1478 16.6957 25.2804 16.7494 25.3945V40.0004C16.7494 40.5004 17.0827 40.8336 17.5827 40.8336H32.4993C32.9993 40.8336 33.3327 40.5003 33.3327 40.0003V25.0003C33.3327 24.9995 33.3326 24.9987 33.3326 24.9978V10.0003ZM18.3327 10.8337H31.666V24.167H18.3327V10.8337ZM31.666 39.167H18.416V25.8337H31.666V39.167Z" fill="#EFEEEF"/>
<path d="M24.9994 14.167C23.166 14.167 21.666 15.667 21.666 17.5003C21.666 19.3337 23.166 20.8337 24.9994 20.8337C26.8327 20.8337 28.3327 19.3337 28.3327 17.5003C28.3327 15.667 26.8327 14.167 24.9994 14.167ZM24.9994 19.167C24.0827 19.167 23.3327 18.417 23.3327 17.5003C23.3327 16.5837 24.0827 15.8337 24.9994 15.8337C25.9161 15.8337 26.666 16.5837 26.666 17.5003C26.666 18.417 25.9161 19.167 24.9994 19.167Z" fill="#EFEEEF"/>
<path d="M5.00066 3.33301C4.08397 3.33301 3.33398 4.083 3.33398 4.99968C3.33398 5.91637 4.08397 6.66636 5.00066 6.66636C5.91735 6.66636 6.66733 5.91627 6.66733 4.99968C6.66733 4.083 5.91735 3.33301 5.00066 3.33301Z" fill="#EFEEEF"/>
<path d="M5.00066 43.333C4.08397 43.333 3.33398 44.083 3.33398 44.9997C3.33398 45.9164 4.08397 46.6664 5.00066 46.6664C5.91735 46.6664 6.66733 45.9164 6.66733 44.9997C6.66733 44.083 5.91735 43.333 5.00066 43.333Z" fill="#EFEEEF"/>
<path d="M45.0007 3.33301C44.084 3.33301 43.334 4.083 43.334 4.99968C43.334 5.91637 44.084 6.66636 45.0007 6.66636C45.9173 6.66636 46.6673 5.91627 46.6673 4.99968C46.6673 4.083 45.9173 3.33301 45.0007 3.33301Z" fill="#EFEEEF"/>
<path d="M45.0007 43.333C44.084 43.333 43.334 44.083 43.334 44.9997C43.334 45.9164 44.084 46.6664 45.0007 46.6664C45.9173 46.6664 46.6673 45.9164 46.6673 44.9997C46.6673 44.083 45.9173 43.333 45.0007 43.333Z" fill="#EFEEEF"/>
</svg>
