<svg width="50" height="50" viewBox="0 0 50 50" fill="none" xmlns="http://www.w3.org/2000/svg">
<path d="M49.2568 44.5184H16.2199C11.275 44.5184 7.25213 40.4955 7.25213 35.5509V25.9647H7.20634C4.05717 25.9647 1.49495 23.4024 1.49495 20.2533V14.3061H0.685378C0.306775 14.3061 0 13.9993 0 13.6207C0 13.2421 0.306775 12.9353 0.685378 12.9353H3.73394V7.52223C3.73394 7.14363 4.04072 6.83685 4.41932 6.83685C4.79792 6.83685 5.1047 7.14363 5.1047 7.52223V12.9356H10.7703V7.52223C10.7703 7.14363 11.0771 6.83685 11.4557 6.83685C11.8343 6.83685 12.1411 7.14363 12.1411 7.52223V12.9356H15.1896C15.5682 12.9356 15.875 13.2424 15.875 13.621C15.875 13.9996 15.5682 14.3064 15.1896 14.3064H14.3801V20.2533C14.3801 23.4024 11.8178 25.9647 8.66867 25.9647H8.62288V35.5509C8.62288 39.7399 12.0309 43.1476 16.2199 43.1476H49.2568C49.6354 43.1476 49.9422 43.4544 49.9422 43.833C49.9422 44.2116 49.6354 44.5184 49.2568 44.5184ZM7.9375 24.5939H8.66867C11.062 24.5939 13.0093 22.6466 13.0093 20.2533V14.3061H2.8657V20.253C2.8657 22.6463 4.813 24.5936 7.20634 24.5936H7.9375V24.5939ZM46.1161 36.278H23.0874C20.9457 36.278 19.2035 34.5357 19.2035 32.3941V9.36535C19.2035 7.22368 20.9457 5.48145 23.0874 5.48145H46.1161C48.2578 5.48145 50 7.22368 50 9.36535V32.3941C50 34.5357 48.2575 36.278 46.1161 36.278ZM23.0874 6.85248C21.7015 6.85248 20.5742 7.97979 20.5742 9.36562V32.3943C20.5742 33.7802 21.7015 34.9075 23.0874 34.9075H46.1161C47.5019 34.9075 48.6292 33.7802 48.6292 32.3943V9.36562C48.6292 7.98006 47.5019 6.85248 46.1161 6.85248H23.0874ZM34.6017 30.1795C29.474 30.1795 25.3022 26.0077 25.3022 20.88C25.3022 15.7523 29.474 11.5802 34.6017 11.5802C39.7297 11.5802 43.9015 15.752 43.9015 20.8797C43.9015 26.0074 39.7297 30.1795 34.6017 30.1795ZM34.6017 12.951C30.2298 12.951 26.673 16.5078 26.673 20.8797C26.673 25.2516 30.2298 28.8084 34.6017 28.8084C38.9736 28.8084 42.5307 25.2516 42.5307 20.8797C42.5307 16.5078 38.9736 12.951 34.6017 12.951ZM39.3281 23.3948H37.1878C36.8092 23.3948 36.5024 23.088 36.5024 22.7094V19.0503C36.5024 18.6717 36.8092 18.3649 37.1878 18.3649H39.3281C39.7067 18.3649 40.0135 18.6717 40.0135 19.0503V22.7094C40.0135 23.088 39.7067 23.3948 39.3281 23.3948ZM37.8732 22.024H38.6427V19.7357H37.8732V22.024ZM32.0154 23.3948H29.8751C29.4965 23.3948 29.1897 23.088 29.1897 22.7094V19.0503C29.1897 18.6717 29.4965 18.3649 29.8751 18.3649H32.0154C32.394 18.3649 32.7008 18.6717 32.7008 19.0503V22.7094C32.7008 23.088 32.394 23.3948 32.0154 23.3948ZM30.5607 22.024H31.3303V19.7357H30.5607V22.024Z" fill="#EFEEEF"/>
</svg>
