<svg width="50" height="50" viewBox="0 0 50 50" fill="none" xmlns="http://www.w3.org/2000/svg">
<path d="M38.2812 1.5625H11.7188C9.0261 1.5656 6.44462 2.63663 4.54062 4.54062C2.63663 6.44462 1.5656 9.0261 1.5625 11.7188V38.2812C1.5656 40.9739 2.63663 43.5554 4.54062 45.4594C6.44462 47.3634 9.0261 48.4344 11.7188 48.4375H38.2812C40.9739 48.4344 43.5554 47.3634 45.4594 45.4594C47.3634 43.5554 48.4344 40.9739 48.4375 38.2812V11.7188C48.4344 9.0261 47.3634 6.44462 45.4594 4.54062C43.5554 2.63663 40.9739 1.5656 38.2812 1.5625ZM46.875 38.2812C46.8724 40.5597 45.9662 42.744 44.3551 44.3551C42.744 45.9662 40.5597 46.8724 38.2812 46.875H11.7188C9.44034 46.8724 7.25599 45.9662 5.64491 44.3551C4.03383 42.744 3.12758 40.5597 3.125 38.2812V11.7188C3.12758 9.44034 4.03383 7.25599 5.64491 5.64491C7.25599 4.03383 9.44034 3.12758 11.7188 3.125H38.2812C40.5597 3.12758 42.744 4.03383 44.3551 5.64491C45.9662 7.25599 46.8724 9.44034 46.875 11.7188V38.2812Z" fill="#EFEEEF"/>
<path d="M25 41.4062H21.875V39.8438H20.3125V42.1875C20.3125 42.3947 20.3948 42.5934 20.5413 42.7399C20.6878 42.8864 20.8865 42.9688 21.0938 42.9688H25.7812C25.9885 42.9688 26.1872 42.8864 26.3337 42.7399C26.4802 42.5934 26.5625 42.3947 26.5625 42.1875V39.8438H25V41.4062Z" fill="#EFEEEF"/>
<path d="M27.8324 38.4518L23.9262 35.3268C23.7874 35.2164 23.6152 35.1562 23.4379 35.1562C23.2605 35.1562 23.0884 35.2164 22.9496 35.3268L19.0434 38.4518C18.8815 38.5813 18.7777 38.7698 18.7548 38.9758C18.7319 39.1818 18.7918 39.3885 18.9213 39.5504C19.0508 39.7123 19.2393 39.8161 19.4453 39.839C19.6514 39.8619 19.858 39.802 20.0199 39.6725L23.4379 36.9373L26.8559 39.6725C27.0177 39.802 27.2244 39.8619 27.4305 39.839C27.6365 39.8161 27.825 39.7123 27.9545 39.5504C28.084 39.3885 28.1439 39.1818 28.121 38.9758C28.0981 38.7698 27.9943 38.5813 27.8324 38.4518Z" fill="#EFEEEF"/>
<path d="M39.4531 38.3232V38.2812C39.4531 36.5578 38.2264 35.1562 36.7188 35.1562C35.2111 35.1562 33.9844 36.5578 33.9844 38.2812V38.3232C33.4416 38.4192 32.9495 38.7018 32.5929 39.122C32.2363 39.5423 32.0376 40.0739 32.0312 40.625C32.0312 41.9174 33.1115 42.9688 34.4398 42.9688H38.9977C40.3258 42.9688 41.4062 41.9174 41.4062 40.625C41.3999 40.0739 41.2012 39.5423 40.8446 39.122C40.488 38.7018 39.9959 38.4192 39.4531 38.3232ZM38.9977 41.4062H34.4398C33.9737 41.4062 33.5938 41.0561 33.5938 40.625C33.5938 40.1939 33.9737 39.8438 34.4398 39.8438C34.5238 39.8459 34.607 39.86 34.687 39.8857C34.8233 39.9251 34.9678 39.9266 35.1049 39.8901C35.242 39.8535 35.3665 39.7804 35.4652 39.6784C35.5638 39.5765 35.6329 39.4496 35.6649 39.3113C35.6968 39.1731 35.6906 39.0288 35.6468 38.8938C35.5816 38.6962 35.5478 38.4894 35.5469 38.2812C35.5469 37.4344 36.0832 36.7188 36.7188 36.7188C37.3543 36.7188 37.8906 37.4344 37.8906 38.2812C37.8897 38.4894 37.8559 38.6962 37.7907 38.8938C37.7469 39.0288 37.7407 39.1731 37.7726 39.3113C37.8046 39.4496 37.8737 39.5765 37.9723 39.6784C38.071 39.7804 38.1955 39.8535 38.3326 39.8901C38.4697 39.9266 38.6142 39.9251 38.7505 39.8857C38.8305 39.86 38.9137 39.8459 38.9977 39.8438C39.4638 39.8438 39.8438 40.1939 39.8438 40.625C39.8438 41.0561 39.4638 41.4062 38.9977 41.4062Z" fill="#EFEEEF"/>
<path d="M15.625 35.1562C13.7608 35.1583 11.9736 35.8997 10.6554 37.2179C9.33724 38.5361 8.59579 40.3233 8.59375 42.1875C8.59375 42.3947 8.67606 42.5934 8.82257 42.7399C8.96909 42.8864 9.1678 42.9688 9.375 42.9688C11.2392 42.9667 13.0264 42.2253 14.3446 40.9071C15.6628 39.5889 16.4042 37.8017 16.4062 35.9375C16.4062 35.7303 16.3239 35.5316 16.1774 35.3851C16.0309 35.2386 15.8322 35.1562 15.625 35.1562ZM10.2219 41.3406C10.4027 40.1973 10.941 39.1406 11.7596 38.3221C12.5781 37.5035 13.6348 36.9652 14.7781 36.7844C14.5973 37.9277 14.059 38.9844 13.2404 39.8029C12.4219 40.6215 11.3652 41.1598 10.2219 41.3406Z" fill="#EFEEEF"/>
<path d="M19.5312 10.9375H13.2812C13.074 10.9375 12.8753 11.0198 12.7288 11.1663C12.5823 11.3128 12.5 11.5115 12.5 11.7188C12.5 11.926 12.5823 12.1247 12.7288 12.2712C12.8753 12.4177 13.074 12.5 13.2812 12.5H18.75V17.9688H13.2812C13.074 17.9688 12.8753 18.0511 12.7288 18.1976C12.5823 18.3441 12.5 18.5428 12.5 18.75V25.7812C12.5 25.9885 12.5823 26.1872 12.7288 26.3337C12.8753 26.4802 13.074 26.5625 13.2812 26.5625H19.5312C19.7385 26.5625 19.9372 26.4802 20.0837 26.3337C20.2302 26.1872 20.3125 25.9885 20.3125 25.7812C20.3125 25.574 20.2302 25.3753 20.0837 25.2288C19.9372 25.0823 19.7385 25 19.5312 25H14.0625V19.5312H19.5312C19.7385 19.5312 19.9372 19.4489 20.0837 19.3024C20.2302 19.1559 20.3125 18.9572 20.3125 18.75V11.7188C20.3125 11.5115 20.2302 11.3128 20.0837 11.1663C19.9372 11.0198 19.7385 10.9375 19.5312 10.9375Z" fill="#EFEEEF"/>
<path d="M29.6875 10.9375H23.4375C23.2303 10.9375 23.0316 11.0198 22.8851 11.1663C22.7386 11.3128 22.6562 11.5115 22.6562 11.7188C22.6562 11.926 22.7386 12.1247 22.8851 12.2712C23.0316 12.4177 23.2303 12.5 23.4375 12.5H28.9062V17.9688H23.4375C23.2303 17.9688 23.0316 18.0511 22.8851 18.1976C22.7386 18.3441 22.6562 18.5428 22.6562 18.75V25.7812C22.6562 25.9885 22.7386 26.1872 22.8851 26.3337C23.0316 26.4802 23.2303 26.5625 23.4375 26.5625H29.6875C29.8947 26.5625 30.0934 26.4802 30.2399 26.3337C30.3864 26.1872 30.4688 25.9885 30.4688 25.7812C30.4688 25.574 30.3864 25.3753 30.2399 25.2288C30.0934 25.0823 29.8947 25 29.6875 25H24.2188V19.5312H29.6875C29.8947 19.5312 30.0934 19.4489 30.2399 19.3024C30.3864 19.1559 30.4688 18.9572 30.4688 18.75V11.7188C30.4688 11.5115 30.3864 11.3128 30.2399 11.1663C30.0934 11.0198 29.8947 10.9375 29.6875 10.9375Z" fill="#EFEEEF"/>
<path d="M35.1563 16.4062C34.6927 16.4062 34.2396 16.5437 33.8541 16.8012C33.4687 17.0588 33.1683 17.4248 32.9909 17.8531C32.8135 18.2813 32.7671 18.7526 32.8575 19.2072C32.948 19.6619 33.1712 20.0795 33.499 20.4073C33.8268 20.7351 34.2444 20.9583 34.699 21.0487C35.1537 21.1391 35.6249 21.0927 36.0532 20.9153C36.4814 20.7379 36.8475 20.4375 37.105 20.0521C37.3625 19.6667 37.5 19.2135 37.5 18.75C37.4993 18.1286 37.2522 17.5329 36.8128 17.0935C36.3734 16.6541 35.7776 16.4069 35.1563 16.4062ZM35.1563 19.5312C35.0017 19.5312 34.8507 19.4854 34.7222 19.3996C34.5937 19.3137 34.4936 19.1917 34.4345 19.049C34.3753 18.9062 34.3599 18.7491 34.39 18.5976C34.4202 18.446 34.4946 18.3068 34.6038 18.1976C34.7131 18.0883 34.8523 18.0139 35.0038 17.9838C35.1554 17.9536 35.3125 17.9691 35.4552 18.0282C35.598 18.0873 35.72 18.1875 35.8058 18.316C35.8917 18.4444 35.9375 18.5955 35.9375 18.75C35.9374 18.9572 35.855 19.1558 35.7085 19.3023C35.5621 19.4488 35.3634 19.5311 35.1563 19.5312Z" fill="#EFEEEF"/>
<path d="M35.1562 14.8438C35.5877 14.8438 35.9375 14.494 35.9375 14.0625C35.9375 13.631 35.5877 13.2812 35.1562 13.2812C34.7248 13.2812 34.375 13.631 34.375 14.0625C34.375 14.494 34.7248 14.8438 35.1562 14.8438Z" fill="#EFEEEF"/>
<path d="M35.1562 24.2188C35.5877 24.2188 35.9375 23.869 35.9375 23.4375C35.9375 23.006 35.5877 22.6562 35.1562 22.6562C34.7248 22.6562 34.375 23.006 34.375 23.4375C34.375 23.869 34.7248 24.2188 35.1562 24.2188Z" fill="#EFEEEF"/>
<path d="M35.1562 11.7188C35.5877 11.7188 35.9375 11.369 35.9375 10.9375C35.9375 10.506 35.5877 10.1562 35.1562 10.1562C34.7248 10.1562 34.375 10.506 34.375 10.9375C34.375 11.369 34.7248 11.7188 35.1562 11.7188Z" fill="#EFEEEF"/>
<path d="M35.1562 27.3438C35.5877 27.3438 35.9375 26.994 35.9375 26.5625C35.9375 26.131 35.5877 25.7812 35.1562 25.7812C34.7248 25.7812 34.375 26.131 34.375 26.5625C34.375 26.994 34.7248 27.3438 35.1562 27.3438Z" fill="#EFEEEF"/>
<path d="M39.0625 5.46875H10.9375C9.48764 5.47051 8.09766 6.04724 7.07245 7.07245C6.04724 8.09766 5.47051 9.48764 5.46875 10.9375V31.25C5.46875 31.4572 5.55106 31.6559 5.69757 31.8024C5.84409 31.9489 6.0428 32.0312 6.25 32.0312H43.75C43.9572 32.0312 44.1559 31.9489 44.3024 31.8024C44.4489 31.6559 44.5312 31.4572 44.5312 31.25V10.9375C44.5295 9.48764 43.9528 8.09766 42.9275 7.07245C41.9023 6.04724 40.5124 5.47051 39.0625 5.46875ZM42.9688 30.4688H7.03125V10.9375C7.03246 9.90187 7.44441 8.90901 8.17671 8.17671C8.90901 7.44441 9.90187 7.03246 10.9375 7.03125H39.0625C40.0981 7.03246 41.091 7.44441 41.8233 8.17671C42.5556 8.90901 42.9675 9.90187 42.9688 10.9375V30.4688Z" fill="#EFEEEF"/>
</svg>
