<svg width="50" height="50" viewBox="0 0 50 50" fill="none" xmlns="http://www.w3.org/2000/svg">
<g clip-path="url(#clip0)">
<path d="M49.1936 48.3877H0.806445C0.360742 48.3877 0 48.749 0 49.1941C0 49.6393 0.360742 50.0006 0.806445 50.0006H49.1936C49.6387 50.0006 50 49.6393 50 49.1941C50 48.749 49.6387 48.3877 49.1936 48.3877Z" fill="#EFEEEF"/>
<path d="M41.1289 5.37598H8.8709C8.42519 5.37598 8.06445 5.73672 8.06445 6.18242V49.1932C8.06445 49.6383 8.42519 49.9996 8.8709 49.9996C9.3166 49.9996 9.67734 49.6383 9.67734 49.1932V6.98887H40.3225V49.1932C40.3225 49.6383 40.6838 49.9996 41.1289 49.9996C41.574 49.9996 41.9354 49.6383 41.9354 49.1932V6.18242C41.9354 5.73672 41.5741 5.37598 41.1289 5.37598Z" fill="#EFEEEF"/>
<path d="M48.1183 0H1.88174C0.844043 0 0 0.844043 0 1.88174V3.49463C0 5.4543 1.53496 6.98926 3.49463 6.98926H46.5054C48.465 6.98926 50 5.4543 50 3.49463V1.88174C50 0.844043 49.156 0 48.1183 0ZM48.3871 3.49463C48.3871 4.54951 47.5607 5.37637 46.5054 5.37637H3.49463C2.43975 5.37637 1.61289 4.54951 1.61289 3.49463V1.88174C1.61289 1.73604 1.73604 1.61289 1.88174 1.61289H48.1183C48.264 1.61289 48.3871 1.73604 48.3871 1.88174V3.49463Z" fill="#EFEEEF"/>
<path d="M46.5057 5.37598C46.0605 5.37598 45.6992 5.73672 45.6992 6.18242V24.9996C45.6992 25.4447 46.0605 25.8061 46.5057 25.8061C46.9508 25.8061 47.3121 25.4447 47.3121 24.9996V6.18242C47.3121 5.73672 46.9508 5.37598 46.5057 5.37598Z" fill="#EFEEEF"/>
<path d="M43.8178 8.06445H6.1834C5.7377 8.06445 5.37695 8.42519 5.37695 8.8709C5.37695 9.3166 5.7377 9.67734 6.1834 9.67734H43.8178C44.2629 9.67734 44.6242 9.3166 44.6242 8.8709C44.6242 8.42519 44.263 8.06445 43.8178 8.06445Z" fill="#EFEEEF"/>
<path d="M43.8178 10.7529H6.1834C5.7377 10.7529 5.37695 11.1137 5.37695 11.5594C5.37695 12.0051 5.7377 12.3658 6.1834 12.3658H43.8178C44.2629 12.3658 44.6242 12.0051 44.6242 11.5594C44.6242 11.1137 44.263 10.7529 43.8178 10.7529Z" fill="#EFEEEF"/>
<path d="M43.8178 13.4404H6.1834C5.7377 13.4404 5.37695 13.8012 5.37695 14.2469C5.37695 14.6926 5.7377 15.0533 6.1834 15.0533H43.8178C44.2629 15.0533 44.6242 14.6926 44.6242 14.2469C44.6242 13.8012 44.263 13.4404 43.8178 13.4404Z" fill="#EFEEEF"/>
<path d="M43.8178 16.1289H6.1834C5.7377 16.1289 5.37695 16.4896 5.37695 16.9354C5.37695 17.3811 5.7377 17.7418 6.1834 17.7418H43.8178C44.2629 17.7418 44.6242 17.3811 44.6242 16.9354C44.6242 16.4896 44.263 16.1289 43.8178 16.1289Z" fill="#EFEEEF"/>
<path d="M14.2479 5.37598C13.8021 5.37598 13.4414 5.73672 13.4414 6.18242V22.3114C13.4414 22.7571 13.8021 23.1179 14.2479 23.1179C14.6936 23.1179 15.0543 22.7571 15.0543 22.3114V6.18242C15.0544 5.73672 14.6936 5.37598 14.2479 5.37598Z" fill="#EFEEEF"/>
<path d="M35.7537 5.37598C35.3086 5.37598 34.9473 5.73672 34.9473 6.18242V22.3114C34.9473 22.7571 35.3086 23.1179 35.7537 23.1179C36.1988 23.1179 36.5602 22.7571 36.5602 22.3114V6.18242C36.5602 5.73672 36.1988 5.37598 35.7537 5.37598Z" fill="#EFEEEF"/>
<path d="M24.9998 5.37598C24.5541 5.37598 24.1934 5.73672 24.1934 6.18242V22.3114C24.1934 22.7571 24.5541 23.1179 24.9998 23.1179C25.4455 23.1179 25.8062 22.7571 25.8062 22.3114V6.18242C25.8062 5.73672 25.4455 5.37598 24.9998 5.37598Z" fill="#EFEEEF"/>
<path d="M43.8178 18.8174H6.1834C5.7377 18.8174 5.37695 19.1781 5.37695 19.6238C5.37695 20.0695 5.7377 20.4303 6.1834 20.4303H43.8178C44.2629 20.4303 44.6242 20.0695 44.6242 19.6238C44.6242 19.1781 44.263 18.8174 43.8178 18.8174Z" fill="#EFEEEF"/>
<path d="M43.8178 21.5049H6.1834C5.7377 21.5049 5.37695 21.8656 5.37695 22.3113C5.37695 22.757 5.7377 23.1178 6.1834 23.1178H43.8178C44.2629 23.1178 44.6242 22.757 44.6242 22.3113C44.6242 21.8656 44.263 21.5049 43.8178 21.5049Z" fill="#EFEEEF"/>
<path d="M20.1944 27.1181C19.8793 26.8031 19.3691 26.8031 19.054 27.1181L13.6777 32.4945C13.3626 32.8095 13.3626 33.3198 13.6777 33.6348C13.8352 33.7923 14.0417 33.8709 14.2481 33.8709C14.4545 33.8709 14.661 33.7923 14.818 33.6348L20.1944 28.2584C20.5094 27.9434 20.5094 27.4332 20.1944 27.1181Z" fill="#EFEEEF"/>
<path d="M25.5708 27.1181C25.2557 26.8031 24.7455 26.8031 24.4304 27.1181L13.6777 37.8709C13.3626 38.1859 13.3626 38.6961 13.6777 39.0112C13.8352 39.1687 14.0417 39.2472 14.2481 39.2472C14.4545 39.2472 14.661 39.1687 14.818 39.0112L25.5708 28.2585C25.8858 27.9434 25.8858 27.4332 25.5708 27.1181Z" fill="#EFEEEF"/>
</g>
<defs>
<clipPath id="clip0">
<rect width="50" height="50" fill="white"/>
</clipPath>
</defs>
</svg>
