<svg width="50" height="50" viewBox="0 0 50 50" fill="none" xmlns="http://www.w3.org/2000/svg">
<path d="M24.9991 20.9678C22.7757 20.9678 20.9668 22.7766 20.9668 25C20.9668 27.2234 22.7757 29.0323 24.9991 29.0323C27.2224 29.0323 29.0313 27.2234 29.0313 25C29.0313 22.7766 27.2224 20.9678 24.9991 20.9678ZM24.9991 27.4194C23.6652 27.4194 22.5797 26.3339 22.5797 25C22.5797 23.6662 23.6652 22.5807 24.9991 22.5807C26.3329 22.5807 27.4184 23.6662 27.4184 25C27.4184 26.3339 26.3329 27.4194 24.9991 27.4194Z" fill="white"/>
<path d="M42.7419 19.3548H29.5516C29.3186 19.1661 29.0702 18.996 28.8145 18.8371C30.9621 17.1726 32.2581 14.6121 32.2581 11.846V0H26.6129C22.6113 0 19.3548 3.25645 19.3548 7.25806V20.4484C19.1661 20.6815 18.996 20.9298 18.8371 21.1855C17.1726 19.0379 14.6113 17.7419 11.846 17.7419H0V23.3871C0 27.3895 3.25645 30.6452 7.25806 30.6452H20.4484C20.6823 30.8339 20.9298 31.004 21.1855 31.1629C19.0379 32.8274 17.7419 35.3879 17.7419 38.1548V50H23.3871C27.3887 50 30.6452 46.7444 30.6452 42.7419V29.5516C30.8339 29.3177 31.004 29.0702 31.1629 28.8145C32.8274 30.9621 35.3879 32.2581 38.154 32.2581H50V26.6129C50 22.6113 46.7435 19.3548 42.7419 19.3548ZM20.9677 7.25806C20.9677 4.14516 23.5 1.6129 26.6129 1.6129H30.6452V11.846C30.6452 14.4032 29.2903 16.7452 27.1024 18.0548C26.4363 17.8532 25.7315 17.7419 25 17.7419C24.7274 17.7419 24.4589 17.7597 24.1935 17.7895V12.9032C24.1935 11.6411 24.7968 10.4347 25.8065 9.67742L27.0968 8.70968L26.129 7.41935L24.8387 8.3871C23.425 9.44758 22.5806 11.1355 22.5806 12.9032V18.1653C22.0073 18.3685 21.4645 18.6355 20.9677 18.9694V7.25806ZM7.25806 29.0323C4.14516 29.0323 1.6129 26.4992 1.6129 23.3871V19.3548H11.846C14.4032 19.3548 16.7452 20.7097 18.0548 22.8976C17.8532 23.5637 17.7419 24.2685 17.7419 25C17.7419 25.2726 17.7597 25.5411 17.7895 25.8065H12.9032C11.6411 25.8065 10.4347 25.2032 9.67742 24.1935L8.70968 22.9032L7.41935 23.871L8.3871 25.1613C9.44758 26.575 11.1355 27.4194 12.9032 27.4194H18.1653C18.3685 27.9927 18.6355 28.5355 18.9694 29.0323H7.25806ZM29.0323 42.7419C29.0323 45.854 26.5 48.3871 23.3871 48.3871H19.3548V38.1548C19.3548 35.5976 20.7105 33.2548 22.8984 31.9452C23.5637 32.1468 24.2694 32.2581 25 32.2581C25.2726 32.2581 25.5411 32.2403 25.8065 32.2105V37.0968C25.8065 38.3589 25.2032 39.5653 24.1935 40.3226L22.9032 41.2903L23.871 42.5806L25.1613 41.6129C26.575 40.5532 27.4194 38.8645 27.4194 37.0968V31.8347C27.9927 31.6315 28.5355 31.3645 29.0323 31.0306V42.7419ZM25 30.6452C21.8871 30.6452 19.3548 28.1121 19.3548 25C19.3548 21.8871 21.8871 19.3548 25 19.3548C28.1129 19.3548 30.6452 21.8871 30.6452 25C30.6452 28.1121 28.1129 30.6452 25 30.6452ZM48.3871 30.6452H38.154C35.5968 30.6452 33.2548 29.2903 31.9452 27.1024C32.1468 26.4363 32.2581 25.7315 32.2581 25C32.2581 24.7274 32.2403 24.4589 32.2105 24.1935H37.0968C38.3589 24.1935 39.5653 24.7968 40.3226 25.8065L41.2903 27.0968L42.5806 26.1298L41.6129 24.8387C40.5524 23.425 38.8645 22.5806 37.0968 22.5806H31.8347C31.6315 22.0073 31.3645 21.4645 31.0306 20.9677H42.7419C45.8548 20.9677 48.3871 23.5 48.3871 26.6129V30.6452Z" fill="white"/>
<path d="M44.4677 13.5641L45.858 12.7455C43.1862 8.20683 39.0378 4.60844 34.1766 2.61328L33.5645 4.10602C38.1016 5.96731 41.9733 9.32618 44.4677 13.5641Z" fill="white"/>
<path d="M45.8953 16.4356L47.3872 15.8227C47.1743 15.305 46.9404 14.7872 46.6921 14.2832L45.2461 14.9985C45.4775 15.4687 45.6961 15.9526 45.8953 16.4356Z" fill="white"/>
<path d="M39.636 14.97L40.965 14.0571C39.2432 11.5482 36.9231 9.45386 34.257 7.99902L33.4844 9.41515C35.9295 10.749 38.0561 12.67 39.636 14.97Z" fill="white"/>
<path d="M41.3308 18.0577L42.8146 17.4254C42.5711 16.8536 42.2969 16.2875 42.0001 15.7432L40.584 16.5157C40.8566 17.0149 41.1074 17.5335 41.3308 18.0577Z" fill="white"/>
<path d="M15.6568 4.44235L14.9883 2.97461C9.35602 5.53913 4.96086 10.1012 2.61328 15.823L4.10602 16.4351C6.29715 11.0948 10.3996 6.8359 15.6568 4.44235Z" fill="white"/>
<path d="M17.9917 3.53387L17.4917 2C17.0449 2.14516 16.6046 2.30403 16.1699 2.47419L16.7578 3.97581C17.1643 3.81694 17.5748 3.66935 17.9917 3.53387Z" fill="white"/>
<path d="M8 15.7427L9.41613 16.5153C10.75 14.0701 12.6718 11.9419 14.9734 10.3629L14.0613 9.03223C11.5508 10.7548 9.45565 13.0758 8 15.7427Z" fill="white"/>
<path d="M7.08958 38.7461L5.81055 39.7292C8.417 43.1211 11.8791 45.7695 15.8226 47.3872L16.4347 45.8953C12.7549 44.3848 9.52345 41.913 7.08958 38.7461Z" fill="white"/>
<path d="M5.2277 35.9043L3.81641 36.6857C4.1285 37.2503 4.46802 37.8099 4.82447 38.347L6.16883 37.4567C5.83576 36.9543 5.51963 36.4325 5.2277 35.9043Z" fill="white"/>
<path d="M10.3642 35.0293L9.03516 35.943C10.7577 38.4503 13.0771 40.5454 15.7432 42.0011L16.5158 40.5849C14.0714 39.2503 11.944 37.3293 10.3642 35.0293Z" fill="white"/>
<path d="M35 45.2451L35.7153 46.6911C41.0048 44.0741 45.15 39.6298 47.3871 34.1774L45.8944 33.5645C43.8064 38.654 39.9371 42.8016 35 45.2451Z" fill="white"/>
<path d="M32.0078 46.4668L32.5086 47.999C33.0764 47.8144 33.6377 47.6071 34.178 47.3845L33.5635 45.8926C33.0618 46.1006 32.5377 46.2934 32.0078 46.4668Z" fill="white"/>
<path d="M42.0002 34.2571L40.5841 33.4854C39.0962 36.2128 36.9075 38.5128 34.2559 40.1386L35.0986 41.5136C37.9905 39.7402 40.3768 37.2313 42.0002 34.2571Z" fill="white"/>
</svg>
