<svg width="50" height="40" viewBox="0 0 50 40" fill="none" xmlns="http://www.w3.org/2000/svg">
<path d="M45.3125 0.46875H4.6875C2.53359 0.46875 0.78125 2.22109 0.78125 4.375V15.3125C0.78125 17.4664 2.53359 19.2188 4.6875 19.2188H45.3125C47.4664 19.2188 49.2188 17.4664 49.2188 15.3125V4.375C49.2188 2.22109 47.4664 0.46875 45.3125 0.46875ZM7.03125 2.03125H42.9688V2.8125C42.9688 3.24297 42.6188 3.59375 42.1875 3.59375H7.8125C7.38125 3.59375 7.03125 3.24297 7.03125 2.8125V2.03125ZM42.9688 14.5312H7.03125V13.75C7.03125 13.3195 7.38125 12.9688 7.8125 12.9688H42.1875C42.6188 12.9688 42.9688 13.3195 42.9688 13.75V14.5312ZM7.03125 16.0938H42.9688V17.6562H7.03125V16.0938ZM47.6562 15.3125C47.6562 16.6047 46.6047 17.6562 45.3125 17.6562H44.5312V13.75C44.5312 12.4578 43.4797 11.4062 42.1875 11.4062H7.8125C6.52031 11.4062 5.46875 12.4578 5.46875 13.75V17.6562H4.6875C3.39531 17.6562 2.34375 16.6047 2.34375 15.3125V4.375C2.34375 3.08281 3.39531 2.03125 4.6875 2.03125H5.46875V2.8125C5.46875 4.10469 6.52031 5.15625 7.8125 5.15625H42.1875C43.4797 5.15625 44.5312 4.10469 44.5312 2.8125V2.03125H45.3125C46.6047 2.03125 47.6562 3.08281 47.6562 4.375V15.3125Z" fill="#EFEEEF"/>
<path d="M21.875 7.5H28.125V9.0625H21.875V7.5Z" fill="#EFEEEF"/>
<path d="M20.3125 36.4062C20.3125 37.268 19.6117 37.9688 18.75 37.9688C17.8883 37.9688 17.1875 37.268 17.1875 36.4062C17.1875 35.5445 17.8883 34.8438 18.75 34.8438V33.2812C17.0266 33.2812 15.625 34.6828 15.625 36.4062C15.625 38.1297 17.0266 39.5312 18.75 39.5312C20.4734 39.5312 21.875 38.1297 21.875 36.4062V23.9062H20.3125V36.4062Z" fill="#EFEEEF"/>
<path d="M31.25 33.2812V34.8438C32.1117 34.8438 32.8125 35.5445 32.8125 36.4062C32.8125 37.268 32.1117 37.9688 31.25 37.9688C30.3883 37.9688 29.6875 37.268 29.6875 36.4062V23.9062H28.125V36.4062C28.125 38.1297 29.5266 39.5312 31.25 39.5312C32.9734 39.5312 34.375 38.1297 34.375 36.4062C34.375 34.6828 32.9734 33.2812 31.25 33.2812Z" fill="#EFEEEF"/>
<path d="M24.2188 20.7812H25.7812V36.4062H24.2188V20.7812Z" fill="#EFEEEF"/>
<path d="M11.9473 25.6973L10.6137 27.0309H9.37461V25.7918L10.7082 24.4582L9.60351 23.3535L8.59336 24.3637L7.5832 23.3535L6.47851 24.4582L7.81211 25.7918V27.0309H6.57304L5.23945 25.6973L4.13477 26.802L5.14492 27.8121L4.13477 28.8223L5.23945 29.927L6.57304 28.5934H7.81211V29.8324L6.47851 31.166L7.5832 32.2707L8.59336 31.2606L9.60351 32.2707L10.7082 31.166L9.37461 29.8324V28.5934H10.6137L11.9473 29.927L13.0519 28.8223L12.0418 27.8121L13.0519 26.802L11.9473 25.6973Z" fill="#EFEEEF"/>
<path d="M44.7598 24.1348L43.4262 25.4684H42.1871V24.2293L43.5207 22.8957L42.416 21.791L41.4059 22.8012L40.3957 21.791L39.291 22.8957L40.6246 24.2293V25.4684H39.3855L38.052 24.1348L36.9473 25.2395L37.9574 26.2496L36.9473 27.2598L38.052 28.3645L39.3855 27.0309H40.6246V28.2699L39.291 29.6035L40.3957 30.7082L41.4059 29.6981L42.416 30.7082L43.5207 29.6035L42.1871 28.2699V27.0309H43.4262L44.7598 28.3645L45.8645 27.2598L44.8543 26.2496L45.8645 25.2395L44.7598 24.1348Z" fill="#EFEEEF"/>
</svg>
