<svg width="24" height="15" viewBox="0 0 24 15" fill="none" xmlns="http://www.w3.org/2000/svg">
<path d="M23.7135 12.6951C23.6492 12.5885 23.2514 11.7329 21.3371 9.97434C19.3331 8.13288 19.6023 8.4319 22.0161 5.24783C23.4862 3.30867 24.074 2.12446 23.89 1.6182C23.715 1.13563 22.6338 1.26294 22.6338 1.26294L19.0385 1.28366C19.0385 1.28366 18.7723 1.24813 18.5734 1.36508C18.3805 1.48054 18.2563 1.74699 18.2563 1.74699C18.2563 1.74699 17.6865 3.24798 16.9268 4.52398C15.3251 7.21659 14.6835 7.3587 14.4218 7.19143C13.8131 6.80212 13.9656 5.6253 13.9656 4.79043C13.9656 2.18071 14.365 1.09271 13.1865 0.811455C12.7946 0.718197 12.5075 0.656026 11.507 0.645664C10.2238 0.632342 9.13656 0.650105 8.5219 0.94764C8.11212 1.146 7.79656 1.5886 7.98949 1.61376C8.22728 1.64485 8.76567 1.75735 9.05132 2.14222C9.42071 2.63811 9.40725 3.75424 9.40725 3.75424C9.40725 3.75424 9.61962 6.8258 8.91223 7.20771C8.42618 7.46972 7.76067 6.93534 6.33243 4.49141C5.60112 3.24058 5.04777 1.85653 5.04777 1.85653C5.04777 1.85653 4.94158 1.59896 4.75165 1.46129C4.52134 1.29402 4.1983 1.24073 4.1983 1.24073L0.779508 1.26146C0.779508 1.26146 0.266539 1.27626 0.0781017 1.49682C-0.0893983 1.6937 0.0646419 2.09929 0.0646419 2.09929C0.0646419 2.09929 2.74165 8.29719 5.77161 11.422C8.55181 14.2864 11.7074 14.0984 11.7074 14.0984H13.1371C13.1371 14.0984 13.5693 14.051 13.7892 13.8156C13.9926 13.5995 13.9851 13.1939 13.9851 13.1939C13.9851 13.1939 13.9567 11.2947 14.848 11.015C15.7259 10.7396 16.8535 12.8505 18.0485 13.6632C18.9518 14.2775 19.6382 14.1428 19.6382 14.1428L22.8342 14.0984C22.8342 14.0984 24.5062 13.9962 23.7135 12.6951Z" fill="white"/>
</svg>
