<svg width="24" height="17" viewBox="0 0 24 17" fill="none" xmlns="http://www.w3.org/2000/svg">
<path fill-rule="evenodd" clip-rule="evenodd" d="M20.1601 0.140509C21.5943 0.222982 22.2987 0.439855 22.9477 1.61891C23.6237 2.79644 23.9647 4.82465 23.9647 8.39694V8.40153V8.40916C23.9647 11.9647 23.6237 14.0081 22.9492 15.1735C22.3002 16.3525 21.5958 16.5663 20.1616 16.6656C18.7273 16.7496 15.1246 16.8 12.0034 16.8C8.87624 16.8 5.272 16.7496 3.83928 16.6641C2.40805 16.5648 1.70366 16.351 1.04861 15.1719C0.380106 14.0066 0.0361328 11.9631 0.0361328 8.40764V8.40458V8.4V8.39542C0.0361328 4.82465 0.380106 2.79644 1.04861 1.61891C1.70366 0.438327 2.40955 0.222982 3.84078 0.138982C5.272 0.0412364 8.87624 0 12.0034 0C15.1246 0 18.7273 0.0412364 20.1601 0.140509ZM16.487 8.4L9.00935 3.81818V12.9818L16.487 8.4Z" fill="white"/>
</svg>
